<svg width="185" height="162" viewBox="0 0 185 162" fill="none" xmlns="http://www.w3.org/2000/svg">
<g clip-path="url(#clip0_399_5101)">
<path d="M44.0948 189.881C44.0948 189.881 178.242 205.737 182.31 171.912C186.826 134.307 112.546 141.098 112.546 141.098C112.546 141.098 180.516 125.114 166.614 98.9445C153.065 73.4476 105.595 99.4891 105.595 99.4891C105.595 99.4891 154.891 42.6336 129.554 31.9352C101.463 20.0516 71.7698 87.125 71.7698 87.125C71.7698 87.125 91.5971 23.2867 63.5697 21.5891C40.219 20.1797 30.8979 72.4547 30.8979 72.4547C30.8979 72.4547 32.9158 23.9594 -4.97712 30.5258C-39.0263 36.4195 6.77835 184.372 6.77835 184.372L44.0948 189.881Z" fill="#008A7C"/>
<path d="M145.186 104.87C140.702 107.369 138.107 111.212 139.356 113.455C140.606 115.697 145.25 115.473 149.703 112.942C154.187 110.444 156.781 106.6 155.532 104.358C154.283 102.148 149.67 102.372 145.186 104.87Z" fill="#00594F"/>
<path d="M164.533 155.736C159.44 156.248 155.5 158.715 155.756 161.277C156.012 163.808 160.336 165.473 165.461 164.961C170.554 164.448 174.494 161.982 174.238 159.419C173.982 156.889 169.626 155.223 164.533 155.736Z" fill="#00594F"/>
<path d="M154.475 152.437C152.457 152.629 150.92 153.622 151.016 154.615C151.112 155.608 152.842 156.28 154.86 156.056C156.878 155.864 158.415 154.871 158.319 153.878C158.191 152.885 156.493 152.245 154.475 152.437Z" fill="#00594F"/>
<path d="M125.967 99.8414C124.526 100.642 123.693 101.859 124.109 102.596C124.494 103.301 125.999 103.237 127.408 102.436C128.85 101.635 129.683 100.418 129.266 99.6813C128.882 98.9766 127.408 99.0407 125.967 99.8414Z" fill="#00594F"/>
<path d="M118.792 45.4523C116.71 48.7836 116.358 52.339 117.991 53.364C119.657 54.4211 122.7 52.5633 124.782 49.232C126.864 45.9008 127.216 42.3453 125.583 41.3203C123.949 40.2633 120.906 42.1211 118.792 45.4523Z" fill="#00594F"/>
<path d="M110.623 44.5555C109.983 45.5805 109.887 46.6695 110.367 46.9898C110.88 47.3101 111.809 46.7336 112.449 45.7086C113.09 44.6836 113.186 43.5945 112.705 43.2742C112.193 42.9539 111.264 43.5305 110.623 44.5555Z" fill="#00594F"/>
<path d="M58.9896 38.0211C58.7334 41.9609 60.1107 45.2281 62.0967 45.3562C64.0506 45.4844 65.8443 42.4094 66.1006 38.4695C66.3568 34.5297 64.9795 31.2625 62.9936 31.1344C61.0076 31.0062 59.2459 34.0812 58.9896 38.0211Z" fill="#00594F"/>
<path d="M51.3659 41.0961C51.3018 42.3133 51.7182 43.3063 52.3268 43.3383C52.9354 43.3703 53.4799 42.4414 53.544 41.2242C53.6081 40.0071 53.1916 39.0141 52.5831 38.9821C51.9745 38.95 51.4299 39.911 51.3659 41.0961Z" fill="#00594F"/>
<path d="M9.05215 44.9398C8.7959 48.8797 10.1732 52.1469 12.1592 52.275C14.1131 52.4031 15.9068 49.3281 16.1631 45.3883C16.4193 41.4484 15.042 38.1813 13.0561 38.0531C11.1021 37.957 9.3084 41.032 9.05215 44.9398Z" fill="#00594F"/>
<path d="M1.42837 48.0469C1.36431 49.264 1.78071 50.257 2.38931 50.2891C2.9979 50.3211 3.54243 49.3922 3.60649 48.175C3.67056 46.9578 3.25415 45.9648 2.64556 45.9328C2.06899 45.9008 1.52446 46.8297 1.42837 48.0469Z" fill="#00594F"/>
<path d="M34.6463 186.87C34.6463 186.87 142.143 199.555 145.378 172.456C148.998 142.347 89.4838 147.76 89.4838 147.76C89.4838 147.76 143.937 134.948 132.822 113.967C121.964 93.5313 83.9424 114.416 83.9424 114.416C83.9424 114.416 123.437 68.8672 103.129 60.2829C80.6112 50.7696 56.812 104.486 56.812 104.486C56.812 104.486 72.6995 53.3321 50.2456 51.9868C31.5393 50.8657 24.076 92.7625 24.076 92.7625C24.076 92.7625 25.7096 53.9086 -4.68804 59.1618C-31.9787 63.9024 4.72915 182.45 4.72915 182.45L34.6463 186.87Z" fill="#006B5F"/>
<path d="M101.623 121.815C97.8436 123.929 95.6655 127.164 96.6905 129.054C97.7475 130.944 101.655 130.752 105.435 128.638C109.215 126.523 111.393 123.288 110.368 121.398C109.311 119.509 105.403 119.701 101.623 121.815Z" fill="#003831"/>
<path d="M35.6713 153.59C29.1049 157.274 25.2611 162.911 27.0869 166.21C28.9127 169.477 35.7354 169.157 42.3338 165.474C48.9322 161.79 52.744 156.152 50.9182 152.853C49.0604 149.554 42.2377 149.906 35.6713 153.59Z" fill="#003831"/>
<path d="M20.713 147.152C19.3037 150.771 19.656 154.231 21.4498 154.935C23.2435 155.64 25.838 153.27 27.2154 149.65C28.6248 146.03 28.2724 142.571 26.4787 141.866C24.7169 141.162 22.1224 143.532 20.713 147.152Z" fill="#003831"/>
<path d="M86.8903 85.2993C84.584 88.9508 84.1996 92.8586 86.0254 94.0118C87.8512 95.1649 91.1825 93.1149 93.4887 89.4633C95.795 85.8118 96.1793 81.9039 94.3536 80.7508C92.5278 79.5977 89.1965 81.6477 86.8903 85.2993Z" fill="#003831"/>
<path d="M121.226 159.836C116.934 160.252 113.603 162.366 113.827 164.513C114.051 166.659 117.703 168.036 121.995 167.62C126.287 167.203 129.619 165.089 129.394 162.943C129.17 160.797 125.519 159.388 121.226 159.836Z" fill="#003831"/>
<path d="M47.2983 67.7462C46.5616 70.4368 47.0741 72.9352 48.4194 73.2876C49.7648 73.6399 51.4304 71.7501 52.1671 69.0595C52.9038 66.3688 52.3913 63.8704 51.046 63.5181C49.7007 63.1657 48.0351 65.0556 47.2983 67.7462Z" fill="#003831"/>
<path d="M4.12019 72.711C4.24832 75.4977 5.49754 77.6758 6.87488 77.6118C8.25223 77.5477 9.27723 75.2415 9.1491 72.4547C9.02098 69.668 7.77175 67.4899 6.39441 67.554C5.01707 67.618 3.99207 69.9243 4.12019 72.711Z" fill="#003831"/>
<path d="M86.1839 123.577C84.0057 124.794 82.7245 126.652 83.3331 127.741C83.9417 128.83 86.1839 128.702 88.362 127.484C90.5401 126.267 91.8214 124.409 91.2128 123.32C90.6042 122.231 88.362 122.327 86.1839 123.577Z" fill="#003831"/>
<path d="M105.723 154.967C103.257 155.224 101.335 156.409 101.463 157.658C101.591 158.907 103.705 159.708 106.172 159.452C108.638 159.195 110.56 158.01 110.432 156.761C110.336 155.512 108.222 154.711 105.723 154.967Z" fill="#003831"/>
<path d="M84.5513 72.807C83.238 74.9211 83.0138 77.1633 84.0388 77.836C85.0958 78.5086 87.0177 77.3235 88.363 75.2094C89.6763 73.0953 89.9005 70.8531 88.8755 70.1805C87.7864 69.5399 85.8646 70.693 84.5513 72.807Z" fill="#003831"/>
<path d="M40.2526 80.2704C39.7401 81.8079 39.9644 83.2493 40.7331 83.5055C41.5019 83.7618 42.5269 82.7047 43.0073 81.1672C43.5198 79.6297 43.2956 78.1883 42.5269 77.9321C41.7902 77.6758 40.7651 78.7329 40.2526 80.2704Z" fill="#003831"/>
<path d="M9.21273 82.0961C9.75726 83.6016 10.7823 84.6266 11.551 84.3383C12.3198 84.0821 12.4799 82.6407 11.9354 81.1032C11.3909 79.5977 10.3659 78.5727 9.5971 78.861C8.86038 79.1493 8.6682 80.5907 9.21273 82.0961Z" fill="#003831"/>
</g>
<defs>
<clipPath id="clip0_399_5101">
<rect width="205" height="205" fill="white" transform="matrix(1 0 0 -1 -20 205)"/>
</clipPath>
</defs>
</svg>
