<svg width="171" height="162" viewBox="0 0 171 162" fill="none" xmlns="http://www.w3.org/2000/svg">
<g clip-path="url(#clip0_399_4637)">
<path d="M140.905 189.881C140.905 189.881 6.75836 205.737 2.6904 171.912C-1.826 134.307 72.4545 141.098 72.4545 141.098C72.4545 141.098 4.48416 125.114 18.3857 98.9445C31.9349 73.4476 79.4052 99.4891 79.4052 99.4891C79.4052 99.4891 30.1092 42.6336 55.4459 31.9352C83.5373 20.0516 113.23 87.125 113.23 87.125C113.23 87.125 93.4029 23.2867 121.43 21.5891C144.781 20.1797 154.102 72.4547 154.102 72.4547C154.102 72.4547 152.084 23.9594 189.977 30.5258C224.026 36.4195 178.222 184.372 178.222 184.372L140.905 189.881Z" fill="#008A7C"/>
<path d="M39.8139 104.87C44.2983 107.369 46.8928 111.212 45.6436 113.455C44.3944 115.697 39.7498 115.473 35.2975 112.942C30.8131 110.444 28.2186 106.6 29.4678 104.358C30.717 102.148 35.3295 102.372 39.8139 104.87Z" fill="#00594F"/>
<path d="M20.4675 155.736C25.5604 156.248 29.5003 158.715 29.244 161.277C28.9878 163.808 24.6636 165.473 19.5386 164.961C14.4456 164.448 10.5058 161.982 10.762 159.419C11.0183 156.889 15.3745 155.223 20.4675 155.736Z" fill="#00594F"/>
<path d="M30.5246 152.437C32.5426 152.629 34.0801 153.622 33.984 154.615C33.8879 155.608 32.1582 156.28 30.1403 156.056C28.1223 155.864 26.5848 154.871 26.6809 153.878C26.809 152.885 28.5067 152.245 30.5246 152.437Z" fill="#00594F"/>
<path d="M59.033 99.8414C60.4744 100.642 61.3072 101.859 60.8908 102.596C60.5064 103.301 59.0009 103.237 57.5916 102.436C56.1501 101.635 55.3173 100.418 55.7337 99.6813C56.1181 98.9766 57.5916 99.0407 59.033 99.8414Z" fill="#00594F"/>
<path d="M66.208 45.4523C68.29 48.7836 68.6423 52.339 67.0088 53.364C65.3431 54.4211 62.3002 52.5633 60.2181 49.232C58.1361 45.9008 57.7838 42.3453 59.4174 41.3203C61.0509 40.2633 64.0939 42.1211 66.208 45.4523Z" fill="#00594F"/>
<path d="M74.3766 44.5555C75.0173 45.5805 75.1134 46.6695 74.6329 46.9898C74.1204 47.3101 73.1915 46.7336 72.5509 45.7086C71.9102 44.6836 71.8141 43.5945 72.2946 43.2742C72.8071 42.9539 73.736 43.5305 74.3766 44.5555Z" fill="#00594F"/>
<path d="M126.01 38.0211C126.267 41.9609 124.889 45.2281 122.903 45.3562C120.949 45.4844 119.156 42.4094 118.899 38.4695C118.643 34.5297 120.021 31.2625 122.006 31.1344C123.992 31.0062 125.754 34.0812 126.01 38.0211Z" fill="#00594F"/>
<path d="M133.634 41.0961C133.698 42.3133 133.282 43.3063 132.673 43.3383C132.065 43.3703 131.52 42.4414 131.456 41.2242C131.392 40.0071 131.808 39.0141 132.417 38.9821C133.026 38.95 133.57 39.911 133.634 41.0961Z" fill="#00594F"/>
<path d="M175.948 44.9398C176.204 48.8797 174.827 52.1469 172.841 52.275C170.887 52.4031 169.093 49.3281 168.837 45.3883C168.581 41.4484 169.958 38.1813 171.944 38.0531C173.898 37.957 175.692 41.032 175.948 44.9398Z" fill="#00594F"/>
<path d="M150.354 186.87C150.354 186.87 42.8568 199.555 39.6216 172.456C36.0021 142.347 95.5162 147.76 95.5162 147.76C95.5162 147.76 41.063 134.948 52.1779 113.967C63.0365 93.5313 101.058 114.416 101.058 114.416C101.058 114.416 61.563 68.8672 81.8709 60.2829C104.389 50.7696 128.188 104.486 128.188 104.486C128.188 104.486 112.301 53.3321 134.754 51.9868C153.461 50.8657 160.924 92.7625 160.924 92.7625C160.924 92.7625 159.29 53.9086 189.688 59.1618C216.979 63.9024 180.271 182.45 180.271 182.45L150.354 186.87Z" fill="#006B5F"/>
<path d="M83.3767 121.815C87.1564 123.929 89.3345 127.164 88.3095 129.054C87.2525 130.944 83.3447 130.752 79.565 128.638C75.7853 126.523 73.6072 123.288 74.6322 121.398C75.6892 119.509 79.597 119.701 83.3767 121.815Z" fill="#003831"/>
<path d="M149.329 153.59C155.895 157.274 159.739 162.911 157.913 166.21C156.087 169.477 149.265 169.157 142.666 165.474C136.068 161.79 132.256 156.152 134.082 152.853C135.94 149.554 142.762 149.906 149.329 153.59Z" fill="#003831"/>
<path d="M164.287 147.152C165.696 150.771 165.344 154.231 163.55 154.935C161.756 155.64 159.162 153.27 157.785 149.65C156.375 146.03 156.728 142.571 158.521 141.866C160.283 141.162 162.878 143.532 164.287 147.152Z" fill="#003831"/>
<path d="M98.1097 85.2993C100.416 88.9508 100.8 92.8586 98.9746 94.0118C97.1488 95.1649 93.8175 93.1149 91.5113 89.4633C89.205 85.8118 88.8207 81.9039 90.6464 80.7508C92.4722 79.5977 95.8035 81.6477 98.1097 85.2993Z" fill="#003831"/>
<path d="M63.7737 159.836C68.0659 160.252 71.3971 162.366 71.1729 164.513C70.9487 166.659 67.2971 168.036 63.0049 167.62C58.7127 167.203 55.3815 165.089 55.6057 162.943C55.8299 160.797 59.4815 159.388 63.7737 159.836Z" fill="#003831"/>
<path d="M137.702 67.7462C138.438 70.4368 137.926 72.9352 136.581 73.2876C135.235 73.6399 133.57 71.7501 132.833 69.0595C132.096 66.3688 132.609 63.8704 133.954 63.5181C135.299 63.1657 136.965 65.0556 137.702 67.7462Z" fill="#003831"/>
<path d="M98.8161 123.577C100.994 124.794 102.276 126.652 101.667 127.741C101.058 128.83 98.8161 128.702 96.638 127.484C94.4599 126.267 93.1786 124.409 93.7872 123.32C94.3958 122.231 96.638 122.327 98.8161 123.577Z" fill="#003831"/>
<path d="M79.2768 154.967C81.7432 155.224 83.665 156.409 83.5369 157.658C83.4088 158.907 81.2947 159.708 78.8283 159.452C76.3619 159.195 74.44 158.01 74.5682 156.761C74.6643 155.512 76.7783 154.711 79.2768 154.967Z" fill="#003831"/>
<path d="M100.449 72.807C101.762 74.9211 101.986 77.1633 100.961 77.836C99.9042 78.5086 97.9823 77.3235 96.637 75.2094C95.3237 73.0953 95.0995 70.8531 96.1245 70.1805C97.2136 69.5399 99.1354 70.693 100.449 72.807Z" fill="#003831"/>
<path d="M144.747 80.2704C145.26 81.8079 145.036 83.2493 144.267 83.5055C143.498 83.7618 142.473 82.7047 141.993 81.1672C141.48 79.6297 141.704 78.1883 142.473 77.9321C143.21 77.6758 144.235 78.7329 144.747 80.2704Z" fill="#003831"/>
</g>
<defs>
<clipPath id="clip0_399_4637">
<rect width="205" height="205" fill="white" transform="matrix(-1 0 0 -1 205 205)"/>
</clipPath>
</defs>
</svg>
