<svg width="360" height="384" viewBox="0 0 360 384" fill="none" xmlns="http://www.w3.org/2000/svg">
<g clip-path="url(#clip0_402_26985)">
<path d="M557.106 1.68005H-131.922V389.314H557.106V1.68005Z" fill="#FFEECE"/>
<mask id="mask0_402_26985" style="mask-type:luminance" maskUnits="userSpaceOnUse" x="-132" y="1" width="690" height="389">
<path d="M557.104 1.68005H-131.924V389.314H557.104V1.68005Z" fill="white"/>
</mask>
<g mask="url(#mask0_402_26985)">
<path opacity="0.49" d="M-131.77 2.05444C-131.77 2.05444 -140.006 324.475 21.9192 315.475C246.178 303.014 620.964 127.507 557.257 389.683H-131.924L-131.77 2.05444Z" fill="white"/>
</g>
<path d="M4.24475 278.808C4.24475 278.808 18.5996 262.046 2.93454 241.013C-5.34913 229.886 -23.1643 237.691 -20.4815 251.299C-18.3026 262.349 -11.8187 273.542 4.24475 278.808Z" fill="#FFC131"/>
<path d="M87.8358 364.776C87.8358 364.776 22.8815 352.541 0.626953 266.174" stroke="white" stroke-width="0.778095" stroke-miterlimit="10"/>
<path d="M4.49492 292.867C4.49492 292.867 1.86488 275.885 -18.5083 274.478C-29.2829 273.734 -33.7031 288.226 -24.3011 293.539C-16.6702 297.854 -6.76434 299.698 4.49492 292.867Z" fill="#FFC131"/>
<path d="M-21.5703 283.891C-21.5703 283.891 2.82956 287.731 12.697 299.309" stroke="white" stroke-width="0.778095" stroke-miterlimit="10"/>
<path d="M26.696 328.315C26.696 328.315 20.8265 312.163 0.56842 314.731C-10.1485 316.09 -11.6795 331.162 -1.42332 334.555C6.89874 337.306 16.9726 337.195 26.696 328.315Z" fill="#42814E"/>
<path d="M-0.611328 324.557C-0.611328 324.557 24.0717 323.597 35.9933 333.048" stroke="white" stroke-width="0.778095" stroke-miterlimit="10"/>
<path d="M19.0282 293.496C19.0282 293.496 36.2051 293.006 40.1454 272.966C42.2283 262.368 28.4062 256.171 21.9606 264.835C16.7245 271.872 13.6626 281.472 19.0282 293.496Z" fill="#6FD484"/>
<path d="M26.3947 273.149C26.3947 273.149 15.1354 295.138 18.6869 309.931" stroke="white" stroke-width="0.778095" stroke-miterlimit="10"/>
<path d="M50.5825 335.39C50.5825 335.39 66.2908 328.426 62.3409 308.386C60.2484 297.787 45.1113 297.298 42.4284 307.762C40.2543 316.253 41.0558 326.299 50.5825 335.39Z" fill="#FFC131"/>
<path d="M49.6905 313.766C49.6905 313.766 47.6076 338.381 56.5007 350.726" stroke="white" stroke-width="0.778095" stroke-miterlimit="10"/>
<path d="M49.6101 354.019C49.6101 354.019 46.3417 370.891 25.9253 371.525C15.1316 371.861 11.2585 357.211 20.8572 352.258C28.6513 348.235 38.6196 346.766 49.6101 354.019Z" fill="#6FD484"/>
<path d="M28.3398 357.989C28.3398 357.989 51.8614 350.448 65.8803 356.352" stroke="#478551" stroke-width="0.778095" stroke-miterlimit="10"/>
<path d="M323.779 354.744C323.779 354.744 389.31 346.123 416.306 261.12" stroke="white" stroke-width="0.778095" stroke-miterlimit="10"/>
<path d="M362.595 327.466C362.595 327.466 347.294 319.642 352.348 299.851C355.021 289.387 370.168 289.733 372.26 300.326C373.964 308.928 372.606 318.917 362.595 327.466Z" fill="#FFC131"/>
<path d="M364.682 305.923C364.682 305.923 365.402 330.614 355.842 342.446" stroke="white" stroke-width="0.778095" stroke-miterlimit="10"/>
<path d="M383.56 351.259C383.56 351.259 360.494 342.427 346.168 347.549" stroke="#478551" stroke-width="0.778095" stroke-miterlimit="10"/>
<mask id="mask1_402_26985" style="mask-type:luminance" maskUnits="userSpaceOnUse" x="-132" y="1" width="690" height="389">
<path d="M557.104 1.68005H-131.924V389.314H557.104V1.68005Z" fill="white"/>
</mask>
<g mask="url(#mask1_402_26985)">
<path d="M140.123 398.537C160.222 384.515 160.823 350.649 141.466 322.894C122.109 295.138 90.1239 284.005 70.025 298.026C49.9262 312.047 49.3248 345.913 68.6817 373.669C88.0387 401.424 120.024 412.558 140.123 398.537Z" fill="#6936B9"/>
<path opacity="0.39" d="M68.6692 373.685C75.0955 382.901 82.9184 390.274 91.2357 395.51C107.755 380.122 107.141 348.758 89.004 322.757C82.5777 313.541 74.7547 306.168 66.4375 300.931C49.9181 316.32 50.5372 347.683 68.6692 373.685Z" fill="#6936B9"/>
<path opacity="0.41" d="M77.7676 294.058C93.9894 296.069 111.406 306.984 123.717 324.638C143.072 352.397 142.468 386.261 122.368 400.282C119.944 401.971 117.343 403.291 114.612 404.266C123.894 405.418 132.787 403.661 140.106 398.558C160.206 384.538 160.811 350.669 141.45 322.915C124.432 298.507 97.6513 286.958 77.7676 294.058Z" fill="#6936B9"/>
<mask id="mask2_402_26985" style="mask-type:luminance" maskUnits="userSpaceOnUse" x="54" y="291" width="102" height="114">
<path d="M140.121 398.537C160.22 384.515 160.821 350.649 141.464 322.894C122.107 295.138 90.1219 284.005 70.0231 298.026C49.9242 312.047 49.3228 345.913 68.6798 373.669C88.0368 401.424 120.022 412.558 140.121 398.537Z" fill="white"/>
</mask>
<g mask="url(#mask2_402_26985)">
<path d="M83.987 257.299C83.987 257.299 95.4286 324.091 15.3516 357.475" stroke="white" stroke-width="1.24805" stroke-miterlimit="10"/>
<path d="M91.737 262.166C91.737 262.166 103.179 328.958 23.1016 362.342" stroke="#B17EFF" stroke-width="6.65537" stroke-miterlimit="10"/>
<path d="M107.354 274.397C107.354 274.397 118.796 341.189 38.7188 374.573" stroke="white" stroke-width="1.24805" stroke-miterlimit="10"/>
<path d="M115.1 279.259C115.1 279.259 126.542 346.051 46.4648 379.435" stroke="#B17EFF" stroke-width="6.65537" stroke-miterlimit="10"/>
<path d="M130.635 296.683C130.635 296.683 142.077 363.475 62 396.859" stroke="white" stroke-width="1.24805" stroke-miterlimit="10"/>
<path d="M138.387 301.546C138.387 301.546 149.829 368.338 69.752 401.722" stroke="#B17EFF" stroke-width="6.65537" stroke-miterlimit="10"/>
<path d="M150.003 316.565C150.003 316.565 161.444 383.357 81.3672 416.746" stroke="white" stroke-width="1.24805" stroke-miterlimit="10"/>
<path d="M157.753 321.432C157.753 321.432 169.194 388.224 89.1172 421.608" stroke="#B17EFF" stroke-width="6.65537" stroke-miterlimit="10"/>
</g>
<mask id="mask3_402_26985" style="mask-type:luminance" maskUnits="userSpaceOnUse" x="54" y="291" width="102" height="114">
<path d="M140.121 398.537C160.22 384.515 160.821 350.649 141.464 322.894C122.107 295.138 90.1219 284.005 70.0231 298.026C49.9242 312.047 49.3228 345.913 68.6798 373.669C88.0368 401.424 120.022 412.558 140.121 398.537Z" fill="white"/>
</mask>
<g mask="url(#mask3_402_26985)">
<path d="M60.3645 346.469C60.6861 346.93 60.5757 347.568 60.1102 347.89C59.6494 348.211 59.0111 348.101 58.6896 347.635C58.368 347.174 58.4784 346.536 58.9439 346.214C59.4047 345.893 60.043 346.008 60.3645 346.469Z" fill="white"/>
<path d="M66.968 340.618C67.2896 341.078 67.1792 341.717 66.7137 342.038C66.2529 342.36 65.6146 342.25 65.2931 341.784C64.9715 341.323 65.0819 340.685 65.5474 340.363C66.0082 340.042 66.6465 340.157 66.968 340.618Z" fill="white"/>
<path d="M74.0813 333.168C74.4029 333.629 74.2925 334.267 73.827 334.589C73.3662 334.91 72.7279 334.8 72.4064 334.334C72.0848 333.874 72.1952 333.235 72.6607 332.914C73.1215 332.592 73.755 332.707 74.0813 333.168Z" fill="white"/>
<path d="M80.7142 324.71C81.0357 325.171 80.9253 325.81 80.4598 326.131C79.999 326.453 79.3607 326.342 79.0392 325.877C78.7176 325.416 78.828 324.778 79.2935 324.456C79.7543 324.134 80.3926 324.245 80.7142 324.71Z" fill="white"/>
<path d="M86.9681 315.149C87.2896 315.61 87.1792 316.248 86.7137 316.57C86.253 316.891 85.6146 316.781 85.2931 316.315C84.9715 315.854 85.0819 315.216 85.5474 314.894C86.013 314.573 86.6465 314.688 86.9681 315.149Z" fill="white"/>
<path d="M92.0345 304.56C92.356 305.021 92.2456 305.659 91.7801 305.981C91.3194 306.302 90.681 306.192 90.3595 305.726C90.0379 305.266 90.1483 304.627 90.6139 304.306C91.0746 303.984 91.7129 304.099 92.0345 304.56Z" fill="white"/>
<path d="M95.347 294.288C95.6685 294.749 95.5581 295.387 95.0926 295.709C94.6319 296.03 93.9935 295.92 93.672 295.454C93.3504 294.994 93.4608 294.355 93.9264 294.034C94.3871 293.712 95.0254 293.822 95.347 294.288Z" fill="white"/>
</g>
<mask id="mask4_402_26985" style="mask-type:luminance" maskUnits="userSpaceOnUse" x="54" y="291" width="102" height="114">
<path d="M140.121 398.537C160.22 384.515 160.821 350.649 141.464 322.894C122.107 295.138 90.1219 284.005 70.0231 298.026C49.9242 312.047 49.3228 345.913 68.6798 373.669C88.0368 401.424 120.022 412.558 140.121 398.537Z" fill="white"/>
</mask>
<g mask="url(#mask4_402_26985)">
<path d="M150.512 380.621C150.805 381.106 150.646 381.73 150.162 382.022C149.677 382.31 149.053 382.157 148.76 381.672C148.472 381.187 148.626 380.563 149.111 380.27C149.595 379.978 150.224 380.136 150.512 380.621Z" fill="white"/>
<path d="M156.291 370.402C156.584 370.886 156.426 371.51 155.941 371.803C155.456 372.091 154.832 371.938 154.539 371.453C154.252 370.968 154.405 370.344 154.89 370.051C155.37 369.758 155.998 369.917 156.291 370.402Z" fill="white"/>
</g>
<mask id="mask5_402_26985" style="mask-type:luminance" maskUnits="userSpaceOnUse" x="54" y="291" width="102" height="114">
<path d="M140.121 398.537C160.22 384.515 160.821 350.649 141.464 322.894C122.107 295.138 90.1219 284.005 70.0231 298.026C49.9242 312.047 49.3228 345.913 68.6798 373.669C88.0368 401.424 120.022 412.558 140.121 398.537Z" fill="white"/>
</mask>
<g mask="url(#mask5_402_26985)">
<path d="M88.907 358.747C89.2573 359.189 89.1902 359.832 88.7486 360.182C88.3071 360.533 87.664 360.466 87.3136 360.024C86.9633 359.582 87.0305 358.939 87.472 358.589C87.9135 358.234 88.5566 358.306 88.907 358.747Z" fill="white"/>
<path d="M71.4812 371.64C71.8316 372.082 71.7644 372.725 71.3229 373.075C70.8813 373.426 70.2382 373.358 69.8878 372.917C69.5375 372.475 69.6047 371.832 70.0462 371.482C70.4878 371.126 71.1309 371.198 71.4812 371.64Z" fill="white"/>
<path d="M80.2351 366.043C80.5855 366.485 80.5183 367.128 80.0767 367.478C79.6352 367.829 78.9921 367.762 78.6417 367.32C78.2914 366.878 78.3586 366.235 78.8001 365.885C79.2417 365.53 79.88 365.602 80.2351 366.043Z" fill="white"/>
<path d="M95.1082 352.469C95.4633 352.91 95.3913 353.554 94.9498 353.904C94.5083 354.254 93.8651 354.187 93.5148 353.746C93.1644 353.304 93.2316 352.661 93.6732 352.31C94.1147 351.955 94.7578 352.027 95.1082 352.469Z" fill="white"/>
<path d="M101.712 344.563C102.062 345.005 101.995 345.648 101.553 345.998C101.112 346.349 100.469 346.282 100.118 345.84C99.768 345.398 99.8351 344.755 100.277 344.405C100.713 344.05 101.357 344.122 101.712 344.563Z" fill="white"/>
<path d="M107.768 335.683C108.119 336.125 108.051 336.768 107.61 337.118C107.168 337.469 106.525 337.402 106.175 336.96C105.825 336.518 105.892 335.875 106.333 335.525C106.77 335.17 107.413 335.242 107.768 335.683Z" fill="white"/>
<path d="M113.374 325.728C113.724 326.17 113.657 326.813 113.215 327.163C112.774 327.514 112.131 327.446 111.78 327.005C111.425 326.563 111.497 325.92 111.939 325.57C112.38 325.214 113.024 325.286 113.374 325.728Z" fill="white"/>
<path d="M117.727 314.827C118.078 315.269 118.01 315.912 117.569 316.262C117.127 316.613 116.484 316.546 116.134 316.104C115.784 315.662 115.851 315.019 116.292 314.669C116.729 314.314 117.372 314.386 117.727 314.827Z" fill="white"/>
<path d="M120.348 304.354C120.704 304.795 120.632 305.438 120.19 305.789C119.748 306.139 119.105 306.072 118.755 305.63C118.405 305.189 118.472 304.546 118.913 304.195C119.355 303.84 119.998 303.912 120.348 304.354Z" fill="white"/>
</g>
<mask id="mask6_402_26985" style="mask-type:luminance" maskUnits="userSpaceOnUse" x="54" y="291" width="102" height="114">
<path d="M140.121 398.537C160.22 384.515 160.821 350.649 141.464 322.894C122.107 295.138 90.1219 284.005 70.0231 298.026C49.9242 312.047 49.3228 345.913 68.6798 373.669C88.0368 401.424 120.022 412.558 140.121 398.537Z" fill="white"/>
</mask>
<g mask="url(#mask6_402_26985)">
<path d="M111.665 381.365C112.015 381.806 111.948 382.45 111.506 382.8C111.065 383.15 110.422 383.083 110.071 382.642C109.721 382.2 109.788 381.557 110.23 381.206C110.671 380.856 111.314 380.928 111.665 381.365Z" fill="white"/>
<path d="M117.866 375.086C118.216 375.528 118.149 376.171 117.708 376.522C117.266 376.877 116.623 376.805 116.273 376.363C115.922 375.922 115.989 375.278 116.431 374.928C116.873 374.578 117.516 374.65 117.866 375.086Z" fill="white"/>
<path d="M124.47 367.181C124.82 367.622 124.753 368.266 124.311 368.616C123.87 368.966 123.226 368.899 122.876 368.458C122.526 368.016 122.593 367.373 123.035 367.022C123.471 366.672 124.114 366.739 124.47 367.181Z" fill="white"/>
<path d="M130.526 358.301C130.877 358.742 130.809 359.386 130.368 359.736C129.926 360.086 129.283 360.019 128.933 359.578C128.578 359.136 128.65 358.493 129.091 358.142C129.528 357.787 130.171 357.859 130.526 358.301Z" fill="white"/>
<path d="M136.132 348.346C136.482 348.787 136.415 349.43 135.973 349.781C135.532 350.131 134.889 350.064 134.538 349.622C134.188 349.181 134.255 348.538 134.697 348.187C135.138 347.837 135.781 347.904 136.132 348.346Z" fill="white"/>
<path d="M140.485 337.445C140.835 337.886 140.768 338.53 140.327 338.88C139.885 339.23 139.242 339.163 138.892 338.722C138.541 338.28 138.609 337.637 139.05 337.286C139.487 336.931 140.13 337.003 140.485 337.445Z" fill="white"/>
<path d="M143.106 326.971C143.457 327.413 143.389 328.056 142.948 328.406C142.506 328.757 141.863 328.69 141.513 328.248C141.162 327.806 141.23 327.163 141.671 326.813C142.113 326.462 142.756 326.53 143.106 326.971Z" fill="white"/>
</g>
<g opacity="0.25">
<path d="M63.6837 319.363C63.4054 321.734 63.4582 324.101 63.7221 326.41C63.8181 327.562 64.0677 328.704 64.2597 329.832C64.3796 330.394 64.5332 330.955 64.6676 331.512C64.8068 332.069 64.9316 332.621 65.1235 333.168C66.4529 337.55 68.4207 341.664 70.7484 345.533L71.6362 346.973L72.0778 347.688L72.5625 348.389L74.4919 351.168C75.8933 352.963 77.2131 354.768 78.7297 356.467L79.8287 357.754L80.3758 358.397L80.9566 359.021L83.2795 361.498C84.0282 362.328 84.868 363.11 85.6743 363.907L88.098 366.278L88.2468 366.422C91.3375 369.446 91.3903 374.4 88.3668 377.486C85.3432 380.578 80.3902 380.63 77.3043 377.606C76.7955 377.107 76.3492 376.522 76.0084 375.936L74.1175 372.672C73.4936 371.582 72.8505 370.522 72.2794 369.389L70.5372 366.048L70.1053 365.213L69.7069 364.354L68.9102 362.64C67.8112 360.394 66.9089 358.018 65.9586 355.704L64.7156 352.138L64.4084 351.25L64.1445 350.338L63.6213 348.523C62.2775 343.685 61.4088 338.698 61.2985 333.725C61.2601 333.11 61.2889 332.482 61.3033 331.862C61.3225 331.243 61.3273 330.624 61.3656 330.01C61.4904 328.771 61.5576 327.552 61.788 326.342C62.1767 323.942 62.7814 321.576 63.6837 319.363Z" fill="white"/>
</g>
<path d="M350.592 382.92C327.796 407.678 294.786 414.36 276.855 397.853C258.93 381.341 262.875 347.885 285.672 323.126C308.469 298.368 341.478 291.686 359.409 308.194C377.334 324.706 373.385 358.162 350.592 382.92Z" fill="#FFD16D"/>
<mask id="mask7_402_26985" style="mask-type:luminance" maskUnits="userSpaceOnUse" x="265" y="299" width="106" height="108">
<path d="M350.592 382.92C327.796 407.678 294.786 414.36 276.855 397.853C258.93 381.341 262.875 347.885 285.672 323.126C308.469 298.368 341.478 291.686 359.409 308.194C377.334 324.706 373.385 358.162 350.592 382.92Z" fill="white"/>
</mask>
<g mask="url(#mask7_402_26985)">
<path d="M347.761 317.611C341.8 324.086 331.717 324.499 325.247 318.538C318.773 312.576 318.36 302.491 324.321 296.021C330.282 289.546 340.365 289.133 346.835 295.094C353.309 301.051 353.722 311.136 347.761 317.611Z" fill="#00D1F0"/>
</g>
<mask id="mask8_402_26985" style="mask-type:luminance" maskUnits="userSpaceOnUse" x="265" y="299" width="106" height="108">
<path d="M350.592 382.92C327.796 407.678 294.786 414.36 276.855 397.853C258.93 381.341 262.875 347.885 285.672 323.126C308.469 298.368 341.478 291.686 359.409 308.194C377.334 324.706 373.385 358.162 350.592 382.92Z" fill="white"/>
</mask>
<g mask="url(#mask8_402_26985)">
<path d="M371.315 359.99C364.337 367.57 352.54 368.054 344.962 361.075C337.384 354.096 336.899 342.298 343.877 334.718C350.856 327.139 362.653 326.654 370.231 333.634C377.804 340.618 378.294 352.416 371.315 359.99Z" fill="#00D1F0"/>
</g>
<mask id="mask9_402_26985" style="mask-type:luminance" maskUnits="userSpaceOnUse" x="265" y="299" width="106" height="108">
<path d="M350.592 382.92C327.796 407.678 294.786 414.36 276.855 397.853C258.93 381.341 262.875 347.885 285.672 323.126C308.469 298.368 341.478 291.686 359.409 308.194C377.334 324.706 373.385 358.162 350.592 382.92Z" fill="white"/>
</mask>
<g mask="url(#mask9_402_26985)">
<path d="M293.427 384.634C286.448 392.213 274.652 392.698 267.073 385.718C259.495 378.739 259.011 366.941 265.989 359.362C272.967 351.782 284.764 351.298 292.342 358.277C299.92 365.256 300.405 377.054 293.427 384.634Z" fill="#00D1F0"/>
</g>
<mask id="mask10_402_26985" style="mask-type:luminance" maskUnits="userSpaceOnUse" x="265" y="299" width="106" height="108">
<path d="M350.592 382.92C327.796 407.678 294.786 414.36 276.855 397.853C258.93 381.341 262.875 347.885 285.672 323.126C308.469 298.368 341.478 291.686 359.409 308.194C377.334 324.706 373.385 358.162 350.592 382.92Z" fill="white"/>
</mask>
<g mask="url(#mask10_402_26985)">
<path d="M314.045 337.949C307.537 345.019 296.528 345.475 289.458 338.962C282.389 332.448 281.933 321.442 288.446 314.366C294.958 307.296 305.963 306.84 313.037 313.354C320.102 319.867 320.558 330.879 314.045 337.949Z" fill="#00D1F0"/>
</g>
<mask id="mask11_402_26985" style="mask-type:luminance" maskUnits="userSpaceOnUse" x="265" y="299" width="106" height="108">
<path d="M350.592 382.92C327.796 407.678 294.786 414.36 276.855 397.853C258.93 381.341 262.875 347.885 285.672 323.126C308.469 298.368 341.478 291.686 359.409 308.194C377.334 324.706 373.385 358.162 350.592 382.92Z" fill="white"/>
</mask>
<g mask="url(#mask11_402_26985)">
<path d="M341.128 395.866C334.269 403.315 322.665 403.795 315.216 396.931C307.767 390.072 307.288 378.466 314.151 371.016C321.009 363.566 332.614 363.086 340.062 369.95C347.511 376.814 347.986 388.416 341.128 395.866Z" fill="#00D1F0"/>
</g>
<path d="M355.91 310.795C355.497 311.242 354.801 311.27 354.35 310.858C353.904 310.445 353.875 309.749 354.288 309.298C354.701 308.851 355.397 308.822 355.848 309.235C356.294 309.653 356.323 310.349 355.91 310.795Z" fill="#69E1EF"/>
<path d="M352.906 316.882C352.493 317.328 351.793 317.357 351.346 316.944C350.9 316.531 350.871 315.835 351.284 315.384C351.697 314.938 352.393 314.909 352.844 315.322C353.29 315.734 353.319 316.43 352.906 316.882Z" fill="#69E1EF"/>
<path d="M346.715 323.026C346.302 323.472 345.606 323.501 345.155 323.088C344.709 322.675 344.68 321.979 345.093 321.528C345.505 321.082 346.201 321.053 346.652 321.466C347.099 321.878 347.128 322.574 346.715 323.026Z" fill="#69E1EF"/>
<path d="M338.613 326.722C338.201 327.168 337.5 327.197 337.053 326.784C336.607 326.371 336.578 325.67 336.991 325.224C337.404 324.778 338.105 324.749 338.551 325.162C338.997 325.574 339.026 326.275 338.613 326.722Z" fill="#69E1EF"/>
<path d="M320.227 315.442C319.814 315.888 319.118 315.917 318.667 315.504C318.22 315.091 318.192 314.39 318.604 313.944C319.017 313.498 319.713 313.469 320.164 313.882C320.61 314.294 320.639 314.995 320.227 315.442Z" fill="#69E1EF"/>
<path d="M328.18 324.269C327.767 324.715 327.071 324.744 326.62 324.331C326.174 323.918 326.145 323.222 326.557 322.771C326.97 322.325 327.671 322.296 328.117 322.709C328.564 323.122 328.592 323.818 328.18 324.269Z" fill="#69E1EF"/>
<path d="M317.924 305.472C317.511 305.918 316.815 305.947 316.364 305.534C315.918 305.122 315.889 304.421 316.302 303.974C316.714 303.528 317.415 303.499 317.861 303.912C318.308 304.325 318.337 305.026 317.924 305.472Z" fill="#69E1EF"/>
<path d="M360.105 327.048C359.693 327.494 358.992 327.523 358.546 327.11C358.099 326.698 358.071 325.997 358.483 325.55C358.896 325.104 359.592 325.075 360.043 325.488C360.489 325.901 360.518 326.597 360.105 327.048Z" fill="#69E1EF"/>
<path d="M349.199 329.237C348.786 329.683 348.091 329.712 347.639 329.299C347.193 328.886 347.164 328.19 347.577 327.739C347.99 327.293 348.686 327.264 349.137 327.677C349.583 328.094 349.612 328.79 349.199 329.237Z" fill="#69E1EF"/>
<path d="M340.471 337.09C340.058 337.536 339.357 337.565 338.911 337.152C338.465 336.739 338.436 336.039 338.849 335.592C339.261 335.146 339.957 335.117 340.408 335.53C340.855 335.942 340.883 336.638 340.471 337.09Z" fill="#69E1EF"/>
<path d="M337.086 346.781C336.673 347.227 335.977 347.256 335.526 346.843C335.08 346.43 335.051 345.73 335.464 345.283C335.876 344.837 336.572 344.808 337.024 345.221C337.47 345.634 337.499 346.334 337.086 346.781Z" fill="#69E1EF"/>
<path d="M286.393 339.715C285.98 340.162 285.284 340.19 284.833 339.778C284.386 339.365 284.358 338.669 284.77 338.218C285.183 337.771 285.879 337.742 286.33 338.155C286.777 338.573 286.805 339.269 286.393 339.715Z" fill="#69E1EF"/>
<path d="M294.551 345.73C294.138 346.176 293.442 346.205 292.991 345.792C292.545 345.379 292.516 344.678 292.929 344.232C293.341 343.786 294.037 343.757 294.488 344.17C294.935 344.582 294.964 345.283 294.551 345.73Z" fill="#69E1EF"/>
<path d="M307.076 346.536C306.663 346.982 305.968 347.011 305.516 346.598C305.07 346.186 305.041 345.49 305.454 345.038C305.867 344.592 306.563 344.563 307.014 344.976C307.46 345.389 307.489 346.09 307.076 346.536Z" fill="#69E1EF"/>
<path d="M316.416 340.906C316.003 341.352 315.307 341.381 314.856 340.968C314.41 340.555 314.381 339.854 314.794 339.408C315.207 338.962 315.902 338.933 316.354 339.346C316.8 339.758 316.829 340.454 316.416 340.906Z" fill="#69E1EF"/>
<path d="M322.285 331.651C321.872 332.098 321.172 332.126 320.725 331.714C320.279 331.301 320.25 330.605 320.663 330.154C321.076 329.707 321.776 329.678 322.223 330.091C322.669 330.504 322.698 331.2 322.285 331.651Z" fill="#69E1EF"/>
<path d="M320.553 320.746C320.14 321.192 319.444 321.221 318.993 320.808C318.547 320.395 318.518 319.699 318.931 319.248C319.343 318.802 320.039 318.773 320.49 319.186C320.937 319.598 320.965 320.299 320.553 320.746Z" fill="#69E1EF"/>
<path d="M310.186 309.696C309.773 310.142 309.077 310.171 308.626 309.758C308.179 309.346 308.151 308.65 308.563 308.198C308.976 307.752 309.672 307.723 310.123 308.136C310.569 308.549 310.598 309.25 310.186 309.696Z" fill="#69E1EF"/>
<path d="M338.455 356.698C338.042 357.144 337.346 357.173 336.895 356.76C336.449 356.347 336.42 355.651 336.833 355.2C337.246 354.754 337.942 354.725 338.393 355.138C338.839 355.55 338.868 356.251 338.455 356.698Z" fill="#69E1EF"/>
<path d="M346.201 365.333C345.788 365.779 345.088 365.808 344.641 365.395C344.195 364.982 344.166 364.282 344.579 363.835C344.992 363.389 345.692 363.36 346.139 363.773C346.585 364.186 346.614 364.886 346.201 365.333Z" fill="#69E1EF"/>
<path d="M349.143 383.779C348.73 384.226 348.034 384.254 347.583 383.842C347.136 383.429 347.108 382.728 347.52 382.282C347.933 381.835 348.629 381.806 349.08 382.219C349.527 382.632 349.555 383.328 349.143 383.779Z" fill="#69E1EF"/>
<path d="M347.021 374.05C346.609 374.496 345.913 374.525 345.462 374.112C345.015 373.699 344.987 373.003 345.399 372.552C345.812 372.106 346.508 372.077 346.959 372.49C347.405 372.902 347.434 373.603 347.021 374.05Z" fill="#69E1EF"/>
<path d="M337.674 365.443C337.261 365.89 336.565 365.918 336.114 365.506C335.668 365.093 335.639 364.397 336.052 363.946C336.464 363.499 337.165 363.47 337.611 363.883C338.058 364.296 338.087 364.997 337.674 365.443Z" fill="#69E1EF"/>
<path d="M327.074 361.954C326.661 362.4 325.961 362.429 325.514 362.016C325.068 361.603 325.039 360.902 325.452 360.456C325.865 360.01 326.561 359.981 327.012 360.394C327.458 360.806 327.487 361.507 327.074 361.954Z" fill="#69E1EF"/>
<path d="M310.037 376.157C309.624 376.603 308.928 376.632 308.477 376.219C308.031 375.806 308.002 375.11 308.415 374.659C308.828 374.213 309.524 374.184 309.975 374.597C310.421 375.01 310.45 375.706 310.037 376.157Z" fill="#69E1EF"/>
<path d="M315.971 366.96C315.558 367.406 314.862 367.435 314.411 367.022C313.965 366.61 313.936 365.914 314.349 365.462C314.761 365.016 315.457 364.987 315.908 365.4C316.355 365.813 316.383 366.509 315.971 366.96Z" fill="#69E1EF"/>
<path d="M300.602 380.39C300.189 380.837 299.493 380.866 299.042 380.453C298.595 380.04 298.567 379.344 298.979 378.893C299.392 378.446 300.088 378.418 300.539 378.83C300.985 379.243 301.014 379.939 300.602 380.39Z" fill="#69E1EF"/>
<path d="M302.027 368.774C301.615 369.221 300.914 369.25 300.468 368.837C300.021 368.424 299.992 367.728 300.405 367.277C300.818 366.83 301.519 366.802 301.965 367.214C302.411 367.627 302.44 368.328 302.027 368.774Z" fill="#69E1EF"/>
<path d="M298.227 360.658C297.814 361.104 297.118 361.133 296.667 360.72C296.22 360.307 296.192 359.606 296.604 359.16C297.017 358.714 297.713 358.685 298.164 359.098C298.61 359.515 298.639 360.211 298.227 360.658Z" fill="#69E1EF"/>
<path d="M285.297 351.749C284.884 352.195 284.188 352.224 283.737 351.811C283.291 351.398 283.262 350.702 283.675 350.251C284.087 349.805 284.783 349.776 285.234 350.189C285.681 350.606 285.71 351.302 285.297 351.749Z" fill="#69E1EF"/>
<path d="M272.584 353.083C272.171 353.53 271.475 353.558 271.024 353.146C270.578 352.733 270.549 352.037 270.962 351.586C271.375 351.139 272.07 351.111 272.522 351.523C272.968 351.936 272.997 352.637 272.584 353.083Z" fill="#69E1EF"/>
<path d="M356.994 369.274C356.581 369.72 355.885 369.749 355.434 369.336C354.988 368.923 354.959 368.227 355.372 367.776C355.785 367.33 356.481 367.301 356.932 367.714C357.378 368.126 357.407 368.827 356.994 369.274Z" fill="#69E1EF"/>
<path opacity="0.42" d="M285.667 323.126C277.724 331.757 272.075 341.438 268.836 351.096C287.472 360.235 314.991 352.378 334.798 330.869C342.741 322.238 348.39 312.557 351.629 302.899C332.994 293.755 305.474 301.613 285.667 323.126Z" fill="#FFD16D"/>
<path opacity="0.55" d="M359.404 308.194C358.876 307.709 358.334 307.243 357.777 306.797C361.401 323.88 354.706 345.543 338.7 362.923C316.575 386.952 284.827 393.95 266.59 379.248C268.13 386.496 271.514 392.923 276.851 397.843C294.776 414.355 327.791 407.669 350.588 382.91C373.385 358.162 377.335 324.706 359.404 308.194Z" fill="#FFD16D"/>
<g opacity="0.25">
<path d="M339.43 307.877C337.069 308.117 334.779 308.674 332.596 309.427C331.496 309.768 330.441 310.258 329.39 310.685C328.871 310.925 328.358 311.194 327.849 311.443C327.34 311.698 326.827 311.938 326.337 312.24C322.368 314.472 318.797 317.266 315.539 320.357L314.329 321.528L313.729 322.109L313.153 322.728L310.869 325.195C309.429 326.942 307.956 328.608 306.636 330.446L305.623 331.79L305.119 332.458L304.639 333.154L302.734 335.938C302.086 336.845 301.51 337.829 300.91 338.779L299.13 341.64L299.019 341.818C296.749 345.466 291.95 346.584 288.302 344.309C284.655 342.038 283.537 337.238 285.812 333.59C286.186 332.99 286.656 332.434 287.151 331.973L289.915 329.434C290.841 328.594 291.729 327.739 292.708 326.943L295.578 324.533L296.298 323.938L297.047 323.366L298.539 322.224C300.483 320.674 302.6 319.286 304.639 317.87L307.836 315.898L308.632 315.413L309.458 314.962L311.109 314.064C315.519 311.722 320.175 309.806 324.979 308.63C325.569 308.462 326.184 308.357 326.788 308.237C327.398 308.122 327.993 307.997 328.598 307.901C329.826 307.757 331.026 307.56 332.25 307.522C334.664 307.392 337.088 307.474 339.43 307.877Z" fill="white"/>
</g>
<path d="M208.46 373.113C220.479 342.967 212.526 311.472 190.697 302.766C168.867 294.061 141.428 311.441 129.409 341.587C117.39 371.733 125.343 403.228 147.172 411.934C169.001 420.639 196.441 403.259 208.46 373.113Z" fill="#00D1F0"/>
<path d="M129.396 341.597C124.769 353.199 123.114 364.997 124.054 375.619C143.256 375.811 163.86 359.597 173.838 334.575C178.464 322.973 180.12 311.175 179.175 300.552C159.982 300.355 139.379 316.57 129.396 341.597Z" fill="#00D1F0"/>
<path d="M190.689 302.774C190.291 302.616 189.887 302.482 189.484 302.342C199.923 316.358 201.943 339.331 193.069 361.584C181.268 391.181 154.607 408.451 132.986 400.838C136.691 405.811 141.448 409.666 147.164 411.946C168.991 420.653 196.434 403.272 208.451 373.123C220.469 342.974 212.516 311.482 190.689 302.774Z" fill="#00D1F0"/>
<mask id="mask12_402_26985" style="mask-type:luminance" maskUnits="userSpaceOnUse" x="123" y="300" width="92" height="115">
<path d="M208.46 373.113C220.479 342.967 212.526 311.472 190.697 302.766C168.867 294.061 141.428 311.441 129.409 341.587C117.39 371.733 125.343 403.228 147.172 411.934C169.001 420.639 196.441 403.259 208.46 373.113Z" fill="white"/>
</mask>
<g mask="url(#mask12_402_26985)">
<path d="M220.755 346.714L217.688 335.549C216.152 329.966 209.712 327.398 204.759 330.394L204.356 330.638C199.403 333.634 192.962 331.066 191.426 325.483C189.89 319.901 183.45 317.333 178.497 320.328L178.382 320.4C173.429 323.395 166.988 320.827 165.452 315.245L164.934 313.354C163.432 307.891 157.207 305.285 152.259 308.05L139.9 314.962" stroke="#FFD16D" stroke-width="2.43901" stroke-miterlimit="10"/>
<path d="M217.502 354.878L214.43 343.714C212.895 338.131 206.454 335.563 201.501 338.558L201.098 338.803C196.145 341.798 189.704 339.23 188.168 333.648C186.633 328.066 180.192 325.498 175.239 328.493L175.124 328.565C170.171 331.56 163.73 328.992 162.194 323.41L161.676 321.518C160.174 316.056 153.949 313.45 149.001 316.214L136.643 323.126" stroke="#FFD16D" stroke-width="7.31709" stroke-miterlimit="10"/>
<path d="M193.86 414.168L190.794 403.003C189.258 397.421 182.817 394.853 177.864 397.848L177.461 398.093C172.508 401.088 166.067 398.52 164.532 392.938C162.996 387.355 156.555 384.787 151.602 387.782L151.487 387.855C146.534 390.85 140.093 388.282 138.558 382.699L138.039 380.808C136.537 375.346 130.312 372.739 125.364 375.504L113.006 382.416" stroke="#FFD16D" stroke-width="7.31709" stroke-miterlimit="10"/>
<path d="M190.606 422.333L187.54 411.168C186.004 405.586 179.563 403.018 174.61 406.013L174.207 406.258C169.254 409.253 162.813 406.685 161.278 401.102C159.742 395.52 153.301 392.952 148.348 395.947L148.233 396.019C143.28 399.014 136.839 396.446 135.304 390.864L134.785 388.973C133.283 383.51 127.058 380.904 122.11 383.669L109.752 390.581" stroke="#FFD16D" stroke-width="2.43901" stroke-miterlimit="10"/>
<path d="M208.421 384.13L203.464 371.218C201.928 365.635 195.487 363.067 190.534 366.062L190.131 366.307C185.178 369.302 178.737 366.735 177.202 361.152C175.666 355.57 169.225 353.002 164.272 355.997L164.157 356.069C159.204 359.064 152.763 356.496 151.228 350.914L150.709 349.022C149.207 343.56 142.982 340.954 138.034 343.718L120.627 352.651" stroke="white" stroke-width="7.31709" stroke-miterlimit="10"/>
<path d="M203.282 390.547L200.216 379.382C198.68 373.8 192.239 371.232 187.286 374.227L186.883 374.472C181.93 377.467 175.489 374.899 173.953 369.317C172.418 363.734 165.977 361.166 161.024 364.162L160.909 364.234C155.956 367.229 149.515 364.661 147.979 359.078L147.461 357.187C145.959 351.725 139.734 349.118 134.786 351.883L122.428 358.795" stroke="white" stroke-width="2.43901" stroke-miterlimit="10"/>
</g>
<mask id="mask13_402_26985" style="mask-type:luminance" maskUnits="userSpaceOnUse" x="123" y="300" width="92" height="115">
<path d="M208.46 373.113C220.479 342.967 212.526 311.472 190.697 302.766C168.867 294.061 141.428 311.441 129.409 341.587C117.39 371.733 125.343 403.228 147.172 411.934C169.001 420.639 196.441 403.259 208.46 373.113Z" fill="white"/>
</mask>
<g mask="url(#mask13_402_26985)">
<path d="M161.268 350.045C160.831 351.144 159.583 351.682 158.484 351.24C157.385 350.803 156.848 349.555 157.289 348.456C157.726 347.357 158.974 346.819 160.073 347.261C161.172 347.698 161.705 348.946 161.268 350.045Z" fill="#A26BFF"/>
<path d="M188.034 360.72C187.597 361.819 186.349 362.357 185.25 361.915C184.151 361.478 183.613 360.23 184.055 359.131C184.492 358.032 185.739 357.494 186.839 357.936C187.933 358.373 188.47 359.621 188.034 360.72Z" fill="#A26BFF"/>
</g>
<mask id="mask14_402_26985" style="mask-type:luminance" maskUnits="userSpaceOnUse" x="123" y="300" width="92" height="115">
<path d="M208.46 373.113C220.479 342.967 212.526 311.472 190.697 302.766C168.867 294.061 141.428 311.441 129.409 341.587C117.39 371.733 125.343 403.228 147.172 411.934C169.001 420.639 196.441 403.259 208.46 373.113Z" fill="white"/>
</mask>
<g mask="url(#mask14_402_26985)">
<path d="M174.768 316.181C174.331 317.28 173.083 317.818 171.984 317.376C170.885 316.939 170.348 315.691 170.789 314.592C171.226 313.493 172.474 312.955 173.573 313.397C174.672 313.834 175.209 315.082 174.768 316.181Z" fill="#6936B9"/>
<path d="M201.534 326.851C201.097 327.95 199.849 328.488 198.75 328.046C197.651 327.61 197.113 326.362 197.555 325.262C197.992 324.163 199.239 323.626 200.339 324.067C201.438 324.509 201.97 325.757 201.534 326.851Z" fill="#6936B9"/>
</g>
<mask id="mask15_402_26985" style="mask-type:luminance" maskUnits="userSpaceOnUse" x="123" y="300" width="92" height="115">
<path d="M208.46 373.113C220.479 342.967 212.526 311.472 190.697 302.766C168.867 294.061 141.428 311.441 129.409 341.587C117.39 371.733 125.343 403.228 147.172 411.934C169.001 420.639 196.441 403.259 208.46 373.113Z" fill="white"/>
</mask>
<g mask="url(#mask15_402_26985)">
<path d="M148.655 381.682C148.218 382.781 146.97 383.318 145.871 382.877C144.772 382.44 144.234 381.192 144.676 380.093C145.113 378.994 146.361 378.456 147.46 378.898C148.559 379.334 149.091 380.582 148.655 381.682Z" fill="#6936B9"/>
</g>
<mask id="mask16_402_26985" style="mask-type:luminance" maskUnits="userSpaceOnUse" x="123" y="300" width="92" height="115">
<path d="M208.46 373.113C220.479 342.967 212.526 311.472 190.697 302.766C168.867 294.061 141.428 311.441 129.409 341.587C117.39 371.733 125.343 403.228 147.172 411.934C169.001 420.639 196.441 403.259 208.46 373.113Z" fill="white"/>
</mask>
<g mask="url(#mask16_402_26985)">
<path d="M154.487 326.083C154.05 327.182 152.802 327.72 151.703 327.278C150.604 326.842 150.066 325.594 150.508 324.494C150.945 323.395 152.193 322.858 153.292 323.299C154.391 323.741 154.928 324.984 154.487 326.083Z" fill="#A26BFF"/>
<path d="M181.68 336.931C181.243 338.03 179.995 338.568 178.896 338.126C177.797 337.69 177.26 336.442 177.701 335.342C178.143 334.243 179.386 333.706 180.485 334.147C181.584 334.584 182.117 335.832 181.68 336.931Z" fill="#A26BFF"/>
<path d="M207.836 347.362C207.4 348.461 206.152 348.998 205.053 348.557C203.954 348.12 203.416 346.872 203.858 345.773C204.294 344.674 205.542 344.136 206.641 344.578C207.74 345.014 208.273 346.262 207.836 347.362Z" fill="#A26BFF"/>
</g>
<mask id="mask17_402_26985" style="mask-type:luminance" maskUnits="userSpaceOnUse" x="123" y="300" width="92" height="115">
<path d="M208.46 373.113C220.479 342.967 212.526 311.472 190.697 302.766C168.867 294.061 141.428 311.441 129.409 341.587C117.39 371.733 125.343 403.228 147.172 411.934C169.001 420.639 196.441 403.259 208.46 373.113Z" fill="white"/>
</mask>
<g mask="url(#mask17_402_26985)">
<path d="M141.192 359.429C140.755 360.528 139.507 361.066 138.408 360.624C137.309 360.187 136.772 358.939 137.213 357.84C137.65 356.741 138.898 356.203 139.997 356.645C141.096 357.086 141.633 358.33 141.192 359.429Z" fill="#6936B9"/>
<path d="M168.385 370.277C167.948 371.376 166.701 371.914 165.602 371.472C164.502 371.035 163.965 369.787 164.406 368.688C164.843 367.589 166.091 367.051 167.19 367.493C168.289 367.93 168.822 369.178 168.385 370.277Z" fill="#6936B9"/>
<path d="M194.541 380.707C194.105 381.806 192.857 382.344 191.758 381.902C190.659 381.466 190.121 380.218 190.563 379.118C190.999 378.019 192.247 377.482 193.346 377.923C194.445 378.36 194.978 379.608 194.541 380.707Z" fill="#6936B9"/>
</g>
<g opacity="0.59">
<path d="M174.154 308.53C172.11 309.557 170.243 310.848 168.534 312.279C167.661 312.965 166.879 313.767 166.077 314.515C165.688 314.909 165.324 315.327 164.949 315.73C164.58 316.133 164.201 316.527 163.865 316.968C161.057 320.343 158.797 324.091 156.93 327.999L156.243 329.472L155.903 330.202L155.595 330.96L154.386 333.97C153.69 336.043 152.937 338.045 152.375 340.157L151.924 341.717C151.77 342.231 151.626 342.754 151.506 343.287L150.748 346.455C150.474 347.496 150.292 348.581 150.081 349.647L149.462 352.839L149.423 353.035C148.632 357.101 144.696 359.76 140.626 358.968C136.561 358.176 133.902 354.24 134.694 350.17C134.824 349.498 135.059 348.835 135.347 348.25L136.964 345.015C137.507 343.939 138.015 342.864 138.625 341.813L140.381 338.655C140.665 338.127 140.977 337.608 141.298 337.095L142.248 335.554C143.467 333.49 144.898 331.507 146.246 329.535L148.449 326.659L149.001 325.949L149.591 325.258L150.767 323.885C153.935 320.256 157.467 316.93 161.393 314.218C161.868 313.863 162.382 313.555 162.89 313.239C163.399 312.927 163.893 312.605 164.407 312.312C165.463 311.76 166.476 311.17 167.565 310.714C169.691 309.735 171.904 308.971 174.154 308.53Z" fill="white"/>
</g>
<path d="M254.714 416.888C277.47 413.508 292.135 385.295 287.469 353.871C282.803 322.448 260.573 299.714 237.817 303.094C215.061 306.474 200.396 334.687 205.062 366.111C209.727 397.534 231.957 420.268 254.714 416.888Z" fill="#FF9E35"/>
<path opacity="0.47" d="M237.784 303.101C236.292 303.322 234.838 303.658 233.422 304.085C249.994 310.085 263.927 329.069 267.507 353.194C271.865 382.56 259.343 409.114 239.114 415.224C244.129 417.038 249.384 417.682 254.673 416.894C277.427 413.515 292.094 385.306 287.429 353.88C282.769 322.454 260.538 299.722 237.784 303.101Z" fill="#FF9E35"/>
<mask id="mask18_402_26985" style="mask-type:luminance" maskUnits="userSpaceOnUse" x="204" y="302" width="85" height="116">
<path d="M254.716 416.888C277.472 413.508 292.137 385.295 287.471 353.871C282.805 322.448 260.575 299.714 237.819 303.094C215.063 306.474 200.398 334.687 205.064 366.111C209.729 397.534 231.959 420.268 254.716 416.888Z" fill="white"/>
</mask>
<g mask="url(#mask18_402_26985)">
<path d="M234.388 276.638C234.388 276.638 280.155 303.01 277.644 321.936C275.408 338.794 256.796 319.282 250.902 308.933C250.902 308.933 254.147 335.53 241.28 337.584C228.413 339.638 226.335 310.819 226.335 310.819C226.335 310.819 217.202 337.272 205.952 336.619C190.474 335.722 204.613 298.31 234.388 276.638Z" fill="#FF3E01"/>
</g>
<mask id="mask19_402_26985" style="mask-type:luminance" maskUnits="userSpaceOnUse" x="204" y="302" width="85" height="116">
<path d="M254.716 416.888C277.472 413.508 292.137 385.295 287.471 353.871C282.805 322.448 260.575 299.714 237.819 303.094C215.063 306.474 200.398 334.687 205.064 366.111C209.729 397.534 231.959 420.268 254.716 416.888Z" fill="white"/>
</mask>
<g mask="url(#mask19_402_26985)">
<path d="M256.278 446.669C256.278 446.669 210.511 420.298 213.021 401.371C215.258 384.514 233.87 404.026 239.763 414.374C239.763 414.374 236.519 387.778 249.386 385.723C262.253 383.669 264.331 412.488 264.331 412.488C264.331 412.488 273.464 386.035 284.714 386.688C300.192 387.586 286.053 424.997 256.278 446.669Z" fill="#FF3E01"/>
</g>
<mask id="mask20_402_26985" style="mask-type:luminance" maskUnits="userSpaceOnUse" x="204" y="302" width="85" height="116">
<path d="M254.716 416.888C277.472 413.508 292.137 385.295 287.471 353.871C282.805 322.448 260.575 299.714 237.819 303.094C215.063 306.474 200.398 334.687 205.064 366.111C209.729 397.534 231.959 420.268 254.716 416.888Z" fill="white"/>
</mask>
<g mask="url(#mask20_402_26985)">
<path d="M294.74 355.003C294.74 355.003 265.07 383.606 196.886 369.533L193.857 349.138C262.047 363.211 291.711 334.608 291.711 334.608L294.74 355.003Z" fill="#FFC131"/>
</g>
<mask id="mask21_402_26985" style="mask-type:luminance" maskUnits="userSpaceOnUse" x="204" y="302" width="85" height="116">
<path d="M254.716 416.888C277.472 413.508 292.137 385.295 287.471 353.871C282.805 322.448 260.575 299.714 237.819 303.094C215.063 306.474 200.398 334.687 205.064 366.111C209.729 397.534 231.959 420.268 254.716 416.888Z" fill="white"/>
</mask>
<g mask="url(#mask21_402_26985)">
<path d="M291.092 330.432C291.092 330.432 261.423 359.035 193.238 344.962" stroke="#FF3E01" stroke-width="2.3874" stroke-miterlimit="10"/>
<path d="M295.36 359.179C295.36 359.179 265.69 387.782 197.506 373.709" stroke="#FF3E01" stroke-width="2.3874" stroke-miterlimit="10"/>
</g>
<path d="M226.3 330.874C226.468 332.011 225.685 333.072 224.543 333.24C223.406 333.408 222.345 332.621 222.177 331.483C222.009 330.346 222.791 329.285 223.934 329.117C225.071 328.949 226.132 329.736 226.3 330.874Z" fill="#FFC131"/>
<path d="M250.297 382.315C250.402 383.016 249.917 383.669 249.217 383.77C248.516 383.875 247.863 383.39 247.762 382.69C247.657 381.989 248.142 381.336 248.842 381.235C249.543 381.134 250.196 381.619 250.297 382.315Z" fill="#FFC131"/>
<path d="M244.201 341.256C244.306 341.957 243.822 342.61 243.121 342.71C242.42 342.816 241.768 342.331 241.667 341.63C241.561 340.93 242.046 340.277 242.747 340.176C243.447 340.075 244.1 340.555 244.201 341.256Z" fill="#FFC131"/>
<path d="M209.007 340.973C209.113 341.674 208.628 342.326 207.928 342.427C207.227 342.533 206.574 342.048 206.473 341.347C206.368 340.646 206.853 339.994 207.553 339.893C208.249 339.792 208.902 340.272 209.007 340.973Z" fill="#FFC131"/>
<path d="M285.232 379.723C285.338 380.424 284.853 381.077 284.152 381.178C283.452 381.283 282.799 380.798 282.698 380.098C282.592 379.397 283.077 378.744 283.778 378.643C284.474 378.538 285.127 379.022 285.232 379.723Z" fill="#FFC131"/>
<path d="M277.961 330.734C278.066 331.435 277.581 332.088 276.881 332.189C276.18 332.294 275.527 331.81 275.427 331.109C275.321 330.408 275.806 329.755 276.506 329.654C277.202 329.554 277.855 330.034 277.961 330.734Z" fill="#FFC131"/>
<path d="M257.923 326.179C258.091 327.317 257.303 328.378 256.166 328.546C255.029 328.714 253.968 327.926 253.8 326.789C253.632 325.651 254.419 324.59 255.556 324.422C256.694 324.254 257.755 325.037 257.923 326.179Z" fill="#FFC131"/>
<path d="M208.695 360.038C210.649 360.038 210.653 357 208.695 357C206.742 357 206.737 360.038 208.695 360.038Z" fill="#FF3E01"/>
<path d="M231.957 370.517C233.91 370.517 233.915 367.478 231.957 367.478C230.004 367.483 229.999 370.517 231.957 370.517Z" fill="#FF3E01"/>
<path d="M215.272 369.432C217.225 369.432 217.23 366.394 215.272 366.394C213.318 366.394 213.318 369.432 215.272 369.432Z" fill="#FF3E01"/>
<path d="M223.451 361.248C225.405 361.248 225.409 358.21 223.451 358.21C221.498 358.214 221.493 361.248 223.451 361.248Z" fill="#FF3E01"/>
<path d="M249.018 369.768C250.971 369.768 250.976 366.73 249.018 366.73C247.064 366.73 247.059 369.768 249.018 369.768Z" fill="#FF3E01"/>
<path d="M240.016 360.408C241.969 360.408 241.974 357.37 240.016 357.37C238.062 357.374 238.057 360.408 240.016 360.408Z" fill="#FF3E01"/>
<path d="M256.82 357.917C258.774 357.917 258.778 354.878 256.82 354.878C254.867 354.878 254.862 357.917 256.82 357.917Z" fill="#FF3E01"/>
<path d="M265.569 366.662C267.522 366.662 267.527 363.624 265.569 363.624C263.615 363.624 263.615 366.662 265.569 366.662Z" fill="#FF3E01"/>
<path d="M273.861 353.765C275.815 353.765 275.819 350.726 273.861 350.726C271.908 350.726 271.903 353.765 273.861 353.765Z" fill="#FF3E01"/>
<path d="M283.008 360.83C284.961 360.83 284.966 357.792 283.008 357.792C281.055 357.797 281.055 360.83 283.008 360.83Z" fill="#FF3E01"/>
<path d="M284.623 348.763C286.576 348.763 286.581 345.725 284.623 345.725C282.67 345.73 282.665 348.763 284.623 348.763Z" fill="#FF3E01"/>
<path opacity="0.19" d="M205.029 366.11C206.32 374.808 208.959 382.834 212.578 389.827C230.48 381.667 241.134 356.693 237.064 329.27C235.773 320.573 233.134 312.547 229.515 305.554C211.613 313.714 200.959 338.688 205.029 366.11Z" fill="#FF9E35"/>
<g opacity="0.25">
<path d="M223.306 317.938C222.082 319.814 221.137 321.826 220.393 323.875C219.99 324.883 219.726 325.949 219.414 326.976C219.279 327.499 219.174 328.032 219.054 328.555C218.939 329.078 218.809 329.597 218.742 330.134C218.027 334.373 217.96 338.654 218.3 342.878L218.444 344.462L218.516 345.25L218.632 346.042L219.087 349.186C219.515 351.283 219.87 353.347 220.431 355.411L220.815 356.952C220.94 357.466 221.07 357.974 221.233 358.488L222.149 361.541C222.433 362.554 222.812 363.562 223.157 364.57L224.204 367.575L224.266 367.762C225.6 371.592 223.575 375.778 219.74 377.112C215.91 378.446 211.725 376.421 210.391 372.586C210.17 371.952 210.041 371.275 209.997 370.642L209.772 367.109C209.705 365.933 209.604 364.771 209.599 363.581L209.532 360.043C209.513 359.458 209.522 358.867 209.542 358.272L209.59 356.501C209.604 354.154 209.839 351.778 210.007 349.44L210.453 345.922L210.569 345.048L210.727 344.175L211.049 342.432C211.946 337.805 213.295 333.25 215.282 329.026C215.507 328.493 215.795 327.979 216.064 327.461C216.342 326.947 216.601 326.434 216.889 325.93C217.508 324.941 218.08 323.947 218.775 323.021C220.119 321.154 221.622 319.421 223.306 317.938Z" fill="white"/>
</g>
</g>
<mask id="mask22_402_26985" style="mask-type:luminance" maskUnits="userSpaceOnUse" x="-161" y="-89" width="690" height="388">
<path d="M528.028 -89H-161V298.634H528.028V-89Z" fill="white"/>
</mask>
<g mask="url(#mask22_402_26985)">
<path d="M-62.4531 260.661C-62.4531 260.661 -14.1909 278.061 21.905 303.722" stroke="white" stroke-width="0.974294" stroke-miterlimit="10"/>
</g>
<path d="M194.588 77.4C196.344 77.4 198.187 76.6368 199.43 75.3936C200.62 74.2032 201.513 72.2544 201.436 70.5504C201.355 68.7792 200.774 66.9408 199.43 65.7072C198.091 64.4784 196.44 63.7008 194.588 63.7008C192.831 63.7008 190.988 64.464 189.745 65.7072C188.555 66.8976 187.662 68.8464 187.739 70.5504C187.821 72.3216 188.401 74.16 189.745 75.3936C191.084 76.6224 192.73 77.4 194.588 77.4Z" fill="white"/>
<path d="M290.047 278.472C291.803 278.472 293.646 277.709 294.889 276.466C296.079 275.275 296.972 273.326 296.895 271.622C296.814 269.851 296.233 268.013 294.889 266.779C293.55 265.55 291.899 264.773 290.047 264.773C288.29 264.773 286.447 265.536 285.204 266.779C284.014 267.97 283.121 269.918 283.198 271.622C283.28 273.394 283.86 275.232 285.204 276.466C286.543 277.699 288.189 278.472 290.047 278.472Z" fill="white"/>
<path d="M115.033 279.197C116.79 279.197 118.632 278.434 119.875 277.19C121.066 276 121.958 274.051 121.882 272.347C121.8 270.576 121.219 268.738 119.875 267.504C118.536 266.275 116.886 265.498 115.033 265.498C113.276 265.498 111.433 266.261 110.19 267.504C109 268.694 108.108 270.643 108.184 272.347C108.266 274.118 108.847 275.957 110.19 277.19C111.529 278.419 113.176 279.197 115.033 279.197Z" fill="white"/>
<path d="M19.5741 209.952C21.3642 209.952 23.0824 208.378 23.0008 206.525C22.9192 204.667 21.4938 203.098 19.5741 203.098C17.7839 203.098 16.0657 204.672 16.1473 206.525C16.2289 208.382 17.6543 209.952 19.5741 209.952Z" fill="white"/>
<path d="M191.145 241.001C191.145 241.966 190.861 242.715 190.292 243.249C189.733 243.783 188.966 244.05 187.993 244.05C186.727 244.05 185.677 243.563 184.842 242.59L185.927 240.976C186.245 241.303 186.572 241.557 186.908 241.738C187.244 241.91 187.55 241.996 187.825 241.996C188.118 241.996 188.346 241.906 188.51 241.725C188.682 241.544 188.768 241.286 188.768 240.95V236.842H185.668V234.892H191.145V241.001ZM197.061 234.75C197.982 234.75 198.813 234.952 199.554 235.357C200.303 235.762 200.889 236.317 201.311 237.023C201.741 237.729 201.956 238.522 201.956 239.4C201.956 240.287 201.741 241.088 201.311 241.802C200.889 242.517 200.303 243.081 199.554 243.494C198.813 243.908 197.982 244.114 197.061 244.114C196.14 244.114 195.305 243.912 194.555 243.507C193.815 243.094 193.229 242.53 192.799 241.815C192.377 241.092 192.166 240.287 192.166 239.4C192.166 238.522 192.377 237.729 192.799 237.023C193.229 236.317 193.815 235.762 194.555 235.357C195.305 234.952 196.14 234.75 197.061 234.75ZM197.087 236.752C196.639 236.752 196.222 236.868 195.834 237.101C195.455 237.333 195.154 237.656 194.93 238.069C194.706 238.474 194.594 238.922 194.594 239.413C194.594 239.912 194.706 240.369 194.93 240.782C195.162 241.187 195.468 241.509 195.847 241.751C196.226 241.983 196.639 242.099 197.087 242.099C197.535 242.099 197.944 241.983 198.314 241.751C198.693 241.509 198.99 241.187 199.205 240.782C199.42 240.369 199.528 239.912 199.528 239.413C199.528 238.922 199.42 238.474 199.205 238.069C198.99 237.656 198.693 237.333 198.314 237.101C197.944 236.868 197.535 236.752 197.087 236.752ZM203.128 234.892H205.492V243.946H203.128V234.892ZM213.439 234.892H215.635V243.946H213.569L209.461 238.534V243.946H207.253V234.892H209.332L213.452 240.343L213.439 234.892ZM222.478 240.214C222.478 240.782 222.646 241.238 222.982 241.583C223.318 241.927 223.744 242.099 224.261 242.099C224.769 242.099 225.178 241.931 225.488 241.596C225.806 241.251 225.966 240.79 225.966 240.214V234.892H228.329V240.214C228.329 240.997 228.161 241.686 227.826 242.28C227.498 242.866 227.025 243.318 226.405 243.636C225.793 243.955 225.074 244.114 224.248 244.114C223.421 244.114 222.694 243.955 222.065 243.636C221.445 243.318 220.963 242.866 220.618 242.28C220.283 241.686 220.115 240.997 220.115 240.214V234.892H222.478V240.214ZM236.183 237.617C235.7 237.333 235.184 237.101 234.633 236.92C234.09 236.739 233.634 236.649 233.264 236.649C232.971 236.649 232.738 236.705 232.566 236.817C232.402 236.92 232.321 237.075 232.321 237.282C232.321 237.48 232.394 237.648 232.54 237.785C232.687 237.914 232.867 238.022 233.083 238.108C233.298 238.186 233.617 238.289 234.038 238.418C234.667 238.599 235.184 238.78 235.588 238.961C236.002 239.141 236.355 239.421 236.648 239.8C236.94 240.17 237.087 240.657 237.087 241.26C237.087 241.862 236.927 242.379 236.609 242.81C236.29 243.232 235.851 243.55 235.291 243.765C234.74 243.981 234.125 244.088 233.444 244.088C232.695 244.088 231.946 243.959 231.197 243.701C230.456 243.434 229.815 243.072 229.272 242.616L230.189 240.769C230.646 241.174 231.184 241.505 231.804 241.763C232.433 242.022 232.988 242.151 233.47 242.151C233.823 242.151 234.099 242.086 234.297 241.957C234.503 241.828 234.607 241.639 234.607 241.389C234.607 241.182 234.529 241.01 234.374 240.872C234.228 240.734 234.038 240.627 233.806 240.549C233.582 240.463 233.264 240.364 232.85 240.252C232.23 240.08 231.718 239.908 231.313 239.736C230.908 239.555 230.56 239.288 230.267 238.935C229.983 238.573 229.841 238.095 229.841 237.501C229.841 236.941 229.987 236.451 230.28 236.029C230.581 235.607 231.003 235.284 231.546 235.06C232.097 234.828 232.734 234.711 233.457 234.711C234.112 234.711 234.757 234.806 235.395 234.995C236.032 235.176 236.592 235.422 237.074 235.732L236.183 237.617Z" fill="#FFEDCD"/>
</g>
<defs>
<clipPath id="clip0_402_26985">
<rect width="691.106" height="384" fill="white" transform="translate(-134)"/>
</clipPath>
</defs>
</svg>
