<svg width="90" height="119" viewBox="0 0 90 119" fill="none" xmlns="http://www.w3.org/2000/svg">
<g clip-path="url(#clip0_402_26853)">
<path d="M71.6416 79.2031C71.6416 79.2031 64.0905 88.6962 73.0699 99.9772C77.8194 105.944 87.4306 101.312 85.7151 93.874C84.313 87.831 80.5479 81.8012 71.6416 79.2031Z" fill="#FFC042"/>
<path d="M24.209 33.4708C24.209 33.4708 60.0454 38.9763 73.8657 86.0876" stroke="white" stroke-width="0.432792" stroke-miterlimit="10"/>
<path d="M71.2422 71.4692C71.2422 71.4692 73.002 80.7683 84.1981 81.1563C90.12 81.3608 92.2689 73.2913 87.0155 70.5569C82.749 68.3259 77.2841 67.5 71.2422 71.4692Z" fill="#FFC042"/>
<path d="M85.6993 75.9181C85.6993 75.9181 72.2524 74.2665 66.623 68.0793" stroke="white" stroke-width="0.432792" stroke-miterlimit="10"/>
<path d="M58.4141 52.3809C58.4141 52.3809 61.9337 61.1609 72.9915 59.365C78.8402 58.416 79.3963 50.0896 73.7121 48.4169C69.0906 47.0589 63.5682 47.3106 58.4141 52.3809Z" fill="#5A8052"/>
<path d="M73.4458 53.9356C73.4458 53.9356 59.9337 54.9265 53.2207 49.9532" stroke="white" stroke-width="0.432792" stroke-miterlimit="10"/>
<path d="M63.2618 71.3984C63.2618 71.3984 53.8621 71.9909 52.0735 83.0963C51.131 88.9688 58.8257 92.1175 62.1939 87.228C64.9407 83.2562 66.4316 77.9133 63.2618 71.3984Z" fill="#94D387"/>
<path d="M59.6074 82.7345C59.6074 82.7345 65.3647 70.4126 63.1428 62.3484" stroke="white" stroke-width="0.432792" stroke-miterlimit="10"/>
<path d="M45.1789 48.9386C45.1789 48.9386 36.6983 53.0677 39.2414 64.0237C40.5861 69.8149 48.9022 69.7913 50.1686 63.9922C51.1999 59.2758 50.5811 53.7625 45.1789 48.9386Z" fill="#FFC042"/>
<path d="M46.0774 60.8278C46.0774 60.8278 46.7563 47.2424 41.6387 40.6174" stroke="white" stroke-width="0.432792" stroke-miterlimit="10"/>
<path d="M45.3594 38.6696C45.3594 38.6696 46.832 29.3233 58.0125 28.5866C63.9238 28.1986 66.3208 36.1895 61.1457 39.0943C56.9628 41.4564 51.524 42.45 45.3594 38.6696Z" fill="#94D387"/>
<path d="M56.9492 36.0846C56.9492 36.0846 44.1969 40.6778 36.4004 37.6943" stroke="#5E8455" stroke-width="0.432792" stroke-miterlimit="10"/>
<path d="M41.0742 105.21C41.0742 105.21 37.3613 65.9401 25.0059 36.0793" stroke="white" stroke-width="0.698052" stroke-miterlimit="10"/>
<path d="M39.1162 90.2745C38.3946 90.4037 37.7096 90.6892 37.109 91.1112C36.5084 91.5332 36.0065 92.0814 35.6383 92.7179C32.9437 97.3844 27.1159 108.972 31.1995 115.739C32.479 117.862 34.3171 116.302 35.8994 114.048C36.1556 113.678 36.5105 113.388 36.9234 113.211C37.3363 113.034 37.7904 112.977 38.2338 113.048C38.6772 113.118 39.0919 113.312 39.4304 113.608C39.7689 113.904 40.0174 114.29 40.1476 114.721C40.8656 117.144 42.1111 119.239 44.273 118.979C46.3122 118.73 46.8553 116.596 46.7926 114.189C46.7509 112.643 48.5473 111.83 49.7797 112.755C50.9129 113.615 52.1923 114.084 53.5265 113.641C57.524 112.31 51.2105 98.9417 43.4636 91.5381C42.8882 90.9994 42.1946 90.6043 41.4389 90.3847C40.6831 90.1652 39.8866 90.1274 39.1136 90.2745H39.1162Z" fill="#9876EA"/>
<path d="M38.983 90.298C38.574 90.3712 38.186 90.5336 37.8463 90.7736C37.5066 91.0137 37.2235 91.3257 37.0169 91.6875C35.6383 94.1047 32.8758 99.736 34.8784 103.058C36.2414 105.32 38.8681 99.217 38.8681 99.217C38.8681 99.217 38.9673 104.985 41.4165 104.678C43.8656 104.371 41.9961 98.648 41.9961 98.648C41.9961 98.648 43.8787 102.727 46.0432 102.009C48.106 101.322 44.6803 94.2279 40.641 90.6126C40.454 90.4513 40.2331 90.3347 39.9947 90.2716C39.7564 90.2085 39.5069 90.2005 39.265 90.2482L38.983 90.298Z" fill="#683FC8"/>
<mask id="mask0_402_26853" style="mask-type:luminance" maskUnits="userSpaceOnUse" x="29" y="90" width="26" height="30">
<path d="M39.1162 90.2745C38.3946 90.4037 37.7096 90.6892 37.109 91.1112C36.5084 91.5332 36.0065 92.0814 35.6383 92.7179C32.9437 97.3844 27.1159 108.972 31.1995 115.739C32.4816 117.867 34.3328 116.297 35.9151 114.032C36.1714 113.667 36.5245 113.381 36.9344 113.207C37.3444 113.033 37.7947 112.977 38.2343 113.047C38.6739 113.117 39.0852 113.309 39.4215 113.602C39.7579 113.895 40.0058 114.276 40.1371 114.703C40.8525 117.133 42.1006 119.241 44.2678 118.979C46.307 118.73 46.8475 116.599 46.7874 114.195C46.7483 112.645 48.5447 111.835 49.7771 112.758C50.9076 113.618 52.1871 114.084 53.5213 113.641C57.5188 112.31 51.2053 98.9417 43.4584 91.5381C42.883 90.9994 42.1894 90.6043 41.4337 90.3847C40.6779 90.1652 39.8813 90.1274 39.1084 90.2745H39.1162Z" fill="white"/>
</mask>
<g mask="url(#mask0_402_26853)">
<g style="mix-blend-mode:multiply" opacity="0.63">
<path d="M32.2344 111.468C32.3052 109.548 32.5032 107.636 32.8271 105.742C33.1399 103.844 33.5654 101.966 34.1013 100.119C34.3624 99.1908 34.6731 98.2837 34.9786 97.3661C35.1405 96.9125 35.3206 96.4668 35.5008 96.0159L35.7619 95.3395L36.0569 94.6789L36.647 93.3549L37.3076 92.0624C37.4199 91.8501 37.5269 91.6299 37.6418 91.4175L38.01 90.7936L38.7489 89.5404L39.4774 90.0228L38.7097 91.2183L38.3103 91.816C38.1901 92.0179 38.0779 92.2276 37.9604 92.4347L37.2658 93.6748L36.634 94.9515L36.3206 95.5912L36.0386 96.2466C35.8533 96.6844 35.6574 97.1196 35.4799 97.5575C35.1457 98.4488 34.7932 99.3349 34.5086 100.247C33.908 102.061 33.4154 103.909 33.0334 105.782C32.6402 107.657 32.3733 109.557 32.2344 111.468Z" fill="#784AEA"/>
</g>
<g style="mix-blend-mode:multiply" opacity="0.63">
<path d="M40.2828 89.4801C41.6929 90.8314 43.0183 92.2691 44.2515 93.7849C45.482 95.2917 46.6266 96.8672 47.6798 98.5039L48.4631 99.7413L49.1786 101.013C49.424 101.432 49.6329 101.873 49.8496 102.305L50.1734 102.958L50.3222 103.299L50.4632 103.634L51.035 104.974C51.223 105.422 51.364 105.886 51.5311 106.343L51.7713 107.03C51.8496 107.258 51.9019 107.496 51.9698 107.73L52.3484 109.132L51.9175 107.745C51.8418 107.515 51.7792 107.281 51.6956 107.056L51.4345 106.379C51.2517 105.934 51.0924 105.475 50.8888 105.037L50.2726 103.726L50.1185 103.401L49.9462 103.081L49.5989 102.447C49.3692 102.022 49.1472 101.595 48.8861 101.188L48.1315 99.9589L47.3221 98.7608C46.2195 97.1826 45.0287 95.6683 43.7554 94.2253C42.4916 92.7855 41.1409 91.4249 39.7109 90.1513L40.2828 89.4801Z" fill="#784AEA"/>
</g>
<g style="mix-blend-mode:multiply" opacity="0.63">
<path d="M42.3666 116.481C41.6063 114.35 40.9716 112.176 40.4657 109.971C40.343 109.418 40.2046 108.867 40.0976 108.314L39.766 106.647C39.5754 105.53 39.3769 104.416 39.2438 103.288L39.1263 102.447C39.0897 102.166 39.0662 101.883 39.0349 101.6C38.9774 101.036 38.9122 100.473 38.86 99.9091C38.7895 98.7765 38.6824 97.6439 38.6693 96.5009C38.5913 94.2279 38.6384 91.9523 38.8103 89.6846L39.6772 89.7711C39.4361 92.0044 39.3175 94.2493 39.3221 96.4957C39.2986 97.6204 39.3717 98.745 39.4057 99.8697C39.437 100.431 39.484 100.992 39.5232 101.555C39.544 101.836 39.5597 102.117 39.5858 102.397L39.6772 103.239C39.7816 104.361 39.9383 105.475 40.095 106.592L40.3717 108.262C40.4657 108.817 40.5832 109.371 40.6877 109.924C41.1166 112.141 41.6772 114.331 42.3666 116.481Z" fill="#784AEA"/>
</g>
<g style="mix-blend-mode:multiply" opacity="0.63">
<path d="M44.9162 116.174C44.9403 113.898 44.8401 111.623 44.6159 109.358C44.3988 107.097 44.0685 104.848 43.6263 102.62L43.2712 100.958L42.8535 99.3088C42.7255 98.7583 42.5558 98.2182 42.3887 97.6781L42.1407 96.868C42.0623 96.6059 41.9762 96.3254 41.8796 96.0632L41.3025 94.4718C41.2137 94.2097 41.0962 93.9475 40.984 93.6853L40.6498 92.8988L40.3156 92.1123C40.2059 91.8502 40.0544 91.6116 39.9396 91.3599L39.1562 89.8603L39.9213 89.4435L40.6628 91.0034C40.7829 91.2655 40.9239 91.5277 41.0231 91.7899L41.3391 92.5921L41.655 93.3917C41.7595 93.6539 41.8717 93.916 41.9553 94.1992L42.4905 95.8351C42.5845 96.0973 42.6603 96.383 42.7334 96.6583L42.9579 97.4894C43.1094 98.0399 43.2608 98.5931 43.3757 99.1541L43.7438 100.829L44.0467 102.518C44.4211 104.769 44.6825 107.038 44.83 109.316C44.9824 111.599 45.0111 113.888 44.9162 116.174Z" fill="#784AEA"/>
</g>
<g style="mix-blend-mode:multiply" opacity="0.63">
<path d="M33.5859 114.048C34.2369 113.196 34.7888 112.273 35.2309 111.295C35.3536 111.059 35.4581 110.813 35.5625 110.566L35.881 109.827C36.0638 109.324 36.2596 108.828 36.432 108.319C37.1075 106.289 37.6106 104.206 37.9359 102.09C38.2718 99.9798 38.4906 97.8521 38.5913 95.7171C38.6252 94.6474 38.6409 93.5804 38.6618 92.5108L38.5913 89.3071L39.4608 89.2861L39.4242 92.5239C39.3668 93.604 39.3145 94.6815 39.244 95.7564C39.07 97.9087 38.7763 100.05 38.3641 102.169C37.9629 104.289 37.3847 106.372 36.6356 108.395C36.4476 108.899 36.2309 109.392 36.0299 109.892L35.6878 110.621C35.5729 110.865 35.4607 111.109 35.3275 111.345C34.8516 112.31 34.2673 113.216 33.5859 114.048Z" fill="#784AEA"/>
</g>
<g style="mix-blend-mode:multiply" opacity="0.63">
<path d="M51.0071 111.507C49.7956 109.819 48.6363 108.099 47.5057 106.345C46.3751 104.591 45.2837 102.824 44.2524 101.015C43.221 99.2065 42.2262 97.3688 41.3515 95.468C40.4357 93.5698 39.6988 91.5897 39.1504 89.5536L40.0016 89.3622C40.4686 91.3649 41.1207 93.3195 41.9494 95.2006C42.7458 97.1092 43.6701 98.968 44.6336 100.803C45.597 102.638 46.6258 104.447 47.6911 106.23C48.7564 108.013 49.853 109.78 51.0071 111.507Z" fill="#784AEA"/>
</g>
</g>
<path d="M37.0996 78.7837C37.0996 78.7837 40.2067 86.8401 53.1366 89.3254" stroke="white" stroke-width="0.698052" stroke-miterlimit="10"/>
<path d="M51.6243 88.9584C51.3815 89.4957 51.3606 90.1076 51.5661 90.6604C51.7716 91.2131 52.1869 91.6616 52.7209 91.9077C52.9857 92.0295 53.2719 92.0976 53.5629 92.1081C53.854 92.1187 54.1443 92.0714 54.4172 91.9692C54.69 91.8669 54.9401 91.7115 55.1531 91.5121C55.3661 91.3126 55.5378 91.0728 55.6583 90.8066C55.9027 90.2698 55.9247 89.6576 55.7195 89.1045C55.5144 88.5514 55.0988 88.1028 54.5643 87.8573C54.029 87.612 53.4186 87.5902 52.8672 87.7966C52.3159 88.0031 51.8688 88.421 51.6243 88.9584Z" fill="#9876EA"/>
<path d="M54.5672 87.8572C54.9668 88.0383 55.304 88.3341 55.5363 88.7073C55.7687 89.0806 55.8857 89.5146 55.8727 89.9545C55.7724 89.678 55.6183 89.4242 55.4192 89.2082C55.2202 88.9921 54.9802 88.818 54.7134 88.6961C54.1788 88.4508 53.569 88.4287 53.0182 88.6347C52.4673 88.8407 52.0205 89.2579 51.776 89.7946C51.6555 90.0593 51.5881 90.3453 51.5776 90.6362C51.3764 90.087 51.3989 89.4804 51.6402 88.9478C51.8868 88.4156 52.3324 88.0026 52.8804 87.7984C53.4285 87.5942 54.0346 87.6153 54.5672 87.8572Z" fill="#683FC8"/>
<path d="M54.0065 89.9048C53.8228 89.9041 53.6462 89.9765 53.5156 90.1063C53.3849 90.236 53.3108 90.4124 53.3094 90.5969C53.288 90.7804 53.3401 90.965 53.4542 91.11C53.5683 91.255 53.735 91.3486 53.9177 91.3703C54.1015 91.371 54.278 91.2986 54.4087 91.1688C54.5394 91.0391 54.6135 90.8627 54.6149 90.6782C54.6362 90.4946 54.5841 90.3101 54.4701 90.1651C54.356 90.0201 54.1893 89.9265 54.0065 89.9048Z" fill="white"/>
<path d="M36.4801 75.1265C36.4801 75.1265 32.4174 82.7293 19.2812 83.6207" stroke="white" stroke-width="0.698052" stroke-miterlimit="10"/>
<path d="M17.1377 82.6873C17.0168 82.9533 16.9492 83.2406 16.9389 83.5327C16.9286 83.8249 16.9757 84.1162 17.0775 84.3901C17.1793 84.664 17.3339 84.9151 17.5324 85.129C17.7309 85.3429 17.9694 85.5154 18.2343 85.6367C18.4992 85.7581 18.7853 85.8259 19.0763 85.8363C19.3672 85.8467 19.6574 85.7994 19.9302 85.6971C20.203 85.5949 20.453 85.4397 20.666 85.2404C20.8791 85.0411 21.0509 84.8016 21.1717 84.5356C21.2926 84.2697 21.3602 83.9824 21.3705 83.6902C21.3808 83.3981 21.3337 83.1067 21.2319 82.8328C21.1301 82.559 20.9755 82.3079 20.777 82.094C20.5785 81.8801 20.34 81.7076 20.0751 81.5862C19.8102 81.4648 19.5241 81.397 19.2331 81.3867C18.9422 81.3763 18.652 81.4236 18.3792 81.5258C18.1064 81.6281 17.8564 81.7833 17.6434 81.9826C17.4303 82.1819 17.2585 82.4214 17.1377 82.6873Z" fill="#9876EA"/>
<path d="M20.075 81.5862C20.4748 81.767 20.8122 82.0627 21.0446 82.436C21.2769 82.8094 21.3938 83.2435 21.3805 83.6835C21.2793 83.4071 21.1244 83.1535 20.925 82.9375C20.7256 82.7215 20.4855 82.5474 20.2186 82.4251C19.9537 82.3037 19.6676 82.2359 19.3766 82.2255C19.0856 82.2152 18.7955 82.2625 18.5227 82.3647C18.2499 82.467 17.9999 82.6222 17.7869 82.8215C17.5738 83.0208 17.402 83.2602 17.2812 83.5262C17.1624 83.7905 17.0959 84.0754 17.0853 84.3652C16.9844 84.0935 16.938 83.8044 16.9488 83.5147C16.9595 83.2249 17.0272 82.9402 17.148 82.6768C17.394 82.1441 17.8396 81.7307 18.3878 81.5264C18.9361 81.3221 19.5425 81.3436 20.075 81.5862Z" fill="#683FC8"/>
<path d="M19.5088 83.6364C19.3248 83.6357 19.148 83.708 19.0169 83.8377C18.8858 83.9673 18.8111 84.1437 18.809 84.3285C18.7966 84.4204 18.8026 84.5138 18.8266 84.6034C18.8506 84.6929 18.8921 84.7768 18.9487 84.85C19.0054 84.9232 19.076 84.9844 19.1565 85.0299C19.237 85.0754 19.3257 85.1043 19.4174 85.115C19.6014 85.1157 19.7782 85.0433 19.9093 84.9137C20.0404 84.784 20.1151 84.6076 20.1172 84.4229C20.1292 84.331 20.123 84.2377 20.0989 84.1483C20.0747 84.0589 20.0332 83.9752 19.9766 83.902C19.92 83.8289 19.8495 83.7677 19.7692 83.7221C19.6889 83.6765 19.6004 83.6474 19.5088 83.6364Z" fill="white"/>
<path d="M17.4594 1.53627C17.4594 1.53627 72.8394 -5.03363 74.5183 8.98966C76.3852 24.5728 45.7212 21.765 45.7212 21.765C45.7212 21.765 73.7794 28.3952 68.0429 39.2411C62.4527 49.8142 42.8491 39.013 42.8491 39.013C42.8491 39.013 63.2151 62.5765 52.7449 67.0202C41.1414 71.9463 28.8826 44.1462 28.8826 44.1462C28.8826 44.1462 37.0708 70.6093 25.4883 71.3093C15.8509 71.8913 11.9997 50.2206 11.9997 50.2206C11.9997 50.2206 12.8378 70.3235 -2.81273 67.6022C-16.8679 65.1588 2.04902 3.82236 2.04902 3.82236L17.4594 1.53627Z" fill="#00897C"/>
<path d="M59.1978 36.7768C57.3544 35.7281 56.276 34.1551 56.7904 33.2218C57.3048 32.2885 59.2213 32.3933 61.0647 33.4315C62.9081 34.4697 63.989 36.0532 63.4747 36.9839C62.9603 37.9146 61.0412 37.8149 59.1978 36.7768Z" fill="#005950"/>
<path d="M67.1871 15.6854C65.08 15.4731 63.4585 14.448 63.5656 13.3941C63.6726 12.3402 65.4612 11.6586 67.5683 11.8709C69.6754 12.0833 71.2942 13.1136 71.1898 14.1622C71.0853 15.2109 69.2916 15.8978 67.1871 15.6854Z" fill="#005950"/>
<path d="M63.0252 17.0591C62.1923 16.9752 61.55 16.5689 61.5918 16.1547C61.6335 15.7404 62.3437 15.4678 63.1767 15.5517C64.0096 15.6356 64.6493 16.0419 64.6075 16.4561C64.5657 16.8704 63.8581 17.143 63.0252 17.0591Z" fill="#005950"/>
<path d="M51.2613 38.861C50.6712 38.5438 50.3187 38.0194 50.4911 37.7258C50.6634 37.4322 51.2744 37.4637 51.8566 37.7914C52.4389 38.1191 52.7914 38.6329 52.6269 38.9292C52.4624 39.2254 51.8514 39.194 51.2613 38.861Z" fill="#005950"/>
<path d="M48.3006 61.4047C47.4364 60.023 47.2928 58.5523 47.9768 58.1197C48.6609 57.6871 49.9195 58.4553 50.7837 59.8369C51.648 61.2185 51.7942 62.6893 51.1075 63.1218C50.4208 63.5544 49.1675 62.7836 48.3006 61.4047Z" fill="#005950"/>
<path d="M44.927 61.7874C44.6659 61.3627 44.6163 60.9091 44.8252 60.778C45.0341 60.647 45.4231 60.8803 45.6894 61.3024C45.9558 61.7245 46.0002 62.178 45.7887 62.3117C45.5772 62.4454 45.1907 62.2095 44.927 61.7874Z" fill="#005950"/>
<path d="M23.6035 64.4982C23.5017 62.8702 24.0735 61.5069 24.8803 61.4571C25.6871 61.4073 26.4261 62.684 26.5305 64.3121C26.635 65.9401 26.0605 67.3008 25.2537 67.3532C24.4469 67.4057 23.7054 66.121 23.6035 64.4982Z" fill="#005950"/>
<path d="M20.4568 63.2083C20.4254 62.7102 20.6004 62.2907 20.8484 62.275C21.0965 62.2593 21.3236 62.6525 21.355 63.1533C21.3863 63.654 21.2113 64.0708 20.9633 64.0866C20.7152 64.1023 20.4881 63.7117 20.4568 63.2083Z" fill="#005950"/>
<path d="M2.99421 61.6143C2.89238 59.9863 3.46159 58.6256 4.27101 58.5732C5.08043 58.5208 5.81674 59.8002 5.92118 61.4282C6.02563 63.0563 5.45119 64.4195 4.64177 64.4693C3.83235 64.5191 3.09604 63.2424 2.99421 61.6143Z" fill="#005950"/>
<path d="M-0.152088 60.3323C-0.186032 59.8316 -0.0084813 59.4147 0.239567 59.399C0.487615 59.3833 0.714776 59.7739 0.746109 60.2747C0.777441 60.7754 0.602502 61.1922 0.354453 61.208C0.106405 61.2237 -0.120756 60.8278 -0.152088 60.3323Z" fill="#005950"/>
<path d="M13.5501 2.77901C13.5501 2.77901 57.9378 -2.48267 59.2694 8.75116C60.7629 21.2408 36.1957 18.9888 36.1957 18.9888C36.1957 18.9888 58.6767 24.3029 54.0813 32.9911C49.6033 41.4643 33.8953 32.8102 33.8953 32.8102C33.8953 32.8102 50.2065 51.6862 41.8224 55.249C32.5272 59.1972 22.7044 36.9236 22.7044 36.9236C22.7044 36.9236 29.2634 58.1276 19.989 58.6834C12.2681 59.1501 9.18189 41.7868 9.18189 41.7868C9.18189 41.7868 9.8477 57.8969 -2.68528 55.7183C-13.9467 53.7599 1.21039 4.61418 1.21039 4.61418L13.5501 2.77901Z" fill="#006B60"/>
<path d="M41.2115 29.7507C39.6449 28.8751 38.744 27.5354 39.1801 26.7568C39.6161 25.9781 41.2271 26.0568 42.7859 26.9324C44.3447 27.8081 45.2507 29.1477 44.8147 29.9264C44.3787 30.705 42.7676 30.6263 41.2115 29.7507Z" fill="#003B35"/>
<path d="M13.9788 16.5847C11.2633 15.0562 9.67581 12.7151 10.433 11.3571C11.1902 9.99903 14.0101 10.1354 16.7256 11.6638C19.4411 13.1922 21.0286 15.5334 20.2714 16.8914C19.5142 18.2494 16.6943 18.1131 13.9788 16.5847Z" fill="#003B35"/>
<path d="M7.8098 19.2562C7.23537 17.7618 7.36854 16.3147 8.11008 16.0263C8.85161 15.7379 9.92212 16.7184 10.4966 18.2127C11.071 19.7071 10.9378 21.1516 10.1963 21.44C9.45476 21.7284 8.38684 20.7505 7.8098 19.2562Z" fill="#003B35"/>
<path d="M35.1249 44.8907C34.1745 43.3728 34.0152 41.7605 34.7672 41.2833C35.5192 40.8062 36.9004 41.653 37.8508 43.1709C38.8012 44.6889 38.9579 46.3012 38.2059 46.7757C37.4539 47.2502 36.0727 46.4087 35.1249 44.8907Z" fill="#003B35"/>
<path d="M49.296 13.9918C47.5205 13.8135 46.1627 12.9432 46.2437 12.0597C46.3246 11.1762 47.8442 10.5968 49.6171 10.775C51.39 10.9533 52.7504 11.8237 52.672 12.7098C52.5937 13.5959 51.0715 14.1622 49.296 13.9918Z" fill="#003B35"/>
<path d="M18.7824 52.1764C18.4821 51.0569 18.6884 50.0292 19.2446 49.8772C19.8007 49.7251 20.4953 50.5142 20.7929 51.6337C21.0906 52.7531 20.8869 53.7808 20.3308 53.9329C19.7746 54.0849 19.0827 53.2853 18.7824 52.1764Z" fill="#003B35"/>
<path d="M0.956007 50.1131C1.01345 48.9622 1.5226 48.0498 2.0918 48.0787C2.66101 48.1075 3.084 49.0618 3.02656 50.2153C2.96911 51.3689 2.46258 52.2786 1.89076 52.2497C1.31895 52.2209 0.901175 51.2666 0.956007 50.1131Z" fill="#003B35"/>
<path d="M34.8352 29.0297C33.9344 28.5237 33.4096 27.7503 33.6602 27.2994C33.9109 26.8485 34.843 26.8957 35.7491 27.4017C36.6551 27.9076 37.1721 28.681 36.9214 29.1293C36.6707 29.5776 35.7334 29.5357 34.8352 29.0297Z" fill="#003B35"/>
<path d="M42.9033 16.0106C41.8798 15.9083 41.0913 15.4102 41.1409 14.8964C41.1905 14.3825 42.0652 14.0522 43.0887 14.1544C44.1122 14.2567 44.9034 14.7574 44.8538 15.2713C44.8042 15.7851 43.9295 16.1154 42.9033 16.0106Z" fill="#003B35"/>
<path d="M34.1536 50.079C33.6052 49.2034 33.5138 48.27 33.9473 47.9817C34.3807 47.6933 35.1797 48.1966 35.728 49.0723C36.2763 49.9479 36.3677 50.8786 35.9343 51.1539C35.5008 51.4292 34.7019 50.9415 34.1536 50.079Z" fill="#003B35"/>
<path d="M15.8749 46.9776C15.6686 46.3406 15.7574 45.7402 16.0734 45.638C16.3893 45.5357 16.8123 45.9657 17.0186 46.6027C17.2248 47.2398 17.136 47.8402 16.8201 47.9424C16.5042 48.0446 16.0812 47.6121 15.8749 46.9776Z" fill="#003B35"/>
<path d="M3.06041 46.2121C3.28234 45.5855 3.71317 45.1634 4.02649 45.2762C4.33982 45.3889 4.41031 45.9866 4.18838 46.6132C3.96644 47.2398 3.533 47.6619 3.22229 47.5491C2.91158 47.4364 2.83325 46.8387 3.06041 46.2121Z" fill="#003B35"/>
</g>
<defs>
<clipPath id="clip0_402_26853">
<rect width="98" height="119" fill="white" transform="translate(-8)"/>
</clipPath>
</defs>
</svg>
