<svg width="86" height="119" viewBox="0 0 86 119" fill="none" xmlns="http://www.w3.org/2000/svg">
<g clip-path="url(#clip0_402_26919)">
<path d="M18.3584 79.2031C18.3584 79.2031 25.9095 88.6962 16.9301 99.9772C12.1806 105.944 2.56942 101.312 4.28487 93.874C5.687 87.831 9.45211 81.8012 18.3584 79.2031Z" fill="#FFC042"/>
<path d="M65.791 33.4708C65.791 33.4708 29.9546 38.9763 16.1343 86.0876" stroke="white" stroke-width="0.432792" stroke-miterlimit="10"/>
<path d="M18.7578 71.4692C18.7578 71.4692 16.998 80.7683 5.80185 81.1563C-0.119974 81.3608 -2.26886 73.2913 2.98454 70.5569C7.25098 68.3259 12.7159 67.5 18.7578 71.4692Z" fill="#FFC042"/>
<path d="M4.30073 75.9181C4.30073 75.9181 17.7476 74.2665 23.377 68.0793" stroke="white" stroke-width="0.432792" stroke-miterlimit="10"/>
<path d="M31.5859 52.3809C31.5859 52.3809 28.0663 61.1609 17.0085 59.365C11.1598 58.416 10.6037 50.0896 16.2879 48.4169C20.9094 47.0589 26.4318 47.3106 31.5859 52.3809Z" fill="#5A8052"/>
<path d="M16.5542 53.9356C16.5542 53.9356 30.0663 54.9265 36.7793 49.9532" stroke="white" stroke-width="0.432792" stroke-miterlimit="10"/>
<path d="M26.7382 71.3984C26.7382 71.3984 36.1379 71.9909 37.9265 83.0963C38.869 88.9688 31.1743 92.1175 27.8061 87.228C25.0593 83.2562 23.5684 77.9133 26.7382 71.3984Z" fill="#94D387"/>
<path d="M30.3926 82.7345C30.3926 82.7345 24.6353 70.4126 26.8572 62.3484" stroke="white" stroke-width="0.432792" stroke-miterlimit="10"/>
<path d="M44.8211 48.9386C44.8211 48.9386 53.3017 53.0677 50.7586 64.0237C49.4139 69.8149 41.0978 69.7913 39.8314 63.9922C38.8001 59.2758 39.4189 53.7625 44.8211 48.9386Z" fill="#FFC042"/>
<path d="M43.9226 60.8278C43.9226 60.8278 43.2437 47.2424 48.3613 40.6174" stroke="white" stroke-width="0.432792" stroke-miterlimit="10"/>
<path d="M44.6406 38.6696C44.6406 38.6696 43.168 29.3233 31.9875 28.5866C26.0762 28.1986 23.6792 36.1895 28.8543 39.0943C33.0372 41.4564 38.476 42.45 44.6406 38.6696Z" fill="#94D387"/>
<path d="M33.0508 36.0846C33.0508 36.0846 45.8031 40.6778 53.5996 37.6943" stroke="#5E8455" stroke-width="0.432792" stroke-miterlimit="10"/>
<path d="M48.9258 105.21C48.9258 105.21 52.6387 65.9401 64.9941 36.0793" stroke="white" stroke-width="0.698052" stroke-miterlimit="10"/>
<path d="M50.8838 90.2745C51.6054 90.4037 52.2904 90.6892 52.891 91.1112C53.4916 91.5332 53.9935 92.0814 54.3617 92.7179C57.0563 97.3844 62.8841 108.972 58.8005 115.739C57.521 117.862 55.6829 116.302 54.1006 114.048C53.8444 113.678 53.4895 113.388 53.0766 113.211C52.6637 113.034 52.2096 112.977 51.7662 113.048C51.3228 113.118 50.9081 113.312 50.5696 113.608C50.2311 113.904 49.9826 114.29 49.8524 114.721C49.1344 117.144 47.8889 119.239 45.727 118.979C43.6878 118.73 43.1447 116.596 43.2074 114.189C43.2491 112.643 41.4527 111.83 40.2203 112.755C39.0871 113.615 37.8077 114.084 36.4735 113.641C32.476 112.31 38.7895 98.9417 46.5364 91.5381C47.1118 90.9994 47.8054 90.6043 48.5611 90.3847C49.3169 90.1652 50.1134 90.1274 50.8864 90.2745H50.8838Z" fill="#9876EA"/>
<path d="M51.017 90.298C51.426 90.3712 51.814 90.5336 52.1537 90.7736C52.4934 91.0137 52.7765 91.3257 52.9831 91.6875C54.3617 94.1047 57.1242 99.736 55.1216 103.058C53.7586 105.32 51.1319 99.217 51.1319 99.217C51.1319 99.217 51.0327 104.985 48.5835 104.678C46.1344 104.371 48.0039 98.648 48.0039 98.648C48.0039 98.648 46.1213 102.727 43.9568 102.009C41.894 101.322 45.3197 94.2279 49.359 90.6126C49.546 90.4513 49.7669 90.3347 50.0053 90.2716C50.2436 90.2085 50.4931 90.2005 50.735 90.2482L51.017 90.298Z" fill="#683FC8"/>
<mask id="mask0_402_26919" style="mask-type:luminance" maskUnits="userSpaceOnUse" x="35" y="90" width="26" height="30">
<path d="M50.8838 90.2745C51.6054 90.4037 52.2904 90.6892 52.891 91.1112C53.4916 91.5332 53.9935 92.0814 54.3617 92.7179C57.0563 97.3844 62.8841 108.972 58.8005 115.739C57.5184 117.867 55.6672 116.297 54.0849 114.032C53.8286 113.667 53.4755 113.381 53.0656 113.207C52.6556 113.033 52.2053 112.977 51.7657 113.047C51.3261 113.117 50.9148 113.309 50.5785 113.602C50.2421 113.895 49.9942 114.276 49.8629 114.703C49.1475 117.133 47.8994 119.241 45.7322 118.979C43.693 118.73 43.1525 116.599 43.2126 114.195C43.2517 112.645 41.4553 111.835 40.2229 112.758C39.0924 113.618 37.8129 114.084 36.4787 113.641C32.4812 112.31 38.7947 98.9417 46.5416 91.5381C47.117 90.9994 47.8106 90.6043 48.5663 90.3847C49.3221 90.1652 50.1187 90.1274 50.8916 90.2745H50.8838Z" fill="white"/>
</mask>
<g mask="url(#mask0_402_26919)">
<g style="mix-blend-mode:multiply" opacity="0.63">
<path d="M57.7656 111.468C57.6948 109.548 57.4968 107.636 57.1729 105.742C56.8601 103.844 56.4346 101.966 55.8987 100.119C55.6376 99.1908 55.3269 98.2837 55.0214 97.3661C54.8595 96.9125 54.6794 96.4668 54.4992 96.0159L54.2381 95.3395L53.9431 94.6789L53.353 93.3549L52.6924 92.0624C52.5801 91.8501 52.4731 91.6299 52.3582 91.4175L51.99 90.7936L51.2511 89.5404L50.5226 90.0228L51.2903 91.2183L51.6897 91.816C51.8099 92.0179 51.9221 92.2276 52.0396 92.4347L52.7342 93.6748L53.366 94.9515L53.6794 95.5912L53.9614 96.2466C54.1467 96.6844 54.3426 97.1196 54.5201 97.5575C54.8543 98.4488 55.2068 99.3349 55.4914 100.247C56.092 102.061 56.5846 103.909 56.9666 105.782C57.3598 107.657 57.6267 109.557 57.7656 111.468Z" fill="#784AEA"/>
</g>
<g style="mix-blend-mode:multiply" opacity="0.63">
<path d="M49.7172 89.4801C48.3071 90.8314 46.9817 92.2691 45.7485 93.7849C44.518 95.2917 43.3734 96.8672 42.3202 98.5039L41.5369 99.7413L40.8214 101.013C40.576 101.432 40.3671 101.873 40.1504 102.305L39.8266 102.958L39.6778 103.299L39.5368 103.634L38.965 104.974C38.777 105.422 38.636 105.886 38.4689 106.343L38.2287 107.03C38.1504 107.258 38.0981 107.496 38.0302 107.73L37.6516 109.132L38.0825 107.745C38.1582 107.515 38.2208 107.281 38.3044 107.056L38.5655 106.379C38.7483 105.934 38.9076 105.475 39.1112 105.037L39.7274 103.726L39.8815 103.401L40.0538 103.081L40.4011 102.447C40.6308 102.022 40.8528 101.595 41.1139 101.188L41.8685 99.9589L42.6779 98.7608C43.7805 97.1826 44.9713 95.6683 46.2446 94.2253C47.5084 92.7855 48.8591 91.4249 50.2891 90.1513L49.7172 89.4801Z" fill="#784AEA"/>
</g>
<g style="mix-blend-mode:multiply" opacity="0.63">
<path d="M47.6334 116.481C48.3937 114.35 49.0284 112.176 49.5343 109.971C49.657 109.418 49.7954 108.867 49.9024 108.314L50.234 106.647C50.4246 105.53 50.6231 104.416 50.7562 103.288L50.8737 102.447C50.9103 102.166 50.9338 101.883 50.9651 101.6C51.0226 101.036 51.0878 100.473 51.14 99.9091C51.2105 98.7765 51.3176 97.6439 51.3307 96.5009C51.4087 94.2279 51.3616 91.9523 51.1897 89.6846L50.3228 89.7711C50.5639 92.0044 50.6825 94.2493 50.6779 96.4957C50.7014 97.6204 50.6283 98.745 50.5943 99.8697C50.563 100.431 50.516 100.992 50.4768 101.555C50.456 101.836 50.4403 102.117 50.4142 102.397L50.3228 103.239C50.2184 104.361 50.0617 105.475 49.905 106.592L49.6283 108.262C49.5343 108.817 49.4168 109.371 49.3123 109.924C48.8834 112.141 48.3228 114.331 47.6334 116.481Z" fill="#784AEA"/>
</g>
<g style="mix-blend-mode:multiply" opacity="0.63">
<path d="M45.0838 116.174C45.0597 113.898 45.1599 111.623 45.3841 109.358C45.6012 107.097 45.9315 104.848 46.3737 102.62L46.7288 100.958L47.1465 99.3088C47.2745 98.7583 47.4442 98.2182 47.6113 97.6781L47.8593 96.868C47.9377 96.6059 48.0238 96.3254 48.1204 96.0632L48.6975 94.4718C48.7863 94.2097 48.9038 93.9475 49.016 93.6853L49.3502 92.8988L49.6844 92.1123C49.7941 91.8502 49.9456 91.6116 50.0604 91.3599L50.8438 89.8603L50.0787 89.4435L49.3372 91.0034C49.2171 91.2655 49.0761 91.5277 48.9769 91.7899L48.6609 92.5921L48.345 93.3917C48.2405 93.6539 48.1283 93.916 48.0447 94.1992L47.5095 95.8351C47.4155 96.0973 47.3397 96.383 47.2666 96.6583L47.0421 97.4894C46.8906 98.0399 46.7392 98.5931 46.6243 99.1541L46.2562 100.829L45.9533 102.518C45.5789 104.769 45.3175 107.038 45.17 109.316C45.0176 111.599 44.9889 113.888 45.0838 116.174Z" fill="#784AEA"/>
</g>
<g style="mix-blend-mode:multiply" opacity="0.63">
<path d="M56.4141 114.048C55.7631 113.196 55.2112 112.273 54.7691 111.295C54.6464 111.059 54.5419 110.813 54.4375 110.566L54.119 109.827C53.9362 109.324 53.7404 108.828 53.568 108.319C52.8925 106.289 52.3894 104.206 52.0641 102.09C51.7282 99.9798 51.5094 97.8521 51.4087 95.7171C51.3748 94.6474 51.3591 93.5804 51.3382 92.5108L51.4087 89.3071L50.5392 89.2861L50.5758 92.5239C50.6332 93.604 50.6855 94.6815 50.756 95.7564C50.93 97.9087 51.2237 100.05 51.6359 102.169C52.0371 104.289 52.6153 106.372 53.3644 108.395C53.5524 108.899 53.7691 109.392 53.9701 109.892L54.3122 110.621C54.4271 110.865 54.5393 111.109 54.6725 111.345C55.1484 112.31 55.7327 113.216 56.4141 114.048Z" fill="#784AEA"/>
</g>
<g style="mix-blend-mode:multiply" opacity="0.63">
<path d="M38.9929 111.507C40.2044 109.819 41.3637 108.099 42.4943 106.345C43.6249 104.591 44.7163 102.824 45.7476 101.015C46.779 99.2065 47.7738 97.3688 48.6485 95.468C49.5643 93.5698 50.3012 91.5897 50.8496 89.5536L49.9984 89.3622C49.5314 91.3649 48.8793 93.3195 48.0506 95.2006C47.2542 97.1092 46.3299 98.968 45.3664 100.803C44.403 102.638 43.3742 104.447 42.3089 106.23C41.2436 108.013 40.147 109.78 38.9929 111.507Z" fill="#784AEA"/>
</g>
</g>
<path d="M52.9004 78.7837C52.9004 78.7837 49.7933 86.8401 36.8634 89.3254" stroke="white" stroke-width="0.698052" stroke-miterlimit="10"/>
<path d="M38.3757 88.9584C38.6185 89.4957 38.6394 90.1076 38.4339 90.6604C38.2284 91.2131 37.8131 91.6616 37.2791 91.9077C37.0143 92.0295 36.7281 92.0976 36.4371 92.1081C36.146 92.1187 35.8557 92.0714 35.5828 91.9692C35.31 91.8669 35.0599 91.7115 34.8469 91.5121C34.6339 91.3126 34.4622 91.0728 34.3417 90.8066C34.0973 90.2698 34.0753 89.6576 34.2805 89.1045C34.4856 88.5514 34.9012 88.1028 35.4357 87.8573C35.971 87.612 36.5814 87.5902 37.1328 87.7966C37.6841 88.0031 38.1312 88.421 38.3757 88.9584Z" fill="#9876EA"/>
<path d="M35.4328 87.8572C35.0332 88.0383 34.696 88.3341 34.4637 88.7073C34.2313 89.0806 34.1143 89.5146 34.1273 89.9545C34.2276 89.678 34.3817 89.4242 34.5808 89.2082C34.7798 88.9921 35.0198 88.818 35.2866 88.6961C35.8212 88.4508 36.431 88.4287 36.9818 88.6347C37.5327 88.8407 37.9795 89.2579 38.224 89.7946C38.3445 90.0593 38.4119 90.3453 38.4224 90.6362C38.6236 90.087 38.6011 89.4804 38.3598 88.9478C38.1132 88.4156 37.6676 88.0026 37.1196 87.7984C36.5715 87.5942 35.9654 87.6153 35.4328 87.8572Z" fill="#683FC8"/>
<path d="M35.9935 89.9048C36.1772 89.9041 36.3538 89.9765 36.4844 90.1063C36.6151 90.236 36.6892 90.4124 36.6906 90.5969C36.712 90.7804 36.6599 90.965 36.5458 91.11C36.4317 91.255 36.265 91.3486 36.0823 91.3703C35.8985 91.371 35.722 91.2986 35.5913 91.1688C35.4606 91.0391 35.3865 90.8627 35.3851 90.6782C35.3638 90.4946 35.4159 90.3101 35.5299 90.1651C35.644 90.0201 35.8107 89.9265 35.9935 89.9048Z" fill="white"/>
<path d="M53.5199 75.1265C53.5199 75.1265 57.5826 82.7293 70.7188 83.6207" stroke="white" stroke-width="0.698052" stroke-miterlimit="10"/>
<path d="M72.8623 82.6873C72.9832 82.9533 73.0508 83.2406 73.0611 83.5327C73.0714 83.8249 73.0243 84.1162 72.9225 84.3901C72.8207 84.664 72.6661 84.9151 72.4676 85.129C72.2691 85.3429 72.0306 85.5154 71.7657 85.6367C71.5008 85.7581 71.2147 85.8259 70.9237 85.8363C70.6328 85.8467 70.3426 85.7994 70.0698 85.6971C69.797 85.5949 69.547 85.4397 69.334 85.2404C69.1209 85.0411 68.9491 84.8016 68.8283 84.5356C68.7074 84.2697 68.6398 83.9824 68.6295 83.6902C68.6192 83.3981 68.6663 83.1067 68.7681 82.8328C68.8699 82.559 69.0245 82.3079 69.223 82.094C69.4215 81.8801 69.66 81.7076 69.9249 81.5862C70.1898 81.4648 70.4759 81.397 70.7669 81.3867C71.0578 81.3763 71.348 81.4236 71.6208 81.5258C71.8936 81.6281 72.1436 81.7833 72.3566 81.9826C72.5697 82.1819 72.7415 82.4214 72.8623 82.6873Z" fill="#9876EA"/>
<path d="M69.925 81.5862C69.5252 81.767 69.1878 82.0627 68.9554 82.436C68.7231 82.8094 68.6062 83.2435 68.6195 83.6835C68.7207 83.4071 68.8756 83.1535 69.075 82.9375C69.2744 82.7215 69.5145 82.5474 69.7814 82.4251C70.0463 82.3037 70.3324 82.2359 70.6234 82.2255C70.9144 82.2152 71.2045 82.2625 71.4773 82.3647C71.7501 82.467 72.0001 82.6222 72.2131 82.8215C72.4262 83.0208 72.598 83.2602 72.7188 83.5262C72.8376 83.7905 72.9041 84.0754 72.9147 84.3652C73.0156 84.0935 73.062 83.8044 73.0512 83.5147C73.0405 83.2249 72.9728 82.9402 72.852 82.6768C72.606 82.1441 72.1604 81.7307 71.6122 81.5264C71.0639 81.3221 70.4575 81.3436 69.925 81.5862Z" fill="#683FC8"/>
<path d="M70.4912 83.6364C70.6752 83.6357 70.852 83.708 70.9831 83.8377C71.1142 83.9673 71.1889 84.1437 71.191 84.3285C71.2034 84.4204 71.1974 84.5138 71.1734 84.6034C71.1494 84.6929 71.1079 84.7768 71.0513 84.85C70.9946 84.9232 70.924 84.9844 70.8435 85.0299C70.763 85.0754 70.6743 85.1043 70.5826 85.115C70.3986 85.1157 70.2218 85.0433 70.0907 84.9137C69.9596 84.784 69.8849 84.6076 69.8828 84.4229C69.8708 84.331 69.877 84.2377 69.9011 84.1483C69.9253 84.0589 69.9668 83.9752 70.0234 83.902C70.08 83.8289 70.1505 83.7677 70.2308 83.7221C70.3111 83.6765 70.3996 83.6474 70.4912 83.6364Z" fill="white"/>
<path d="M72.5406 1.53627C72.5406 1.53627 17.1606 -5.03363 15.4817 8.98966C13.6148 24.5728 44.2788 21.765 44.2788 21.765C44.2788 21.765 16.2206 28.3952 21.9571 39.2411C27.5473 49.8142 47.1509 39.013 47.1509 39.013C47.1509 39.013 26.7849 62.5765 37.2551 67.0202C48.8586 71.9463 61.1174 44.1462 61.1174 44.1462C61.1174 44.1462 52.9292 70.6093 64.5117 71.3093C74.1491 71.8913 78.0003 50.2206 78.0003 50.2206C78.0003 50.2206 77.1622 70.3235 92.8127 67.6022C106.868 65.1588 87.951 3.82236 87.951 3.82236L72.5406 1.53627Z" fill="#00897C"/>
<path d="M30.8022 36.7768C32.6456 35.7281 33.724 34.1551 33.2096 33.2218C32.6952 32.2885 30.7787 32.3933 28.9353 33.4315C27.0919 34.4697 26.011 36.0532 26.5253 36.9839C27.0397 37.9146 28.9588 37.8149 30.8022 36.7768Z" fill="#005950"/>
<path d="M22.8129 15.6854C24.92 15.4731 26.5415 14.448 26.4344 13.3941C26.3274 12.3402 24.5388 11.6586 22.4317 11.8709C20.3246 12.0833 18.7058 13.1136 18.8102 14.1622C18.9147 15.2109 20.7084 15.8978 22.8129 15.6854Z" fill="#005950"/>
<path d="M26.9748 17.0591C27.8077 16.9752 28.45 16.5689 28.4082 16.1547C28.3665 15.7404 27.6563 15.4678 26.8233 15.5517C25.9904 15.6356 25.3507 16.0419 25.3925 16.4561C25.4343 16.8704 26.1419 17.143 26.9748 17.0591Z" fill="#005950"/>
<path d="M38.7387 38.861C39.3288 38.5438 39.6813 38.0194 39.5089 37.7258C39.3366 37.4322 38.7256 37.4637 38.1434 37.7914C37.5611 38.1191 37.2086 38.6329 37.3731 38.9292C37.5376 39.2254 38.1486 39.194 38.7387 38.861Z" fill="#005950"/>
<path d="M41.6994 61.4047C42.5636 60.023 42.7072 58.5523 42.0232 58.1197C41.3391 57.6871 40.0805 58.4553 39.2163 59.8369C38.352 61.2185 38.2058 62.6893 38.8925 63.1218C39.5792 63.5544 40.8325 62.7836 41.6994 61.4047Z" fill="#005950"/>
<path d="M45.073 61.7874C45.3341 61.3627 45.3837 60.9091 45.1748 60.778C44.9659 60.647 44.5769 60.8803 44.3106 61.3024C44.0442 61.7245 43.9998 62.178 44.2113 62.3117C44.4228 62.4454 44.8093 62.2095 45.073 61.7874Z" fill="#005950"/>
<path d="M66.3965 64.4982C66.4983 62.8702 65.9265 61.5069 65.1197 61.4571C64.3129 61.4073 63.5739 62.684 63.4695 64.3121C63.365 65.9401 63.9395 67.3008 64.7463 67.3532C65.5531 67.4057 66.2946 66.121 66.3965 64.4982Z" fill="#005950"/>
<path d="M69.5432 63.2083C69.5746 62.7102 69.3996 62.2907 69.1516 62.275C68.9035 62.2593 68.6764 62.6525 68.645 63.1533C68.6137 63.654 68.7887 64.0708 69.0367 64.0866C69.2848 64.1023 69.5119 63.7117 69.5432 63.2083Z" fill="#005950"/>
<path d="M87.0058 61.6143C87.1076 59.9863 86.5384 58.6256 85.729 58.5732C84.9196 58.5208 84.1833 59.8002 84.0788 61.4282C83.9744 63.0563 84.5488 64.4195 85.3582 64.4693C86.1677 64.5191 86.904 63.2424 87.0058 61.6143Z" fill="#005950"/>
<path d="M76.4499 2.77901C76.4499 2.77901 32.0622 -2.48267 30.7306 8.75116C29.2371 21.2408 53.8043 18.9888 53.8043 18.9888C53.8043 18.9888 31.3233 24.3029 35.9187 32.9911C40.3967 41.4643 56.1047 32.8102 56.1047 32.8102C56.1047 32.8102 39.7935 51.6862 48.1776 55.249C57.4728 59.1972 67.2956 36.9236 67.2956 36.9236C67.2956 36.9236 60.7366 58.1276 70.011 58.6834C77.7319 59.1501 80.8181 41.7868 80.8181 41.7868C80.8181 41.7868 80.1523 57.8969 92.6853 55.7183C103.947 53.7599 88.7896 4.61418 88.7896 4.61418L76.4499 2.77901Z" fill="#006B60"/>
<path d="M48.7885 29.7507C50.3551 28.8751 51.256 27.5354 50.8199 26.7568C50.3839 25.9781 48.7729 26.0568 47.2141 26.9324C45.6553 27.8081 44.7493 29.1477 45.1853 29.9264C45.6213 30.705 47.2324 30.6263 48.7885 29.7507Z" fill="#003B35"/>
<path d="M76.0212 16.5847C78.7367 15.0562 80.3242 12.7151 79.567 11.3571C78.8098 9.99903 75.9899 10.1354 73.2744 11.6638C70.5589 13.1922 68.9714 15.5334 69.7286 16.8914C70.4858 18.2494 73.3057 18.1131 76.0212 16.5847Z" fill="#003B35"/>
<path d="M82.1902 19.2562C82.7646 17.7618 82.6315 16.3147 81.8899 16.0263C81.1484 15.7379 80.0779 16.7184 79.5034 18.2127C78.929 19.7071 79.0622 21.1516 79.8037 21.44C80.5452 21.7284 81.6132 20.7505 82.1902 19.2562Z" fill="#003B35"/>
<path d="M54.8751 44.8907C55.8255 43.3728 55.9848 41.7605 55.2328 41.2833C54.4808 40.8062 53.0996 41.653 52.1492 43.1709C51.1988 44.6889 51.0421 46.3012 51.7941 46.7757C52.5461 47.2502 53.9273 46.4087 54.8751 44.8907Z" fill="#003B35"/>
<path d="M40.704 13.9918C42.4795 13.8135 43.8373 12.9432 43.7563 12.0597C43.6754 11.1762 42.1558 10.5968 40.3829 10.775C38.61 10.9533 37.2496 11.8237 37.328 12.7098C37.4063 13.5959 38.9285 14.1622 40.704 13.9918Z" fill="#003B35"/>
<path d="M71.2176 52.1764C71.5179 51.0569 71.3116 50.0292 70.7554 49.8772C70.1993 49.7251 69.5047 50.5142 69.2071 51.6337C68.9094 52.7531 69.1131 53.7808 69.6692 53.9329C70.2254 54.0849 70.9173 53.2853 71.2176 52.1764Z" fill="#003B35"/>
<path d="M55.1648 29.0297C56.0656 28.5237 56.5904 27.7503 56.3398 27.2994C56.0891 26.8485 55.157 26.8957 54.2509 27.4017C53.3449 27.9076 52.8279 28.681 53.0786 29.1293C53.3293 29.5776 54.2666 29.5357 55.1648 29.0297Z" fill="#003B35"/>
<path d="M47.0967 16.0106C48.1202 15.9083 48.9087 15.4102 48.8591 14.8964C48.8095 14.3825 47.9348 14.0522 46.9113 14.1544C45.8878 14.2567 45.0966 14.7574 45.1462 15.2713C45.1958 15.7851 46.0705 16.1154 47.0967 16.0106Z" fill="#003B35"/>
<path d="M55.8464 50.079C56.3948 49.2034 56.4862 48.27 56.0527 47.9817C55.6193 47.6933 54.8203 48.1966 54.272 49.0723C53.7237 49.9479 53.6323 50.8786 54.0657 51.1539C54.4992 51.4292 55.2981 50.9415 55.8464 50.079Z" fill="#003B35"/>
<path d="M74.1251 46.9776C74.3314 46.3406 74.2426 45.7402 73.9266 45.638C73.6107 45.5357 73.1877 45.9657 72.9814 46.6027C72.7752 47.2398 72.864 47.8402 73.1799 47.9424C73.4958 48.0446 73.9188 47.6121 74.1251 46.9776Z" fill="#003B35"/>
<path d="M86.9396 46.2121C86.7177 45.5855 86.2868 45.1634 85.9735 45.2762C85.6602 45.3889 85.5897 45.9866 85.8116 46.6132C86.0336 47.2398 86.467 47.6619 86.7777 47.5491C87.0884 47.4364 87.1668 46.8387 86.9396 46.2121Z" fill="#003B35"/>
</g>
<defs>
<clipPath id="clip0_402_26919">
<rect width="98" height="119" fill="white" transform="matrix(-1 0 0 1 98 0)"/>
</clipPath>
</defs>
</svg>
