<svg width="182" height="178" viewBox="0 0 182 178" fill="none" xmlns="http://www.w3.org/2000/svg">
<g clip-path="url(#clip0_399_3709)">
<path d="M41.0948 -11.8812C41.0948 -11.8812 175.242 -27.7367 179.31 6.08828C183.826 43.693 109.546 36.9024 109.546 36.9024C109.546 36.9024 177.516 52.8859 163.614 79.0555C150.065 104.552 102.595 78.5109 102.595 78.5109C102.595 78.5109 151.891 135.366 126.554 146.065C98.4627 157.948 68.7698 90.875 68.7698 90.875C68.7698 90.875 88.5971 154.713 60.5697 156.411C37.219 157.82 27.8979 105.545 27.8979 105.545C27.8979 105.545 29.9158 154.041 -7.97712 147.474C-42.0263 141.58 3.77835 -6.37187 3.77835 -6.37187L41.0948 -11.8812Z" fill="#008A7C"/>
<path d="M142.186 73.1297C137.702 70.6312 135.107 66.7875 136.356 64.5453C137.606 62.3031 142.25 62.5273 146.703 65.0578C151.187 67.5562 153.781 71.4 152.532 73.6422C151.283 75.8523 146.67 75.6281 142.186 73.1297Z" fill="#00594F"/>
<path d="M161.533 22.2641C156.44 21.7516 152.5 19.2851 152.756 16.7226C153.012 14.1922 157.336 12.5266 162.461 13.0391C167.554 13.5516 171.494 16.018 171.238 18.5805C170.982 21.1109 166.626 22.7766 161.533 22.2641Z" fill="#00594F"/>
<path d="M151.475 25.5633C149.457 25.3711 147.92 24.3781 148.016 23.3852C148.112 22.3922 149.842 21.7195 151.86 21.9438C153.878 22.1359 155.415 23.1289 155.319 24.1219C155.191 25.1148 153.493 25.7555 151.475 25.5633Z" fill="#00594F"/>
<path d="M122.967 78.1586C121.526 77.3578 120.693 76.1406 121.109 75.4039C121.494 74.6992 122.999 74.7633 124.408 75.5641C125.85 76.3649 126.683 77.5821 126.266 78.3188C125.882 79.0235 124.408 78.9594 122.967 78.1586Z" fill="#00594F"/>
<path d="M115.792 132.548C113.71 129.216 113.358 125.661 114.991 124.636C116.657 123.579 119.7 125.437 121.782 128.768C123.864 132.099 124.216 135.655 122.583 136.68C120.949 137.737 117.906 135.879 115.792 132.548Z" fill="#00594F"/>
<path d="M107.623 133.445C106.983 132.42 106.887 131.33 107.367 131.01C107.88 130.69 108.809 131.266 109.449 132.291C110.09 133.316 110.186 134.405 109.705 134.726C109.193 135.046 108.264 134.47 107.623 133.445Z" fill="#00594F"/>
<path d="M55.9896 139.979C55.7334 136.039 57.1107 132.772 59.0967 132.644C61.0506 132.516 62.8443 135.591 63.1006 139.53C63.3568 143.47 61.9795 146.738 59.9936 146.866C58.0076 146.994 56.2459 143.919 55.9896 139.979Z" fill="#00594F"/>
<path d="M48.3659 136.904C48.3018 135.687 48.7182 134.694 49.3268 134.662C49.9354 134.63 50.4799 135.559 50.544 136.776C50.6081 137.993 50.1916 138.986 49.5831 139.018C48.9745 139.05 48.4299 138.089 48.3659 136.904Z" fill="#00594F"/>
<path d="M6.05215 133.06C5.7959 129.12 7.17324 125.853 9.15918 125.725C11.1131 125.597 12.9068 128.672 13.1631 132.612C13.4193 136.552 12.042 139.819 10.0561 139.947C8.10215 140.043 6.3084 136.968 6.05215 133.06Z" fill="#00594F"/>
<path d="M-1.57163 129.953C-1.63569 128.736 -1.21929 127.743 -0.610694 127.711C-0.00210047 127.679 0.542431 128.608 0.606494 129.825C0.670556 131.042 0.254151 132.035 -0.354443 132.067C-0.931005 132.099 -1.47554 131.17 -1.57163 129.953Z" fill="#00594F"/>
<path d="M31.6463 -8.8703C31.6463 -8.8703 139.143 -21.5547 142.378 5.54377C145.998 35.6531 86.4838 30.2399 86.4838 30.2399C86.4838 30.2399 140.937 43.0524 129.822 64.0328C118.964 84.4688 80.9424 63.5844 80.9424 63.5844C80.9424 63.5844 120.437 109.133 100.129 117.717C77.6112 127.23 53.812 73.5141 53.812 73.5141C53.812 73.5141 69.6995 124.668 47.2456 126.013C28.5393 127.134 21.076 85.2375 21.076 85.2375C21.076 85.2375 22.7096 124.091 -7.68804 118.838C-34.9787 114.098 1.72915 -4.44998 1.72915 -4.44998L31.6463 -8.8703Z" fill="#006B5F"/>
<path d="M98.6233 56.1852C94.8436 54.0711 92.6655 50.836 93.6905 48.9461C94.7475 47.0563 98.6553 47.2485 102.435 49.3625C106.215 51.4766 108.393 54.7118 107.368 56.6016C106.311 58.4914 102.403 58.2992 98.6233 56.1852Z" fill="#003831"/>
<path d="M32.6713 24.4102C26.1049 20.7266 22.2611 15.0891 24.0869 11.7899C25.9127 8.52267 32.7354 8.84299 39.3338 12.5266C45.9322 16.2102 49.744 21.8477 47.9182 25.1469C46.0604 28.4461 39.2377 28.0938 32.6713 24.4102Z" fill="#003831"/>
<path d="M17.713 30.8485C16.3037 27.2289 16.656 23.7696 18.4498 23.0649C20.2435 22.3602 22.838 24.7305 24.2154 28.35C25.6248 31.9696 25.2724 35.4289 23.4787 36.1336C21.7169 36.8383 19.1224 34.468 17.713 30.8485Z" fill="#003831"/>
<path d="M83.8903 92.7008C81.584 89.0492 81.1996 85.1414 83.0254 83.9883C84.8512 82.8352 88.1825 84.8852 90.4887 88.5367C92.795 92.1883 93.1793 96.0961 91.3536 97.2492C89.5278 98.4024 86.1965 96.3524 83.8903 92.7008Z" fill="#003831"/>
<path d="M118.226 18.1641C113.934 17.7477 110.603 15.6336 110.827 13.4875C111.051 11.3414 114.703 9.96409 118.995 10.3805C123.287 10.7969 126.619 12.911 126.394 15.0571C126.17 17.2031 122.519 18.6125 118.226 18.1641Z" fill="#003831"/>
<path d="M44.2983 110.254C43.5616 107.563 44.0741 105.065 45.4194 104.713C46.7648 104.36 48.4304 106.25 49.1671 108.941C49.9038 111.631 49.3913 114.13 48.046 114.482C46.7007 114.834 45.0351 112.945 44.2983 110.254Z" fill="#003831"/>
<path d="M1.12019 105.289C1.24832 102.502 2.49754 100.324 3.87488 100.388C5.25223 100.452 6.27723 102.759 6.1491 105.545C6.02098 108.332 4.77175 110.51 3.39441 110.446C2.01707 110.382 0.992069 108.076 1.12019 105.289Z" fill="#003831"/>
<path d="M83.1839 54.4235C81.0057 53.2063 79.7245 51.3485 80.3331 50.2594C80.9417 49.1703 83.1839 49.2985 85.362 50.5157C87.5401 51.7328 88.8214 53.5907 88.2128 54.6797C87.6042 55.7688 85.362 55.6727 83.1839 54.4235Z" fill="#003831"/>
<path d="M102.723 23.0328C100.257 22.7766 98.335 21.5914 98.4631 20.3422C98.5912 19.093 100.705 18.2922 103.172 18.5485C105.638 18.8047 107.56 19.9899 107.432 21.2391C107.336 22.4883 105.222 23.2891 102.723 23.0328Z" fill="#003831"/>
<path d="M81.5513 105.193C80.238 103.079 80.0138 100.837 81.0388 100.164C82.0958 99.4914 84.0177 100.677 85.363 102.791C86.6763 104.905 86.9005 107.147 85.8755 107.82C84.7864 108.46 82.8646 107.307 81.5513 105.193Z" fill="#003831"/>
<path d="M37.2526 97.7297C36.7401 96.1922 36.9644 94.7508 37.7331 94.4945C38.5019 94.2383 39.5269 95.2953 40.0073 96.8328C40.5198 98.3703 40.2956 99.8117 39.5269 100.068C38.7902 100.324 37.7651 99.2672 37.2526 97.7297Z" fill="#003831"/>
<path d="M6.21273 95.9039C6.75726 94.3984 7.78226 93.3734 8.55101 93.6617C9.31976 93.918 9.47992 95.3594 8.93539 96.8969C8.39085 98.4024 7.36585 99.4274 6.5971 99.1391C5.86038 98.8508 5.6682 97.4094 6.21273 95.9039Z" fill="#003831"/>
</g>
<defs>
<clipPath id="clip0_399_3709">
<rect width="205" height="205" fill="white" transform="translate(-23 -27)"/>
</clipPath>
</defs>
</svg>
