<svg width="174" height="178" viewBox="0 0 174 178" fill="none" xmlns="http://www.w3.org/2000/svg">
<g clip-path="url(#clip0_399_4173)">
<path d="M140.905 -11.8812C140.905 -11.8812 6.75836 -27.7367 2.6904 6.08828C-1.826 43.693 72.4545 36.9024 72.4545 36.9024C72.4545 36.9024 4.48416 52.8859 18.3857 79.0555C31.9349 104.552 79.4052 78.5109 79.4052 78.5109C79.4052 78.5109 30.1092 135.366 55.4459 146.065C83.5373 157.948 113.23 90.875 113.23 90.875C113.23 90.875 93.4029 154.713 121.43 156.411C144.781 157.82 154.102 105.545 154.102 105.545C154.102 105.545 152.084 154.041 189.977 147.474C224.026 141.58 178.222 -6.37187 178.222 -6.37187L140.905 -11.8812Z" fill="#008A7C"/>
<path d="M39.8139 73.1297C44.2983 70.6312 46.8928 66.7875 45.6436 64.5453C44.3944 62.3031 39.7498 62.5273 35.2975 65.0578C30.8131 67.5562 28.2186 71.4 29.4678 73.6422C30.717 75.8523 35.3295 75.6281 39.8139 73.1297Z" fill="#00594F"/>
<path d="M20.4675 22.2641C25.5604 21.7516 29.5003 19.2851 29.244 16.7226C28.9878 14.1922 24.6636 12.5266 19.5386 13.0391C14.4456 13.5516 10.5058 16.018 10.762 18.5805C11.0183 21.1109 15.3745 22.7766 20.4675 22.2641Z" fill="#00594F"/>
<path d="M30.5246 25.5633C32.5426 25.3711 34.0801 24.3781 33.984 23.3852C33.8879 22.3922 32.1582 21.7195 30.1403 21.9438C28.1223 22.1359 26.5848 23.1289 26.6809 24.1219C26.809 25.1148 28.5067 25.7555 30.5246 25.5633Z" fill="#00594F"/>
<path d="M59.033 78.1586C60.4744 77.3578 61.3072 76.1406 60.8908 75.4039C60.5064 74.6992 59.0009 74.7633 57.5916 75.5641C56.1501 76.3649 55.3173 77.5821 55.7337 78.3188C56.1181 79.0235 57.5916 78.9594 59.033 78.1586Z" fill="#00594F"/>
<path d="M66.208 132.548C68.29 129.216 68.6423 125.661 67.0088 124.636C65.3431 123.579 62.3002 125.437 60.2181 128.768C58.1361 132.099 57.7838 135.655 59.4174 136.68C61.0509 137.737 64.0939 135.879 66.208 132.548Z" fill="#00594F"/>
<path d="M74.3766 133.445C75.0173 132.42 75.1134 131.33 74.6329 131.01C74.1204 130.69 73.1915 131.266 72.5509 132.291C71.9102 133.316 71.8141 134.405 72.2946 134.726C72.8071 135.046 73.736 134.47 74.3766 133.445Z" fill="#00594F"/>
<path d="M126.01 139.979C126.267 136.039 124.889 132.772 122.903 132.644C120.949 132.516 119.156 135.591 118.899 139.53C118.643 143.47 120.021 146.738 122.006 146.866C123.992 146.994 125.754 143.919 126.01 139.979Z" fill="#00594F"/>
<path d="M133.634 136.904C133.698 135.687 133.282 134.694 132.673 134.662C132.065 134.63 131.52 135.559 131.456 136.776C131.392 137.993 131.808 138.986 132.417 139.018C133.026 139.05 133.57 138.089 133.634 136.904Z" fill="#00594F"/>
<path d="M175.948 133.06C176.204 129.12 174.827 125.853 172.841 125.725C170.887 125.597 169.093 128.672 168.837 132.612C168.581 136.552 169.958 139.819 171.944 139.947C173.898 140.043 175.692 136.968 175.948 133.06Z" fill="#00594F"/>
<path d="M150.354 -8.8703C150.354 -8.8703 42.8568 -21.5547 39.6216 5.54377C36.0021 35.6531 95.5162 30.2399 95.5162 30.2399C95.5162 30.2399 41.063 43.0524 52.1779 64.0328C63.0365 84.4688 101.058 63.5844 101.058 63.5844C101.058 63.5844 61.563 109.133 81.8709 117.717C104.389 127.23 128.188 73.5141 128.188 73.5141C128.188 73.5141 112.301 124.668 134.754 126.013C153.461 127.134 160.924 85.2375 160.924 85.2375C160.924 85.2375 159.29 124.091 189.688 118.838C216.979 114.098 180.271 -4.44998 180.271 -4.44998L150.354 -8.8703Z" fill="#006B5F"/>
<path d="M83.3767 56.1852C87.1564 54.0711 89.3345 50.836 88.3095 48.9461C87.2525 47.0563 83.3447 47.2485 79.565 49.3625C75.7853 51.4766 73.6072 54.7118 74.6322 56.6016C75.6892 58.4914 79.597 58.2992 83.3767 56.1852Z" fill="#003831"/>
<path d="M149.329 24.4102C155.895 20.7266 159.739 15.0891 157.913 11.7899C156.087 8.52267 149.265 8.84299 142.666 12.5266C136.068 16.2102 132.256 21.8477 134.082 25.1469C135.94 28.4461 142.762 28.0938 149.329 24.4102Z" fill="#003831"/>
<path d="M164.287 30.8485C165.696 27.2289 165.344 23.7696 163.55 23.0649C161.756 22.3602 159.162 24.7305 157.785 28.35C156.375 31.9696 156.728 35.4289 158.521 36.1336C160.283 36.8383 162.878 34.468 164.287 30.8485Z" fill="#003831"/>
<path d="M98.1097 92.7008C100.416 89.0492 100.8 85.1414 98.9746 83.9883C97.1488 82.8352 93.8175 84.8852 91.5113 88.5367C89.205 92.1883 88.8207 96.0961 90.6464 97.2492C92.4722 98.4024 95.8035 96.3524 98.1097 92.7008Z" fill="#003831"/>
<path d="M63.7737 18.1641C68.0659 17.7477 71.3971 15.6336 71.1729 13.4875C70.9487 11.3414 67.2971 9.96409 63.0049 10.3805C58.7127 10.7969 55.3815 12.911 55.6057 15.0571C55.8299 17.2031 59.4815 18.6125 63.7737 18.1641Z" fill="#003831"/>
<path d="M137.702 110.254C138.438 107.563 137.926 105.065 136.581 104.713C135.235 104.36 133.57 106.25 132.833 108.941C132.096 111.631 132.609 114.13 133.954 114.482C135.299 114.834 136.965 112.945 137.702 110.254Z" fill="#003831"/>
<path d="M98.8161 54.4235C100.994 53.2063 102.276 51.3485 101.667 50.2594C101.058 49.1703 98.8161 49.2985 96.638 50.5157C94.4599 51.7328 93.1786 53.5907 93.7872 54.6797C94.3958 55.7688 96.638 55.6727 98.8161 54.4235Z" fill="#003831"/>
<path d="M79.2768 23.0328C81.7432 22.7766 83.665 21.5914 83.5369 20.3422C83.4088 19.093 81.2947 18.2922 78.8283 18.5485C76.3619 18.8047 74.44 19.9899 74.5682 21.2391C74.6643 22.4883 76.7783 23.2891 79.2768 23.0328Z" fill="#003831"/>
<path d="M100.449 105.193C101.762 103.079 101.986 100.837 100.961 100.164C99.9042 99.4914 97.9823 100.677 96.637 102.791C95.3237 104.905 95.0995 107.147 96.1245 107.82C97.2136 108.46 99.1354 107.307 100.449 105.193Z" fill="#003831"/>
<path d="M144.747 97.7297C145.26 96.1922 145.036 94.7508 144.267 94.4945C143.498 94.2383 142.473 95.2953 141.993 96.8328C141.48 98.3703 141.704 99.8117 142.473 100.068C143.21 100.324 144.235 99.2672 144.747 97.7297Z" fill="#003831"/>
<path d="M175.787 95.9039C175.243 94.3984 174.218 93.3734 173.449 93.6617C172.68 93.918 172.52 95.3594 173.065 96.8969C173.609 98.4024 174.634 99.4274 175.403 99.1391C176.14 98.8508 176.332 97.4094 175.787 95.9039Z" fill="#003831"/>
</g>
<defs>
<clipPath id="clip0_399_4173">
<rect width="205" height="205" fill="white" transform="matrix(-1 0 0 1 205 -27)"/>
</clipPath>
</defs>
</svg>
