<svg width="414" height="367" viewBox="0 0 414 367" fill="none" xmlns="http://www.w3.org/2000/svg">
<g clip-path="url(#clip0_399_13299)">
<path d="M307.169 60.84C309.449 62.84 311.709 64.84 313.999 66.75C315.389 67.94 315.749 68.8 315.089 70.57C314.542 71.9234 313.893 73.2337 313.149 74.49C311.099 78.15 310.149 82.17 309.149 86.18C307.719 91.72 306.959 97.47 304.389 102.67C302.749 106.037 299.889 108.654 296.389 109.99C295.753 110.179 295.201 110.58 294.823 111.125C294.445 111.67 294.264 112.328 294.309 112.99C294 116.24 294.24 119.519 295.019 122.69C295.205 123.156 295.267 123.662 295.201 124.16C295.135 124.657 294.942 125.13 294.641 125.531C294.34 125.933 293.94 126.25 293.481 126.453C293.022 126.656 292.519 126.738 292.019 126.69C289.149 126.617 286.289 127.05 283.569 127.97C282.856 128.216 282.085 128.238 281.359 128.033C280.633 127.827 279.987 127.404 279.509 126.82C277.558 124.987 275.512 123.258 273.379 121.64C272.97 121.342 272.671 120.916 272.529 120.43C272.908 120.423 273.287 120.456 273.659 120.53C274.889 120.91 275.949 120.39 277.119 120.15C278.779 119.8 280.049 117.56 282.359 119.37C282.619 117.14 282.879 115.2 283.019 113.24C283.019 112.96 282.469 112.41 282.129 112.37C276.129 111.67 271.929 108.14 268.129 103.9C268.043 103.784 267.946 103.677 267.839 103.58C267.769 103.52 267.659 103.52 267.449 103.46C267.269 103.98 267.079 104.46 266.909 105.04C264.819 111.57 260.249 115.67 254.039 118.11C251.239 119.21 248.359 120.11 245.489 121.03C245.188 121.081 244.914 121.236 244.715 121.468C244.516 121.7 244.404 121.994 244.399 122.3C243.881 125.882 244.38 129.538 245.839 132.85C246.088 133.372 246.2 133.949 246.165 134.526C246.13 135.104 245.95 135.663 245.64 136.151C245.33 136.64 244.902 137.042 244.394 137.319C243.887 137.597 243.318 137.742 242.739 137.74C239.522 137.861 236.356 138.577 233.399 139.85C232.761 140.087 232.11 140.288 231.449 140.45C230.643 140.793 229.753 140.886 228.893 140.716C228.034 140.547 227.245 140.123 226.629 139.5C224.799 137.69 222.719 136.13 220.779 134.43C220.411 134.046 220.076 133.631 219.779 133.19C220.141 133.032 220.526 132.935 220.919 132.9C223.221 133.181 225.547 132.632 227.479 131.35C227.595 131.257 227.742 131.214 227.889 131.23C229.619 131.75 229.889 130.47 230.299 129.33C232.391 123.52 233.758 117.474 234.369 111.33C234.909 105.97 235.709 100.63 236.219 95.26C236.428 93.328 236.341 91.3754 235.959 89.47C235.349 86.56 236.419 84.11 240.569 83.47C246.019 82.63 251.459 81.7 257.129 80.78C256.579 78.96 253.809 78.45 255.659 76.28L252.179 74.89C252.179 74.61 252.249 74.19 252.329 73.46C253.413 73.7457 254.476 74.1066 255.509 74.54C262.419 78.04 266.319 83.79 267.509 91.31C267.852 94.3907 267.969 97.4922 267.859 100.59C267.859 102.19 268.119 102.7 270.559 104.59L273.389 103.81C273.699 101.11 273.959 98.26 274.389 95.43C274.979 91.59 275.759 87.77 276.339 83.93C276.609 82.09 276.979 80.24 275.949 78.38C275.219 77.07 276.179 75.51 277.949 75.19C279.449 74.92 280.459 74.45 280.699 72.82C280.769 72.38 281.329 72.04 281.459 71.59C281.739 70.59 282.819 69.78 282.059 68.52C281.879 68.22 282.279 67.52 282.439 66.98L281.099 65.43C281.599 65.53 281.859 65.5 281.999 65.62C284.489 67.56 286.999 69.43 289.399 71.52C290.02 72.0879 290.455 72.8291 290.65 73.6475C290.844 74.4658 290.788 75.3237 290.489 76.11C288.615 82.2559 287.457 88.598 287.039 95.01C287.044 96.462 287.387 97.8929 288.039 99.19C288.539 100.39 290.309 100.66 291.599 99.58C293.078 98.4825 294.289 97.0635 295.139 95.43C296.504 92.1082 297.595 88.68 298.399 85.18C299.399 80.78 300.029 76.29 300.919 71.85C301.246 70.9289 301.686 70.0522 302.229 69.24C301.729 67.74 301.879 67.74 303.799 67.48C304.713 67.1611 305.481 66.5216 305.959 65.68C306.456 64.7785 306.855 63.8264 307.149 62.84L305.999 60.84H307.169ZM247.619 105.52L248.069 105.94C250.168 104.88 252.196 103.684 254.139 102.36C255.076 101.564 255.693 100.457 255.877 99.2421C256.06 98.0272 255.798 96.7869 255.139 95.75C254.259 94.59 250.989 94.43 249.139 95.51C248.996 95.5926 248.87 95.7035 248.771 95.8358C248.671 95.9681 248.599 96.1192 248.559 96.28C248.229 99.35 247.929 102.43 247.619 105.52Z" fill="#2F6B70"/>
<path d="M177.801 144.98C177.861 146.32 177.961 147.67 177.971 148.98C178.07 149.864 177.837 150.754 177.318 151.476C176.799 152.198 176.03 152.702 175.161 152.89C174.151 153.245 173.091 153.438 172.021 153.46C169.722 153.423 167.453 153.977 165.431 155.07C163.561 156.07 162.001 156.12 160.331 154.43C158.501 152.58 156.331 151.04 154.001 149.1C153.712 150.575 153.528 152.069 153.451 153.57C153.521 157.8 150.891 159.37 147.651 160.02C145.651 160.407 143.69 160.973 141.791 161.71C139.601 162.56 137.871 162.48 136.141 160.64C134.508 159.104 132.792 157.658 131.001 156.31C130.576 155.878 130.179 155.421 129.811 154.94C130.57 155.054 131.346 154.992 132.078 154.758C132.81 154.524 133.478 154.124 134.031 153.59C135.031 152.75 136.231 151.8 137.841 152.33C138.048 152.338 138.255 152.292 138.439 152.195C138.623 152.099 138.779 151.955 138.891 151.78C141.741 143.57 146.171 136.08 149.641 128.16C149.871 127.63 150.061 127.09 150.301 126.47C148.771 125.87 146.961 127.47 145.481 125.62L147.671 124.37C147.671 120.42 149.881 117.14 151.861 113.75C151.933 113.634 152.032 113.536 152.148 113.463C152.264 113.391 152.394 113.345 152.531 113.33C153.841 113.39 153.891 112.56 153.871 111.6C153.784 110.53 153.807 109.455 153.941 108.39C154.13 107.151 154.703 106.003 155.578 105.106C156.453 104.21 157.587 103.61 158.821 103.39C161.681 102.8 164.561 102.39 167.441 101.89C167.961 101.8 168.441 101.66 169.011 101.6C169.194 101.605 169.376 101.57 169.545 101.497C169.713 101.424 169.863 101.315 169.985 101.178C170.107 101.04 170.198 100.878 170.25 100.703C170.303 100.527 170.317 100.342 170.291 100.16C170.292 99.574 170.339 98.9889 170.431 98.41C170.431 98.09 170.541 97.65 170.761 97.49C171.441 96.99 173.051 97.25 172.061 95.49C171.703 94.5973 171.457 93.6634 171.331 92.71C171.75 92.8525 172.15 93.0474 172.521 93.29C174.791 95.12 177.031 96.98 179.291 98.83C180.841 100.11 180.931 101.7 180.291 103.46C178.787 107.17 178.105 111.161 178.291 115.16C178.531 118.31 179.141 121.46 179.071 124.6C178.941 129.89 178.401 135.17 178.071 140.46C178.003 141.124 177.983 141.793 178.011 142.46C178.081 143.46 178.821 143.73 179.721 143.46C181.071 142.96 182.27 142.12 183.201 141.02C184.131 140.14 185.541 139.69 186.451 138.59C186.531 138.49 187.331 139 188.151 139.39C189.054 136.934 189.799 134.422 190.381 131.87C191.191 127.14 191.651 122.35 192.221 117.58C192.701 113.53 193.221 109.48 193.541 105.41C193.711 102.95 193.421 100.46 193.381 97.98C193.381 95.04 194.081 94.07 197.001 93.46C199.281 92.97 201.621 92.76 203.891 92.24C207.191 91.48 210.451 90.56 213.891 89.69C213.321 88.69 211.491 87.92 213.101 86.24L208.921 84.43C208.921 84.32 208.971 84.21 208.991 84.1C209.622 84.0397 210.259 84.0397 210.891 84.1C217.471 85.43 223.311 92.99 223.781 98.32C224.246 101.969 224.503 105.642 224.551 109.32C224.393 114.317 222.711 119.146 219.731 123.16C216.961 127.04 212.821 128.72 208.501 130.08C206.971 130.56 205.421 130.96 203.891 131.44C201.891 132.06 201.031 132.99 201.171 135.04C201.364 137.304 201.759 139.546 202.351 141.74C203.451 146.02 203.021 146.83 198.741 147.82C195.101 148.65 191.481 149.53 187.851 150.39C185.901 150.85 184.231 150.71 182.761 148.98C181.337 147.468 179.824 146.042 178.231 144.71L177.801 144.98ZM157.801 130.47L158.301 130.87C160.917 130.8 163.47 130.052 165.711 128.7C165.992 128.441 166.161 128.082 166.181 127.7C166.581 124.13 167.011 120.56 167.271 116.97C167.341 115.97 167.381 114.47 166.081 114.09C164.781 113.71 163.911 114.99 163.491 116.01C161.531 120.8 159.681 125.65 157.801 130.43V130.47ZM203.801 116.03C204.368 115.907 204.929 115.753 205.481 115.57C206.691 115.07 207.901 114.57 209.071 114C210.692 113.175 211.978 111.815 212.711 110.15C213.037 109.415 213.152 108.604 213.043 107.807C212.933 107.01 212.603 106.26 212.091 105.64C210.811 104.28 205.481 105.43 205.091 107.26C204.531 110.09 204.231 112.96 203.791 116.03H203.801ZM163.531 141.12C160.651 140.6 155.831 142.18 154.791 143.89C154.201 144.89 154.131 148.02 154.691 148.62C155.931 147.88 156.751 146.41 158.601 146.68C159.111 146.75 159.711 145.84 160.331 145.49C160.721 145.262 161.169 145.154 161.621 145.18C161.921 145.18 162.201 145.58 162.621 145.93C162.961 144.23 163.231 142.72 163.531 141.12Z" fill="#2F6B70"/>
<path d="M130.86 106.07L128.77 103.77L129.01 103.32C129.551 103.4 130.072 103.576 130.55 103.84C132.97 105.84 135.38 107.94 137.7 110.09C138.198 110.537 138.55 111.122 138.714 111.77C138.878 112.418 138.845 113.1 138.62 113.73C137.41 117.52 136.18 121.3 134.82 125.04C131.783 133.235 129.513 141.695 128.04 150.31C127.494 154.017 127.286 157.766 127.42 161.51C127.51 165.02 125.42 166.62 122.81 167.26C120.2 167.9 117.81 168.71 115.29 169.43C114.257 169.84 113.169 170.093 112.06 170.18C111.032 170.077 110.049 169.704 109.21 169.1C107.05 167.61 104.98 165.97 102.89 164.38C102.44 164.03 102.05 163.6 101.63 163.2L101.9 162.69L103.9 163.22C104.707 163.001 105.499 162.73 106.27 162.41C106.89 162.11 107.75 161.75 107.93 161.22C108.46 159.63 109.21 159.94 110.18 160.7C110.383 160.833 110.597 160.947 110.82 161.04L114.9 150.43C112.36 150.88 110.18 151.2 108.04 151.69C107.04 151.93 106.09 152.59 105.04 152.87C102.21 153.66 101.41 155.76 101.27 158.36C101.07 162.05 100.84 165.74 100.68 169.44C100.58 171.89 99.8905 172.91 97.5005 173.15C94.6416 173.428 91.8776 174.326 89.4005 175.78C89.1905 175.9 88.9605 175.98 88.7505 176.09C85.4505 177.97 82.4405 177.57 79.6505 175.04C77.8105 173.37 75.9105 171.77 74.1205 170.04C73.7805 169.71 73.8505 168.95 73.7305 168.38C74.3046 168.384 74.8759 168.461 75.4305 168.61C75.8733 168.814 76.2869 169.076 76.6605 169.39L79.1905 168.66C80.1905 168.38 81.1905 168.25 81.2905 166.81C81.2905 166.56 82.1005 166.14 82.5405 166.14C82.9805 166.14 83.4805 166.55 84.1805 166.89C85.0005 164.42 85.8605 162.06 86.5605 159.65C88.8605 151.73 91.3505 143.86 93.2705 135.85C94.2705 131.64 94.2705 127.18 94.7105 122.85C94.7579 121.981 94.8818 121.117 95.0805 120.27C95.206 119.795 95.4848 119.375 95.8736 119.075C96.2623 118.775 96.7393 118.611 97.2305 118.61C98.4805 118.49 99.7205 118.22 100.97 118.06C101.72 117.96 101.97 117.66 101.77 116.89C101.704 116.707 101.675 116.512 101.684 116.318C101.693 116.123 101.741 115.933 101.825 115.757C101.909 115.581 102.027 115.423 102.172 115.293C102.317 115.164 102.486 115.064 102.67 115C103.67 114.54 103.81 112.15 103.13 111.3C102.78 110.86 102.5 110.36 102.19 109.89L102.49 109.58C102.795 109.607 103.091 109.696 103.36 109.84C105.87 112 108.36 114.15 110.82 116.39C111.253 116.904 111.481 117.559 111.46 118.23C111.46 122.97 110.11 127.44 108.75 131.9C108.21 133.67 107.59 135.41 106.96 137.14C106.63 138.05 106.81 138.41 107.84 138.58C111.057 139.288 114.422 138.764 117.27 137.11C117.734 136.854 118.132 136.494 118.434 136.059C118.736 135.623 118.933 135.124 119.01 134.6C120.11 128.6 121.36 122.6 122.36 116.6C122.438 115.556 122.882 114.573 123.614 113.825C124.346 113.077 125.319 112.611 126.36 112.51C126.787 112.457 127.192 112.292 127.535 112.032C127.877 111.772 128.145 111.427 128.31 111.03C128.88 110.166 129.552 109.374 130.31 108.67C130.29 107.91 128.94 106.75 130.86 106.07Z" fill="#2F6B70"/>
<path d="M98.9804 131.81C103.19 132.81 106.98 132.55 110.35 129.93C110.791 129.427 111.061 128.796 111.12 128.13C112.31 121.98 113.49 115.84 114.6 109.68C114.676 108.85 115.019 108.066 115.578 107.448C116.137 106.829 116.882 106.409 117.7 106.25C118.5 106.06 119.31 105.89 120.11 105.68C122.31 105.12 124.51 104.57 126.7 103.95C127.86 103.62 129.01 102.95 130.13 103.95C130.592 104.397 130.914 104.969 131.057 105.595C131.201 106.222 131.16 106.876 130.94 107.48C130.288 110.117 129.477 112.711 128.51 115.25C124.746 124.529 122.013 134.194 120.36 144.07C119.809 147.827 119.601 151.626 119.74 155.42C119.74 158.42 117.96 160.34 115.09 161.02C112.55 161.61 110.09 162.51 107.56 163.18C106.175 163.594 104.745 163.843 103.3 163.92C102.979 163.946 102.656 163.895 102.36 163.769C102.063 163.644 101.8 163.449 101.595 163.2C101.39 162.952 101.248 162.658 101.181 162.342C101.114 162.027 101.124 161.7 101.21 161.39C101.415 160.028 101.75 158.688 102.21 157.39C103.57 153.49 105.02 149.62 106.44 145.74C106.57 145.39 106.68 145.03 106.86 144.5C104.652 144.309 102.429 144.609 100.35 145.38C98.572 146.04 96.8469 146.836 95.1904 147.76C94.9311 147.915 94.7078 148.124 94.5354 148.372C94.363 148.621 94.2454 148.903 94.1904 149.2C93.7404 153.84 93.3404 158.49 93.0204 163.14C92.8504 165.59 92.1804 166.58 89.8004 166.82C87.0028 167.161 84.2913 168.011 81.8004 169.33C80.2154 170.159 78.495 170.697 76.7204 170.92C74.2004 171.19 72.8604 169.29 73.5804 166.86C73.8688 165.977 74.2026 165.109 74.5804 164.26C79.0589 153.447 82.6117 142.274 85.2004 130.86C86.3792 126.084 86.9537 121.179 86.9104 116.26C86.8994 115.435 87.0106 114.613 87.2404 113.82C87.3977 113.336 87.694 112.909 88.0923 112.593C88.4907 112.276 88.9735 112.084 89.4804 112.04C92.3604 111.41 95.1904 110.57 98.0504 109.87C99.2303 109.481 100.459 109.259 101.7 109.21C103.22 109.28 103.84 110.21 103.87 111.77C103.95 116.28 102.63 120.52 101.39 124.77C100.67 127.09 99.8304 129.32 98.9804 131.81Z" fill="white"/>
<path d="M155.72 134.79C152.34 134.28 149.72 135.58 147.29 137.37C147.033 137.66 146.891 138.033 146.89 138.42C146.47 141.8 146.05 145.18 145.67 148.56C145.38 151.24 143.5 153.04 140.49 153.73C138.13 154.28 135.82 155.03 133.49 155.67C132.892 155.869 132.276 156.007 131.65 156.08C130.05 156.19 129.41 155.66 129.59 154.08C129.753 151.327 130.206 148.598 130.94 145.94C132.467 141.637 134.237 137.423 136.24 133.32C139.48 126.52 143.24 119.93 144.88 112.5C145.477 109.5 145.835 106.457 145.95 103.4C146.13 100.07 147.6 97.76 150.84 97C153.77 96.31 156.84 96.08 159.74 95.41C163.05 94.66 166.3 93.6 169.59 92.76C171.87 92.18 173.25 93.36 172.92 95.76C172.621 97.3326 172.193 98.8778 171.64 100.38C170.526 104.229 170.304 108.282 170.99 112.23C171.611 117.702 171.628 123.225 171.04 128.7C170.63 133.25 170.36 137.83 170.34 142.39C170.34 145.39 168.68 146.46 166.6 146.99C166.135 147.143 165.649 147.224 165.16 147.23C162.05 147.07 159.26 148.16 156.46 149.33C155.56 149.618 154.582 149.538 153.74 149.11C152.74 148.59 153.01 147.47 153.24 146.47C154.08 142.58 154.88 138.73 155.72 134.79ZM150.15 124.43C152.81 124.378 155.416 123.663 157.73 122.35C157.878 122.24 158.001 122.1 158.092 121.94C158.183 121.78 158.24 121.603 158.26 121.42C158.67 118 159.06 114.58 159.38 111.15C159.412 110.373 159.314 109.595 159.09 108.85C158.79 107.67 157.88 107.35 157.04 108.23C156.191 109.096 155.513 110.114 155.04 111.23C153.34 115.43 151.83 119.81 150.15 124.43Z" fill="white"/>
<path d="M260.53 90.8701C260.3 100.69 255.96 108.07 246.36 111.87C243.51 112.99 240.57 113.87 237.69 114.87C237.32 115 236.82 115.42 236.79 115.75C236.262 119.083 236.631 122.497 237.86 125.64C239.38 129.18 238.16 131.25 234.34 131.55C231.385 131.773 228.481 132.447 225.73 133.55C224.551 134.009 223.328 134.344 222.08 134.55C220.08 134.92 218.78 133.77 219.08 131.76C219.328 130.183 219.796 128.648 220.47 127.2C223.819 120.028 225.871 112.318 226.53 104.43C227.09 99.1101 227.87 93.8201 228.39 88.5001C228.508 86.7049 228.411 84.9021 228.1 83.1301C227.56 79.4801 228.99 77.4501 232.69 76.9801C234.96 76.7001 237.26 76.6201 239.5 76.1901C242.6 75.5901 245.63 74.6901 248.72 74.0301C252.65 73.1801 254.94 74.1801 257.2 77.5601C258.901 80.2461 259.93 83.3023 260.2 86.4701C260.31 87.9601 260.4 89.4301 260.53 90.8701ZM239.93 99.4801C241.87 98.4801 243.61 97.6701 245.29 96.7501C246.092 96.2811 246.763 95.6174 247.24 94.8202C247.717 94.0231 247.986 93.1185 248.02 92.1901C248.21 90.5601 247.24 88.6701 245.94 88.6401C244.401 88.702 242.873 88.9232 241.38 89.3001C241.16 89.3001 240.89 89.7901 240.86 90.0801C240.53 93.1001 240.24 96.1301 239.92 99.4801H239.93Z" fill="white"/>
<path d="M217.05 100.73C217.113 105.377 216.024 109.967 213.88 114.09C210.94 119.9 205.77 122.51 199.88 124.15C198.66 124.49 197.44 124.83 196.24 125.21C194.24 125.85 193.46 126.63 193.47 128.76C193.543 130.404 193.771 132.038 194.15 133.64C194.43 135.02 194.89 136.36 195.24 137.72C195.346 137.996 195.394 138.292 195.381 138.587C195.368 138.883 195.293 139.173 195.163 139.438C195.032 139.704 194.849 139.94 194.623 140.131C194.397 140.322 194.134 140.465 193.85 140.55C192.26 141.1 190.59 141.4 188.96 141.83C186.05 142.6 183.15 143.39 180.25 144.17C179.873 144.267 179.489 144.331 179.1 144.36C176.77 144.53 176.1 143.91 176.76 141.75C177.564 139.049 178.566 136.412 179.76 133.86C182.25 128.63 183.08 123.03 183.76 117.38C184.32 112.45 184.96 107.53 185.35 102.6C185.61 99.36 185.54 96.1 185.48 92.85C185.4 88.44 186.03 87.72 190.37 86.85C194.89 85.95 199.37 84.78 203.88 83.85C210.09 82.59 213.93 84.96 215.7 91.05C216.051 92.1654 216.318 93.3052 216.5 94.46C216.73 96.55 216.86 98.64 217.05 100.73ZM196.1 109.68C197.64 109.08 198.81 108.63 199.98 108.16C202.06 107.387 203.766 105.849 204.75 103.86C205.61 102.15 205.02 99.63 203.61 98.86C202.56 98.32 198.01 99.52 197.52 100.47C197.438 100.648 197.381 100.836 197.35 101.03C196.95 103.8 196.53 106.54 196.1 109.68Z" fill="white"/>
<path d="M282.43 120.23C280.82 120.55 279.21 120.86 277.61 121.23C276.589 121.526 275.545 121.74 274.49 121.87C272.01 121.99 271.19 120.58 272.15 118.32C273.089 116.142 273.9 113.912 274.58 111.64C274.872 110.216 275.052 108.772 275.12 107.32C275.23 106.49 274.84 106.15 274.06 106.12C273.82 106.12 273.57 106.12 273.33 106.07C268.33 105.46 266.42 103.52 265.8 98.55C265.3 94.55 266.18 90.69 266.8 86.8C267.45 82.72 268.08 78.63 268.64 74.53C268.654 73.9068 268.499 73.2916 268.19 72.75C267.34 70.94 267.93 69.09 269.9 68.75C272.89 68.1015 275.791 67.0942 278.54 65.75C279.102 65.4423 279.745 65.3129 280.383 65.3789C281.02 65.445 281.623 65.7035 282.11 66.12C282.597 66.6109 282.922 67.239 283.042 67.92C283.162 68.601 283.07 69.3024 282.78 69.93C280.951 75.947 279.82 82.1545 279.41 88.43C279.345 89.4416 279.456 90.4568 279.74 91.43C280.45 93.96 282.23 94.59 284.2 92.84C285.572 91.7464 286.662 90.3407 287.38 88.74C288.751 84.9011 289.893 80.9842 290.8 77.01C291.71 73.18 292.26 69.26 292.97 65.39C293.026 64.745 293.319 64.1434 293.791 63.7006C294.264 63.2578 294.883 63.0047 295.53 62.99C298.796 62.9014 302.016 62.1957 305.02 60.91C306.79 60.12 307.96 61.06 307.66 62.99C307.481 64.2379 307.063 65.4398 306.43 66.53C303.82 70.75 302.55 75.42 301.43 80.18C300.43 84.58 299.35 88.99 298.05 93.33C297.349 95.7834 296.077 98.0363 294.34 99.9045C292.602 101.773 290.446 103.204 288.05 104.08C287.632 104.216 287.271 104.485 287.021 104.846C286.772 105.208 286.649 105.641 286.67 106.08C286.271 109.571 286.491 113.105 287.32 116.52C287.89 118.64 286.56 120.22 284.32 120.52C283.687 120.56 283.053 120.56 282.42 120.52C282.46 120.43 282.45 120.33 282.43 120.23Z" fill="white"/>
<path d="M58.0508 292.43C58.5131 292.715 58.9424 293.05 59.3308 293.43C61.4708 296.22 63.5608 299.04 65.6708 301.84C65.9649 302.239 66.3677 302.544 66.8308 302.72C66.6608 302.35 66.5108 301.96 66.3208 301.6C62.8653 295.299 60.8631 288.305 60.4608 281.13C59.3708 261.01 65.9308 243.72 79.9508 229.27C83.4313 225.833 87.5756 223.142 92.1308 221.36C92.6108 221.17 93.0608 220.93 93.5708 220.69C91.5708 220.03 89.6408 219.69 88.0308 218.76C84.8567 216.866 81.7887 214.8 78.8408 212.57C76.046 210.381 74.1586 207.236 73.5408 203.74C73.4744 203.208 73.6061 202.671 73.9108 202.23C75.3239 206.219 77.9192 209.683 81.3508 212.16C81.2208 211.82 81.1108 211.47 80.9608 211.16C79.6574 208.33 79.1351 205.202 79.4481 202.102C79.7611 199.002 80.898 196.042 82.7408 193.53C85.7408 189.13 89.7408 185.53 95.0808 184.53C97.9808 183.95 101.171 184.61 104.201 184.95C109.521 185.56 114.801 186.62 120.131 186.95C124.791 187.26 129.491 186.8 133.781 184.53L135.341 183.69L133.531 180.74C133.281 180.32 132.771 179.8 132.871 179.48C133.371 177.84 132.381 176.89 131.461 175.86C131.341 175.72 131.391 175.43 131.351 175.08C131.661 175.15 131.871 175.14 131.991 175.24C134.101 176.88 136.211 178.52 138.281 180.24C138.806 180.66 139.259 181.163 139.621 181.73C141.471 184.86 143.221 188.05 145.131 191.15C145.681 192.05 145.971 192.75 145.201 193.58C144.323 194.665 143.349 195.669 142.291 196.58C139.079 198.978 135.423 200.712 131.534 201.68C127.645 202.648 123.602 202.832 119.641 202.22C114.491 201.54 109.381 200.56 104.221 199.92C100.821 199.51 97.4308 199.7 95.1108 202.86C93.5608 204.99 93.6808 206.94 95.3308 209C97.1308 211.25 99.6908 211.84 102.331 212.24C103.921 212.48 105.551 212.47 107.181 212.58V204.78C107.381 204.92 107.711 205.13 108.001 205.37C109.821 206.92 111.561 208.57 113.481 209.99C114.013 210.313 114.459 210.76 114.781 211.293C115.104 211.826 115.292 212.429 115.331 213.05C115.637 216.79 116.476 220.467 117.821 223.97C118.481 225.91 118.381 225.97 116.401 226.58C109.251 228.7 102.401 231.38 96.9108 236.71C89.8408 243.54 85.7208 251.99 83.2108 261.3C81.2108 268.89 80.4608 276.62 82.9808 284.21C86.1408 293.74 92.4708 300.21 102.601 302C107.101 302.82 111.471 301.68 115.671 299.82C127.531 294.58 135.191 285.82 137.931 273.08C138.931 268.33 139.301 263.54 137.571 258.82C135.841 254.1 132.451 252.28 127.571 253.57C119.971 255.57 109.331 265.57 110.771 277.73C110.951 279.33 111.311 280.9 111.591 282.48C111.657 282.7 111.677 282.931 111.649 283.159C111.621 283.387 111.547 283.607 111.431 283.805C111.314 284.003 111.158 284.175 110.973 284.31C110.787 284.445 110.575 284.54 110.351 284.59C104.061 286.94 96.7908 284.88 93.8608 277.83C90.1308 268.83 93.2708 258.66 100.051 252.35C105.242 247.539 111.913 244.633 118.971 244.11C124.17 243.748 129.395 243.983 134.541 244.81C130.723 241.981 126.334 240.019 121.681 239.06L121.741 238.51C122.29 238.398 122.851 238.355 123.411 238.38C128.996 239.16 134.229 241.563 138.461 245.29C144.171 250.44 148.461 256.6 149.811 264.29C151.811 276.09 150.321 287.45 144.441 298.08C141.491 303.64 137.474 308.564 132.619 312.57C127.765 316.577 122.169 319.587 116.151 321.43C113.311 322.34 110.251 322.57 107.291 323.12C106.881 323.2 106.471 323.36 106.061 323.47H100.791C99.5008 323.26 98.2208 323.02 96.9308 322.84C86.5308 321.42 77.7208 316.62 70.1108 309.66C65.6621 305.405 61.9456 300.445 59.1108 294.98C58.7908 294.41 58.4208 293.87 58.1108 293.32L58.0508 292.43Z" fill="#2F6B70"/>
<path d="M259.131 137.02C259.563 136.934 260.008 136.934 260.441 137.02C263.527 138.308 266.14 140.519 267.921 143.35C268.889 145.257 269.451 147.344 269.571 149.48C270.041 154.56 270.261 159.67 270.481 164.78C270.531 165.88 270.751 166.34 271.951 166.29C273.951 166.2 276.041 166.29 278.091 166.29C278.528 166.31 278.967 166.263 279.391 166.15C283.471 164.84 287.631 163.73 291.591 162.15C297.751 159.64 302.591 155.59 304.421 148.88C304.966 146.312 305.301 143.703 305.421 141.08C305.485 139.851 305.485 138.619 305.421 137.39C305.909 137.595 306.374 137.85 306.811 138.15C308.401 139.43 309.901 140.85 311.541 142.07C312.498 142.751 313.244 143.688 313.692 144.775C314.139 145.861 314.271 147.052 314.071 148.21C313.501 153.63 312.071 158.68 308.211 162.83C305.556 165.49 302.425 167.627 298.981 169.13C293.07 172.072 286.581 173.67 279.981 173.81C276.781 173.87 273.571 173.81 270.211 173.81C269.991 176.43 269.821 178.94 269.571 181.44C268.571 191.69 267.571 201.96 266.381 212.2C265.591 218.91 264.381 225.57 263.511 232.27C263.408 233.968 263.465 235.672 263.681 237.36C263.8 237.761 263.971 238.144 264.191 238.5C265.781 235.85 267.191 233.43 268.661 231.01C268.997 230.362 269.382 229.741 269.811 229.15C269.977 228.89 270.206 228.676 270.477 228.527C270.748 228.379 271.052 228.301 271.361 228.301C271.669 228.301 271.973 228.379 272.244 228.527C272.515 228.676 272.744 228.89 272.911 229.15C273.342 229.68 273.742 230.234 274.111 230.81C274.461 231.32 274.781 231.81 275.201 232.52C275.753 231.841 276.154 231.051 276.377 230.205C276.599 229.358 276.638 228.473 276.491 227.61C275.491 221.67 276.491 215.88 278.201 210.18C279.811 204.74 281.781 199.47 285.201 194.84C287.861 191.22 290.981 188.23 295.551 187.2C295.758 187.126 295.958 187.036 296.151 186.93C295.921 185.69 293.401 185.32 295.151 183.39L290.531 181.43C290.531 181.26 290.581 181.09 290.601 180.93C291.49 180.89 292.381 180.937 293.261 181.07C296.077 181.756 298.641 183.23 300.651 185.32C306.651 191.62 309.131 198.99 307.531 207.69C306.431 213.69 304.451 219.15 300.581 223.87C298.371 226.56 295.881 228.87 292.061 229.16C292.283 230.066 292.724 230.904 293.345 231.601C293.965 232.299 294.746 232.834 295.621 233.16C295.931 233.29 296.621 232.84 296.991 232.49C304.671 225.05 308.451 215.33 312.571 205.8C312.671 205.58 312.741 205.34 312.851 205.12C315.111 201.12 315.201 196.76 314.751 192.61C309.691 190.53 305.211 187.89 302.131 183.31C301.662 182.47 301.27 181.59 300.961 180.68L301.551 180.29L304.221 183C304.921 182 305.741 181.57 306.511 182.19C307.191 179.56 307.771 176.86 308.621 174.26C309.071 172.89 309.621 171.34 311.681 171.42C311.881 171.42 312.241 170.61 312.311 170.15C312.591 168.3 312.521 166.38 314.031 164.91C314.361 164.59 314.271 163.83 314.411 163.05C315.021 163.52 315.541 163.91 316.051 164.33C317.901 165.84 319.731 167.38 321.591 168.87C321.986 169.103 322.28 169.474 322.417 169.912C322.554 170.35 322.523 170.823 322.331 171.24C321.696 173.022 321.201 174.851 320.851 176.71C320.371 179.22 320.601 179.44 323.291 180.03C323.287 179.658 323.321 179.286 323.391 178.92C323.513 178.596 323.667 178.284 323.851 177.99C324.176 178.164 324.484 178.368 324.771 178.6C324.931 178.75 324.961 179.04 325.041 179.27C325.741 181.37 325.881 181.5 328.041 180.91C331.261 180.01 334.471 179.02 337.771 178.05C337.351 177.05 337.191 176.13 338.771 175.66L334.071 172.43L334.231 172.05C334.75 172.135 335.259 172.272 335.751 172.46C340.361 174.7 344.301 177.65 346.651 182.4C347.972 185.154 348.304 188.28 347.591 191.25C346.231 197.62 344.441 203.89 343.021 210.25C342.486 213.012 342.152 215.81 342.021 218.62C342.1 219.689 342.325 220.742 342.691 221.75C345.951 219.31 349.751 208.36 348.531 204.75C349.151 205.17 349.531 205.39 349.871 205.66C351.871 207.27 353.871 208.81 355.701 210.54C356.039 210.858 356.311 211.24 356.502 211.664C356.692 212.088 356.797 212.545 356.811 213.01C356.331 218.43 355.861 223.87 352.151 228.36C349.041 232.11 345.151 233.36 340.431 232.75C333.041 231.85 328.431 227.22 324.771 221.27C324.333 220.712 324.048 220.05 323.943 219.349C323.838 218.648 323.916 217.932 324.171 217.27C324.359 217.683 324.579 218.081 324.831 218.46C326.311 220.38 327.771 222.32 329.351 224.15C329.691 224.54 330.511 224.5 331.351 224.73C330.981 222.91 330.641 221.45 330.351 219.98C329.411 214.57 330.621 209.33 331.651 204.08C332.531 199.6 333.421 195.08 334.241 190.62C334.405 189.909 334.342 189.164 334.061 188.49C333.771 187.92 332.951 187.18 332.441 187.24C330.915 187.491 329.411 187.855 327.941 188.33C327.811 188.33 327.611 188.47 327.591 188.57C327.331 190.22 326.051 191.5 325.661 192.93C324.531 197.06 324.091 201.38 323.131 205.57C320.671 216.37 317.041 226.7 310.021 235.57C306.471 240.04 302.231 243.48 296.421 244.51C293.651 244.99 290.811 245.17 288.221 244.07C284.961 242.7 281.871 240.94 278.721 239.33C278.304 239.057 277.907 238.756 277.531 238.43C276.921 239.72 276.401 240.91 275.791 242.06C274.21 245.11 271.845 247.685 268.941 249.52C267.077 250.752 264.913 251.454 262.681 251.549C260.448 251.644 258.232 251.129 256.271 250.06C252.312 248.211 248.914 245.347 246.421 241.76C246.181 241.41 245.901 241.1 245.421 240.54C245.161 242.08 245.011 243.37 244.731 244.63C244.063 247.686 242.694 250.545 240.731 252.98C236.731 257.86 229.631 258.1 225.501 256.13C221.741 254.34 218.241 252.13 215.641 248.43C215.211 249.43 214.871 250.12 214.561 250.86C213.107 254.725 211.073 258.346 208.531 261.6C204.811 266.09 199.121 268.2 194.641 266.21C191.602 264.687 188.656 262.984 185.821 261.11C185.49 260.872 185.175 260.611 184.881 260.33C184.541 260.92 184.221 261.43 183.941 261.97C181.958 265.903 179.127 269.346 175.651 272.05C170.871 275.66 164.141 275.24 159.651 272.16C155.969 269.815 152.947 266.569 150.871 262.73C150.651 262.28 150.501 261.8 150.311 261.33L150.761 260.97L156.981 267.11C156.19 264.926 155.522 262.699 154.981 260.44C152.581 247.2 155.061 234.96 162.981 224.02C166.121 219.69 170.271 216.72 175.981 216.63C176.051 216.63 176.121 216.52 176.541 216.17L168.111 210.86C168.841 210.18 169.771 210.42 170.651 210.74C174.736 212.249 178.38 214.755 181.251 218.03C184.571 221.7 187.251 225.67 188.251 230.58C188.251 230.74 188.431 230.88 188.761 231.36C189.161 228.95 189.561 226.89 189.841 224.82C190.291 221.41 190.621 217.97 191.111 214.56C191.171 214.14 191.821 213.63 192.291 213.49C192.951 213.38 193.623 213.353 194.291 213.41C196.441 213.3 197.361 212.05 197.211 209.91C197.314 208.985 197.567 208.083 197.961 207.24V203.5C198.392 203.592 198.807 203.75 199.191 203.97C201.394 205.653 203.504 207.456 205.511 209.37C206.112 210.284 206.351 211.389 206.181 212.47C205.641 219.98 202.651 226.88 200.681 234.03C199.151 239.57 197.551 245.09 197.521 250.9C197.521 252.44 197.461 254.01 198.841 255.49C199.911 253.77 200.971 252.22 201.841 250.58C205.011 244.86 206.841 238.58 208.481 232.36C209.961 226.86 211.241 221.31 212.611 215.78L212.791 215.08C213.481 212.58 214.621 212.19 216.881 214.08C216.75 213.349 216.573 212.628 216.351 211.92C213.221 204.07 216.671 195.16 223.101 190.54C225.101 189.09 225.441 189.14 227.041 191.09C228.529 193.093 230.45 194.733 232.661 195.89C234.291 196.65 234.221 197.07 232.851 198.33C231.4 199.625 230.062 201.04 228.851 202.56C228.246 203.341 227.879 204.28 227.793 205.264C227.708 206.249 227.909 207.237 228.371 208.11C229.207 209.806 230.212 211.414 231.371 212.91C234.161 216.61 237.151 220.15 239.851 223.91C242.109 227.264 243.764 230.986 244.741 234.91C245.321 236.91 246.821 238.71 248.061 240.49C248.925 241.698 249.987 242.753 251.201 243.61C251.131 243.33 251.061 243.06 251.001 242.78C250.222 239.631 249.628 236.438 249.221 233.22C248.961 229.087 248.961 224.943 249.221 220.81C249.431 216.54 249.981 212.28 250.431 208.03C250.851 203.97 251.331 199.91 251.811 195.86C252.341 191.41 252.911 186.98 253.431 182.54C253.791 179.44 254.091 176.35 254.431 173.25C254.521 172.44 254.281 172.06 253.361 171.93C247.591 171.11 241.831 170.2 236.051 169.36C230.761 168.6 225.481 167.75 220.161 167.18C209.741 166.07 199.301 165.09 188.931 167.61C185.118 168.519 181.59 170.357 178.661 172.96C172.321 178.57 173.391 188.74 179.661 193.64C180.795 194.564 181.976 195.429 183.201 196.23C184.361 196.96 184.301 197.42 183.261 198.23C177.648 202.55 171.214 205.68 164.351 207.43C162.241 207.99 160.521 207.91 158.911 206.21C157.301 204.51 155.401 202.98 153.681 201.33C153.175 200.804 152.828 200.145 152.681 199.43L153.541 199.76C153.711 198.26 153.801 198.22 155.461 199.01C155.361 198.34 155.321 197.74 155.191 197.16C151.331 180.27 161.911 165.3 175.531 160.42C180.585 158.648 185.826 157.464 191.151 156.89C200.451 155.82 209.631 156.8 218.781 158.32C228.951 160.01 239.101 161.81 249.271 163.55C250.931 163.83 252.601 164.02 254.471 164.29C254.161 159.89 253.821 155.72 251.781 151.97C250.261 149.18 250.361 149.17 253.601 148.67C256.067 148.185 258.504 147.56 260.901 146.8C261.591 146.61 261.851 146.25 261.621 145.39C261.386 144.207 261.252 143.006 261.221 141.8C261.221 141.7 261.221 141.59 261.221 141.51C260.651 140.14 259.981 138.76 259.131 137.02ZM216.681 246.76L217.211 246.84C217.451 245.84 217.991 245.05 218.881 245.93C220.051 247.05 221.431 247.23 222.881 247.54C226.881 248.43 230.881 247.1 232.951 243.9C235.021 240.7 234.561 237.63 233.041 234.46C230.521 229.18 226.041 225.6 221.991 221.11C221.591 223.63 221.381 225.84 220.891 227.99C219.551 233.76 218.091 239.49 216.711 245.24C216.645 245.744 216.635 246.254 216.681 246.76ZM170.751 261.04C171.839 259.888 172.842 258.658 173.751 257.36C175.051 255.19 176.061 252.85 177.311 250.65C177.961 249.727 178.673 248.848 179.441 248.02C179.677 247.729 179.842 247.386 179.921 247.02C180.321 244.49 180.721 241.95 181.071 239.4C181.331 237.46 181.791 235.53 181.181 233.55C180.671 231.91 180.421 230 178.381 229.71C176.341 229.42 175.451 231.25 174.501 232.71C173.421 234.38 173.651 236.29 173.381 238.14C172.801 241.98 171.781 245.75 170.901 249.54C170.801 249.99 170.521 250.62 170.181 250.74C169.121 251.1 169.181 251.97 169.081 252.74C168.771 255.54 168.731 258.29 170.751 261.04ZM289.691 219.04L290.281 219.32C290.541 218.98 290.781 218.62 291.051 218.32C293.981 214.73 295.901 210.56 297.791 206.39C298.43 205.076 298.958 203.712 299.371 202.31C299.425 201.632 299.233 200.958 298.831 200.41C298.731 200.26 297.671 200.41 297.341 200.76C296.326 201.599 295.472 202.616 294.821 203.76C293.379 206.783 292.101 209.88 290.991 213.04C290.43 215.02 289.996 217.035 289.691 219.07V219.04ZM188.001 259.49C187.661 257.95 187.361 256.62 187.001 255.21C185.471 257.51 185.581 258.02 188.001 259.49Z" fill="#2F6B70"/>
<path d="M158.869 290.14L165.869 298.97L166.219 298.79C166.049 298.25 165.879 297.7 165.699 297.16C164.427 293.93 164.051 290.416 164.609 286.99C164.783 285.621 165.438 284.358 166.456 283.425C167.474 282.493 168.79 281.953 170.169 281.9C170.784 281.845 171.387 281.701 171.959 281.47C172.73 280.692 173.306 279.743 173.639 278.7C173.973 277.658 174.055 276.551 173.879 275.47L174.269 275.39L176.159 276.86C177.979 278.24 179.849 279.57 181.599 281.04C182.109 281.47 182.689 282.37 182.599 282.9C181.439 287.98 183.509 291.98 186.759 295.54C190.679 299.83 195.759 300.96 201.369 300.85C206.835 300.605 212.23 299.526 217.369 297.65C218.111 297.315 218.815 296.903 219.469 296.42C223.099 294.23 226.649 291.91 230.369 289.9C234.089 287.89 237.769 286.39 241.369 284.51C247.529 281.33 253.529 278.03 259.529 274.83C266.416 271.183 273.313 267.557 280.219 263.95C281.419 263.32 282.599 262.95 283.599 264.36C285.779 263.25 287.879 262.14 290.009 261.07C299.579 256.27 309.449 252.3 320.009 250.21C327.139 248.8 334.309 248.5 341.429 250.43C341.649 250.49 341.889 250.5 342.429 250.59C338.169 246.89 332.869 246.69 328.049 245.07C328.659 243.85 329.519 243.96 330.399 244.01C341.209 244.64 348.569 250.78 354.489 259.16C357.489 263.46 359.979 268.09 360.489 273.42C360.999 278.75 360.859 284.31 358.929 289.57C358.539 290.64 358.039 291.01 356.879 290.65C354.099 289.78 351.309 288.91 348.469 288.25C343.079 286.99 337.839 288.06 332.649 289.54C330.879 290.04 329.109 290.61 327.379 291.24C326.847 291.473 326.252 291.522 325.689 291.379C325.125 291.236 324.626 290.909 324.269 290.45C322.619 288.74 320.779 287.21 319.019 285.61C318.709 285.34 318.369 285.09 317.959 284.76C318.655 284.322 319.392 283.953 320.159 283.66C321.089 283.41 321.579 282.66 322.269 282.21C322.959 281.76 324.119 282.12 325.189 282.12L326.819 280.21C326.819 280.05 326.819 279.58 326.879 278.92L329.179 279.79C329.179 278.55 329.269 277.42 329.179 276.3C328.599 270.14 326.409 264.91 317.259 264.83C310.339 264.77 303.789 266.75 297.379 269.09C283.481 274.218 270.023 280.468 257.139 287.78C247.249 293.33 237.369 298.92 227.319 304.17C218.983 308.537 209.992 311.522 200.699 313.01C195.592 313.795 190.401 313.886 185.269 313.28C176.649 312.28 169.669 308.36 163.799 302.2C160.629 298.87 159.199 294.75 158.529 290.32L158.869 290.14Z" fill="#2F6B70"/>
<path d="M352.359 278.14C352.019 279.75 351.709 281.37 351.359 282.97C351.059 284.37 350.359 284.88 348.849 284.39C346.129 283.49 343.379 282.63 340.589 282C335.349 280.82 330.219 281.8 325.169 283.23C323.299 283.76 321.479 284.45 319.609 284.98C318.978 285.081 318.336 285.101 317.699 285.04C317.709 284.39 317.786 283.744 317.929 283.11C318.929 280.03 320.329 277.04 321.069 273.89C321.844 270.368 321.296 266.684 319.529 263.54C317.629 259.97 314.209 258.75 310.469 258.61C303.279 258.35 296.469 260.39 289.829 262.8C275.91 267.899 262.431 274.13 249.529 281.43C239.599 287 229.689 292.63 219.589 297.89C210.77 302.502 201.231 305.583 191.379 307C182.219 308.33 173.539 307.35 165.959 301.58C159.749 296.84 156.309 290.58 156.449 282.58C156.509 279.17 157.959 275.58 162.799 275.29C166.399 275.11 169.999 274.95 173.599 274.83C174.759 274.83 175.339 275.36 174.959 276.61C174.252 278.976 174.462 281.522 175.549 283.74C178.549 290.22 183.549 293.81 190.819 294.23C198.549 294.68 205.759 292.51 212.889 289.95C223.478 286.012 233.726 281.213 243.529 275.6C258.809 267.09 273.949 258.32 289.869 251.04C297.451 247.458 305.474 244.899 313.729 243.43C319.401 242.385 325.211 242.334 330.899 243.28C338.169 244.59 343.469 248.63 347.409 254.78C350.629 259.78 351.879 265.31 352.139 271.15C352.183 271.624 352.257 272.095 352.359 272.56V278.14Z" fill="white"/>
<path d="M52.3008 267.01C52.6908 264.08 52.9108 261.12 53.5008 258.22C56.5008 243.53 62.8808 230.66 74.4408 220.83C77.2908 218.41 80.8908 216.89 84.1508 214.96C84.5208 214.74 84.9208 214.58 85.3108 214.39C85.3108 214.39 85.3108 214.31 85.3908 214.11C80.5008 213.63 76.9308 211.05 74.2708 207.04C72.2122 203.809 71.2503 200.001 71.5277 196.18C71.8051 192.359 73.3071 188.73 75.8108 185.83C78.0126 183.499 80.4602 181.414 83.1108 179.61C86.7308 176.97 90.8908 177.61 94.9708 178.19C99.0508 178.77 103.231 179.63 107.381 180.19C115.991 181.25 124.241 180.43 131.241 175.06C133.461 178.56 135.651 181.94 137.761 185.36C137.871 185.579 137.929 185.82 137.929 186.065C137.929 186.31 137.871 186.552 137.761 186.77C136.867 188.089 135.804 189.286 134.601 190.33C127.821 195.43 120.101 197.07 111.801 196.05C106.591 195.41 101.431 194.37 96.2208 193.72C92.9108 193.31 89.6308 193.56 87.3908 196.64C85.9108 198.64 86.0008 200.52 87.5508 202.52C89.4208 204.94 92.1808 205.38 94.9208 205.88C98.3208 206.51 101.601 205.61 104.921 205.13C107.251 204.79 107.271 204.93 107.681 207.13C108.291 210.52 109.131 213.87 110.021 217.2C110.721 219.8 110.801 219.81 108.261 220.47C98.2608 223.09 89.7608 227.98 83.8308 236.64C78.3162 244.62 74.9293 253.875 73.9908 263.53C73.3827 268.287 73.8022 273.119 75.2208 277.7C78.3908 287.23 84.6308 293.7 94.7908 295.53C98.9508 296.29 103.011 295.37 106.911 293.74C119.251 288.58 127.231 279.74 130.011 266.53C131.011 261.96 131.301 257.35 129.731 252.82C127.971 247.77 124.541 245.93 119.441 247.46C111.321 249.89 102.321 259.63 102.961 270.01C103.147 272.095 103.447 274.168 103.861 276.22C103.924 276.452 103.939 276.694 103.905 276.931C103.87 277.169 103.787 277.397 103.66 277.6C103.534 277.804 103.366 277.98 103.168 278.115C102.97 278.251 102.747 278.345 102.511 278.39C96.2108 280.7 88.8408 278.74 85.8408 271.39C82.1608 262.39 85.4208 252.01 92.3208 245.7C99.5608 239.07 108.271 237.02 117.751 237.47C121.181 237.63 124.691 237.67 127.931 239.08C135.511 242.38 139.931 248.51 141.681 256.22C147.271 281.4 133.681 307.13 108.411 315.22C105.537 315.951 102.622 316.509 99.6808 316.89C99.4034 316.951 99.1296 317.028 98.8608 317.12H92.1208L91.0208 316.87C87.8408 316.22 84.5208 315.94 81.4908 314.87C66.8108 309.69 58.0308 299.06 54.1008 284.24C53.2508 281.02 52.9008 277.67 52.3108 274.38L52.3008 267.01Z" fill="white"/>
<path d="M246.629 165.86C239.709 164.86 232.979 163.76 226.229 162.86C219.479 161.96 212.729 160.98 205.949 160.35C197.729 159.6 189.489 159.35 181.369 161.35C177.663 162.256 174.219 164.012 171.309 166.48C164.499 172.22 165.989 182.93 172.459 187.48C173.919 188.48 175.319 189.61 177.039 190.89C175.309 192.17 173.859 193.37 172.289 194.39C167.244 197.628 161.69 199.995 155.859 201.39C155.207 201.586 154.512 201.584 153.862 201.382C153.211 201.181 152.636 200.79 152.209 200.26C149.002 196.918 147.115 192.527 146.899 187.9C146.568 184.802 146.619 181.676 147.049 178.59C149.639 165.27 157.889 156.91 170.669 152.93C178.619 150.517 186.936 149.538 195.229 150.04C206.229 150.59 216.969 152.76 227.759 154.66C233.759 155.73 239.869 156.66 245.929 157.66C246.162 157.677 246.396 157.677 246.629 157.66C246.299 153.43 245.869 149.3 243.929 145.49C243.729 145.1 243.499 144.72 243.299 144.33C242.619 143.02 242.779 142.64 244.299 142.33C245.639 142.1 247.009 142.01 248.349 141.79C251.465 141.171 254.424 139.929 257.049 138.14C260.109 136.24 260.559 136.4 261.369 139.88C262.514 145.657 263.011 151.543 262.849 157.43V159.8C265.939 159.8 268.949 159.91 271.949 159.8C277.365 159.601 282.714 158.531 287.789 156.63C294.379 154.1 299.789 150.08 302.789 143.47C303.388 141.988 303.909 140.476 304.349 138.94C304.549 138.36 304.719 137.76 304.919 137.1C306.349 137.64 306.359 138.87 306.369 139.8C306.419 148.7 303.219 155.91 295.369 160.69C286.149 166.29 276.049 168.12 265.429 167.76C264.519 167.76 263.609 167.62 262.589 167.54C262.379 170.19 262.149 172.7 261.989 175.21C261.123 189.119 259.515 202.973 257.169 216.71C256.469 220.77 256.229 224.92 255.859 229.04C255.82 229.916 255.963 230.792 256.279 231.61C257.369 234.61 260.359 235.39 262.649 233.14C265.334 230.431 267.384 227.158 268.649 223.56C268.793 222.855 268.773 222.126 268.589 221.43C267.589 214.49 268.999 207.87 271.109 201.32C272.789 196.07 274.959 191.05 278.609 186.9C280.352 184.874 282.433 183.166 284.759 181.85C289.679 179.17 294.759 180.72 297.619 185.53C299.883 189.463 300.793 194.03 300.209 198.53C299.539 205.53 297.459 212.05 292.949 217.64C290.349 220.85 287.879 222.51 284.389 223.02C284.635 223.907 285.086 224.723 285.706 225.402C286.327 226.081 287.098 226.605 287.959 226.93C289.248 227.493 290.659 227.718 292.059 227.584C293.459 227.449 294.801 226.959 295.959 226.16C297.81 225 299.465 223.552 300.859 221.87C305.529 216.09 307.559 209.08 309.669 202.13C311.224 196.703 312.015 191.085 312.019 185.44C311.109 185.64 310.329 185.88 309.539 185.97C307.912 186.232 306.243 186.008 304.744 185.324C303.244 184.641 301.979 183.53 301.109 182.13C297.609 176.97 299.109 169.95 301.839 165.98C302.129 165.602 302.543 165.34 303.009 165.24C306.439 164.59 309.889 164.01 313.319 163.39C314.889 163.11 315.069 163.3 314.669 164.8C314.035 166.785 313.53 168.809 313.159 170.86C312.709 174.04 314.159 175.58 317.319 175.1C320.141 174.591 322.919 173.866 325.629 172.93C327.923 172.084 330.372 171.743 332.809 171.93C334.789 172.183 336.615 173.134 337.958 174.611C339.301 176.088 340.074 177.995 340.139 179.99C340.509 184.74 339.289 189.26 338.139 193.8C336.879 198.9 335.539 203.99 334.449 209.12C334.149 210.752 334.2 212.429 334.599 214.04C335.529 217.97 339.069 219.04 342.039 216.29C344.684 213.739 346.62 210.545 347.659 207.02C347.716 206.734 347.806 206.455 347.929 206.19C348.172 205.841 348.436 205.507 348.719 205.19C348.939 205.576 349.081 206 349.139 206.44C348.999 208.28 348.809 210.12 348.539 211.94C348.074 215.974 346.421 219.778 343.789 222.87C337.839 229.68 326.329 226.68 323.629 218.62C321.929 213.25 321.69 207.523 322.939 202.03C323.999 196.73 325.099 191.44 326.149 186.14C326.316 185.23 326.393 184.305 326.379 183.38C326.379 181.21 325.509 180.54 323.379 181.11C321.739 181.56 320.159 182.22 318.559 182.8C318.019 183 317.489 183.25 317.029 183.44C317.189 198.06 313.209 211.51 306.029 224.07C303.89 227.962 301.001 231.391 297.529 234.16C292.039 238.42 285.959 239.77 279.269 237.47C275.829 236.28 273.459 233.81 271.579 230.8L270.689 229.34C270.459 229.99 270.279 230.45 270.129 230.93C268.839 235.368 266.179 239.285 262.529 242.12C255.579 247.44 246.579 244.8 243.219 236.27C242.266 233.614 241.671 230.843 241.449 228.03C240.669 220.72 241.349 213.44 242.189 206.17C242.939 199.79 243.589 193.4 244.309 187.02C245.049 180.44 245.819 173.87 246.559 167.29C246.609 166.86 246.609 166.43 246.629 165.86ZM282.049 214.66C285.558 212.174 288.237 208.689 289.739 204.66C290.809 201.79 291.849 198.9 291.739 195.77C291.735 195.468 291.666 195.171 291.536 194.898C291.407 194.626 291.22 194.384 290.989 194.19C290.609 194.01 289.829 194.41 289.359 194.75C288.757 195.164 288.243 195.694 287.849 196.31C284.35 201.817 282.35 208.142 282.049 214.66Z" fill="white"/>
<path d="M179.23 249.01C178.11 251.49 177.23 253.73 176.1 255.88C174.185 259.855 171.312 263.291 167.74 265.88C161.53 270.19 154.89 268.96 150.58 262.75C148.066 258.951 146.597 254.557 146.32 250.01C145.419 240.489 147.343 230.914 151.85 222.48C153.702 218.749 156.396 215.5 159.72 212.99C166.13 208.35 173.12 209.61 177.27 216.34C178.438 218.518 179.441 220.781 180.27 223.11C180.418 223.6 180.663 224.056 180.99 224.45C181.33 222.45 181.72 220.45 181.99 218.37C182.44 214.96 182.84 211.53 183.2 208.1C183.31 207.1 183.93 207.1 184.7 206.96C187.77 206.52 190.84 206.09 193.87 205.45C194.965 205.063 196.009 204.546 196.98 203.91C197.34 203.73 197.98 203.42 198.1 203.56C198.276 203.711 198.418 203.898 198.516 204.109C198.614 204.319 198.667 204.548 198.67 204.78C198.519 207.255 198.185 209.715 197.67 212.14C196.06 218.14 194.14 224.07 192.48 230.06C191.1 235.06 189.82 240.06 189.95 245.28C189.941 245.718 189.968 246.156 190.03 246.59C190.61 250.04 193.03 250.98 195.62 248.74C198.347 246.407 200.337 243.333 201.35 239.89C203.42 232.96 205.29 225.96 207.22 218.99C208.05 215.99 208.85 212.99 209.57 209.99C209.738 209.261 209.682 208.497 209.41 207.8C206.16 200.66 206.81 193.94 211.64 187.8C213.034 186.245 214.582 184.834 216.26 183.59C216.431 183.411 216.641 183.275 216.875 183.191C217.108 183.108 217.357 183.08 217.603 183.11C217.848 183.141 218.084 183.228 218.29 183.365C218.496 183.502 218.667 183.685 218.79 183.9C220.79 186.33 222.79 188.64 225.85 189.9C226.59 190.19 226.66 190.85 226.05 191.43C225.67 191.8 225.19 192.08 224.83 192.43C223.623 193.62 222.481 194.876 221.41 196.19C220.77 197.007 220.388 197.995 220.311 199.03C220.235 200.064 220.467 201.098 220.98 202C221.88 203.67 222.917 205.262 224.08 206.76C226.89 210.5 229.96 214.05 232.6 217.9C235.94 222.78 237.95 228.21 237.65 234.24C237.38 239.82 235.71 244.87 231.2 248.57C227.07 251.95 220.02 251.71 216.03 248.16C214.421 246.705 213.406 244.707 213.18 242.55C213.186 242.028 213.28 241.51 213.46 241.02C215.92 241.02 218.21 241.43 220.29 240.93C225.13 239.76 227.54 235.09 225.97 230.34C225.373 228.699 224.609 227.124 223.69 225.64C222.986 224.486 222.161 223.41 221.23 222.43C219 219.99 216.7 217.62 214.23 215.04C213.69 218.28 213.23 221.29 212.67 224.27C211.02 232.63 208.96 240.89 205.02 248.5C203.584 251.31 201.807 253.934 199.73 256.31C196.49 259.95 192.35 261.52 187.47 259.92C182.59 258.32 180.07 254.8 179.31 249.85C179.32 249.67 179.29 249.48 179.23 249.01ZM161.13 249.53C161.521 251.084 162.05 252.6 162.71 254.06C162.853 254.419 163.089 254.734 163.394 254.971C163.7 255.208 164.063 255.36 164.446 255.41C164.829 255.46 165.219 255.407 165.575 255.255C165.931 255.104 166.24 254.861 166.47 254.55C167.519 253.478 168.396 252.25 169.07 250.91C170.746 247.032 171.841 242.928 172.32 238.73C172.69 236.29 172.89 233.82 173.32 231.4C173.822 229.063 173.411 226.623 172.17 224.58C172.013 224.241 171.772 223.949 171.469 223.731C171.166 223.513 170.812 223.376 170.441 223.335C170.07 223.294 169.694 223.349 169.351 223.495C169.007 223.642 168.707 223.874 168.48 224.17C167.749 224.879 167.144 225.708 166.69 226.62C163.35 233.53 161.74 240.9 161.13 249.53Z" fill="white"/>
<path d="M380.121 230.33C381.941 233.65 383.781 236.65 385.281 239.81C387.281 244.05 388.871 248.45 388.721 253.27C388.699 253.945 388.601 254.616 388.431 255.27C388.302 256.048 387.941 256.77 387.395 257.339C386.849 257.908 386.143 258.299 385.371 258.46C384.597 258.637 383.787 258.568 383.054 258.263C382.321 257.959 381.701 257.433 381.281 256.76C380.002 254.816 378.949 252.732 378.141 250.55C376.261 245.19 375.681 239.55 375.141 233.92C375.139 233.545 375.024 233.179 374.811 232.87C374.651 233.58 374.481 234.29 374.321 235C373.541 238.43 372.681 241.88 370.631 244.78C369.502 246.415 368.09 247.834 366.461 248.97C363.851 250.72 360.941 248.97 360.761 245.84C360.584 243.474 361.297 241.127 362.761 239.26C366.061 234.97 369.391 230.7 372.951 226.63C374.274 225.168 375.167 223.368 375.531 221.43C376.531 216.43 377.761 211.52 380.311 207.09C381.523 205.159 382.938 203.362 384.531 201.73C384.939 201.263 385.495 200.949 386.105 200.84C386.716 200.731 387.346 200.833 387.891 201.13C388.405 201.422 388.812 201.87 389.054 202.41C389.295 202.95 389.357 203.552 389.231 204.13C389.018 205.908 388.55 207.646 387.841 209.29C386.341 212.41 384.531 215.4 382.841 218.52C383.841 217.85 384.901 217.19 385.921 216.52C389.561 213.883 393.698 212.009 398.081 211.01C400.55 210.36 403.162 210.51 405.541 211.44C408.731 212.85 409.331 215.82 406.591 217.97C404.792 219.455 402.72 220.573 400.491 221.26C395.491 222.62 390.491 223.54 385.421 224.63C384.842 224.733 384.271 224.874 383.711 225.05C388.524 225.487 393.243 226.647 397.711 228.49C400.169 229.635 402.513 231.012 404.711 232.6C405.752 233.482 406.597 234.572 407.191 235.8C407.666 236.52 407.912 237.368 407.894 238.231C407.876 239.093 407.596 239.93 407.091 240.63C406.533 241.353 405.775 241.897 404.911 242.194C404.047 242.49 403.115 242.527 402.231 242.3C400.361 241.991 398.554 241.38 396.881 240.49C391.611 237.49 386.471 234.21 381.271 231.04C380.891 230.86 380.601 230.65 380.121 230.33Z" fill="#FDD57D"/>
<path d="M53.8096 324.16C52.9396 327.85 51.9796 331.23 51.3896 334.67C50.6096 339.3 50.2696 343.97 51.7096 348.56C51.9123 349.212 52.1873 349.839 52.5296 350.43C52.8628 351.143 53.4042 351.739 54.0824 352.139C54.7607 352.539 55.5441 352.724 56.3296 352.67C57.1228 352.633 57.8847 352.349 58.5086 351.858C59.1326 351.366 59.5874 350.692 59.8096 349.93C60.5201 347.712 60.9764 345.421 61.1696 343.1C61.5296 337.43 60.5696 331.85 59.5496 326.29C59.4405 325.931 59.4405 325.549 59.5496 325.19C59.8996 325.83 60.2596 326.46 60.5496 327.11C62.2296 330.2 63.9896 333.28 66.7496 335.53C68.2738 336.801 70.0151 337.787 71.8896 338.44C74.8896 339.44 77.1996 336.95 76.5296 333.89C76.0647 331.567 74.7531 329.5 72.8496 328.09C68.5096 324.85 64.1496 321.64 59.6296 318.68C57.967 317.617 56.631 316.115 55.7696 314.34C53.5296 309.84 51.0296 305.43 47.3796 301.83C45.699 300.307 43.8622 298.966 41.8996 297.83C41.3907 297.495 40.7839 297.34 40.1766 297.391C39.5692 297.441 38.9965 297.695 38.5503 298.11C38.1041 298.525 37.8102 299.078 37.7157 299.68C37.6213 300.282 37.7318 300.898 38.0296 301.43C38.7064 303.088 39.6228 304.638 40.7496 306.03C43.0496 308.64 45.5896 311.03 48.0996 313.56C46.9396 313.19 45.7496 312.84 44.5896 312.44C40.3691 310.891 35.8793 310.211 31.3896 310.44C28.8352 310.482 26.36 311.333 24.3196 312.87C21.6296 315.08 21.8596 318.1 25.0696 319.44C27.2026 320.381 29.4988 320.898 31.8296 320.96C36.9696 320.96 42.1096 320.45 47.2496 320.15C47.8376 320.091 48.4287 320.068 49.0196 320.08C44.4975 321.799 40.26 324.189 36.4496 327.17C34.3856 328.938 32.4968 330.9 30.8096 333.03C30.037 334.152 29.5152 335.428 29.2796 336.77C29.0131 337.592 29.0043 338.477 29.2546 339.304C29.5048 340.132 30.002 340.863 30.6796 341.4C31.4122 341.945 32.2882 342.264 33.1997 342.317C34.1112 342.37 35.0184 342.156 35.8096 341.7C37.5322 340.874 39.1068 339.769 40.4696 338.43C44.7296 334.09 48.8096 329.57 52.9596 325.13L53.8096 324.16Z" fill="#FDD57D"/>
<path d="M198.901 33.74C198.791 41.08 197.441 47.67 196.271 54.29C195.091 60.3325 193.163 66.2043 190.531 71.77C189.881 73.22 188.401 73.58 187.471 72.09C186.281 70.17 184.911 68.34 183.771 66.38C177.971 56.38 173.311 45.96 170.971 34.58C169.975 29.9006 170.227 25.0415 171.701 20.49C172.282 18.7922 173.193 17.2264 174.383 15.8832C175.573 14.5401 177.017 13.4462 178.633 12.665C180.248 11.8838 182.003 11.4308 183.794 11.3321C185.586 11.2334 187.379 11.491 189.071 12.09C191.147 12.9386 192.918 14.3958 194.151 16.27C197.151 20.27 198.241 24.9 198.711 29.74C198.801 31.26 198.841 32.79 198.901 33.74Z" fill="#FDD57D"/>
<path d="M138.529 54.12C138.529 48.18 143.849 41.64 149.619 40.38C151.646 39.9095 153.774 40.179 155.619 41.14C158.489 42.5712 161.021 44.596 163.049 47.08C169.331 54.725 174.222 63.4136 177.499 72.75C178.409 75.39 178.079 75.8 175.409 75.18C167.669 73.37 159.879 71.79 152.459 68.81C149.221 67.5841 146.186 65.8747 143.459 63.74C142.004 62.5766 140.812 61.1175 139.962 59.4591C139.112 57.8008 138.624 55.981 138.529 54.12Z" fill="#FDD57D"/>
<path d="M229.909 38.81C229.579 41.289 228.738 43.6725 227.439 45.81C224.349 51.43 219.859 55.81 214.969 59.81C211.219 62.89 207.329 65.81 203.489 68.81C203.426 68.8689 203.355 68.9193 203.279 68.96L201.509 69.55C201.37 68.9867 201.293 68.41 201.279 67.83C201.765 61.1622 202.853 54.5519 204.529 48.08C205.629 43.95 206.899 39.85 208.319 35.82C209.249 33.0706 210.835 30.5891 212.939 28.59C214.519 27.0129 216.624 26.0735 218.853 25.9517C221.082 25.83 223.277 26.5343 225.019 27.93C228.169 30.25 229.909 33.72 229.909 38.81Z" fill="#FDD57D"/>
<path d="M219.7 69.37C218.91 69.37 218.12 69.37 217.34 69.37C215.91 69.37 215.52 68.75 216.17 67.46C216.546 66.6692 217.045 65.9434 217.65 65.31C220.43 62.6 223.14 59.79 226.12 57.31C227.303 56.2255 228.713 55.4192 230.248 54.9503C231.783 54.4814 233.403 54.3617 234.99 54.6C239.63 55.37 241.28 59.84 238.27 63.45C236.82 65.2264 234.879 66.5374 232.69 67.22C228.501 68.6183 224.116 69.344 219.7 69.37Z" fill="#FDD57D"/>
<path d="M165.53 80.48C164.84 80.93 164.46 81.23 164.04 81.48C159.87 83.63 155.62 85.62 150.78 85.37C149.177 85.2853 147.598 84.9478 146.1 84.37C144.939 83.945 143.963 83.1252 143.346 82.0539C142.728 80.9826 142.506 79.7281 142.72 78.51C142.943 77.2716 143.589 76.1492 144.549 75.3355C145.509 74.5217 146.722 74.0672 147.98 74.05C151.257 73.7273 154.558 74.352 157.49 75.85C159.38 76.85 161.29 77.85 163.17 78.85C163.88 79.16 164.46 79.68 165.53 80.48Z" fill="#FDD57D"/>
<path d="M413.061 111.01C412.476 113.46 411.762 115.876 410.921 118.25C409.011 122.95 405.351 126.16 401.141 128.79C399.701 129.7 398.241 130.58 396.811 131.51C396.231 131.876 395.765 132.397 395.464 133.013C395.164 133.63 395.042 134.318 395.111 135C395.169 136.801 395.132 138.603 395.001 140.4C394.941 142.178 394.342 143.896 393.283 145.325C392.224 146.754 390.754 147.826 389.071 148.4C385.161 149.86 381.071 150.81 377.071 151.96C376.191 152.21 375.271 152.38 374.371 152.56C371.771 153.08 370.691 152.41 369.991 149.85C368.991 146.24 367.911 142.65 367.111 139C366.805 137.583 366.81 136.116 367.124 134.701C367.438 133.286 368.054 131.955 368.931 130.8C370.551 128.58 372.261 126.17 374.501 124.71C379.171 121.66 380.861 117.46 381.191 112.16C381.581 105.88 383.811 100.29 389.191 96.61C392.248 94.6103 395.442 92.8292 398.751 91.28C402.191 89.59 405.751 88.11 409.311 86.65C410.489 86.293 411.697 86.042 412.921 85.9C411.661 92.7 412.161 99.08 413.071 105.44L413.061 111.01Z" fill="#40939A"/>
<path d="M346.599 101.03C345.909 103.46 347.039 105.82 349.269 107.93C350.689 109.336 351.996 110.851 353.179 112.46C354.563 114.206 355.521 116.249 355.98 118.429C356.438 120.609 356.383 122.865 355.819 125.02C355.079 128.34 354.509 131.7 353.899 135.02C353.891 135.239 353.835 135.453 353.735 135.648C353.635 135.842 353.495 136.013 353.323 136.148C353.15 136.283 352.951 136.379 352.738 136.43C352.525 136.48 352.304 136.484 352.089 136.44C349.319 136.32 346.539 136.24 343.769 136.22C340.675 136.197 337.659 135.238 335.119 133.47C332.449 131.65 331.469 128.84 331.119 125.83C330.871 123.602 330.757 121.361 330.779 119.12C330.779 116.44 329.939 114.29 327.479 112.9C326.209 112.18 325.069 111.24 323.809 110.5C318.859 107.55 316.669 102.93 316.539 97.5C316.449 93.58 317.129 89.66 317.459 85.73C317.699 82.78 317.929 79.83 318.169 76.88C318.161 76.6756 318.202 76.4721 318.288 76.2864C318.374 76.1008 318.503 75.9382 318.664 75.8122C318.825 75.6861 319.014 75.6003 319.215 75.5617C319.416 75.523 319.623 75.5327 319.819 75.59C325.569 76.59 331.469 77.3 336.479 80.51C343.609 85.08 347.119 91.77 346.599 101.03Z" fill="#40939A"/>
<path d="M362.531 76.15C366.131 63.27 368.101 50.22 365.851 36.74H366.601C366.895 37.7683 367.125 38.8136 367.291 39.87C367.751 44.22 368.501 48.58 368.481 52.93C368.431 60.93 367.831 68.93 365.071 76.53C365.042 76.6723 364.995 76.8101 364.931 76.94C362.751 80.06 363.391 83.42 363.931 86.85C365.094 94.9114 365.539 103.06 365.261 111.2C365.161 115.73 365.261 120.28 365.021 124.8C364.711 130.69 364.161 136.56 363.691 142.43C363.401 146.13 363.001 149.81 362.801 153.51C362.421 160.66 362.091 167.82 361.881 174.98C361.932 177.146 362.112 179.306 362.421 181.45H362.831C363.111 179.74 363.431 178.04 363.651 176.33C364.951 166.54 368.651 157.57 372.861 148.74C377.071 139.91 382.921 131.84 388.381 123.65C393.841 115.46 399.031 106.88 404.201 98.43C405.471 96.35 406.201 93.94 407.521 91.74C407.504 92.3061 407.413 92.8676 407.251 93.41C405.451 97.41 403.951 101.55 401.721 105.28C394.451 117.45 386.721 129.36 379.541 141.58C374.071 150.87 369.271 160.58 366.711 171.11C365.591 175.74 364.711 180.44 363.941 185.11C363.737 186.361 363.864 187.644 364.311 188.83C366.031 193.17 367.951 197.43 369.771 201.73C370.011 202.31 370.161 202.92 370.351 203.51L369.941 203.74C369.662 203.536 369.407 203.301 369.181 203.04C364.451 195.83 361.041 188.1 359.871 179.47C359.101 173.84 359.451 168.2 359.431 162.55C359.431 159.21 358.431 155.83 357.671 152.55C355.751 144.55 351.941 137.36 348.671 129.91C342.441 115.7 333.921 102.79 326.151 89.45C324.461 86.55 322.901 83.57 321.311 80.62C321.105 80.1671 320.935 79.699 320.801 79.22L321.191 79.01C321.471 79.41 321.781 79.8 322.041 80.21C324.251 83.65 326.391 87.14 328.651 90.54C339.521 106.89 349.361 123.8 356.591 142.12C357.751 145.05 358.501 148.12 359.441 151.12C359.535 151.468 359.738 151.777 360.021 152C360.161 150.48 360.251 149 360.431 147.46C362.281 131.618 362.95 115.661 362.431 99.72C362.091 88.72 360.791 77.85 356.311 67.62C353.307 60.8877 349.492 54.5475 344.951 48.74C343.686 47.1314 342.262 45.654 340.701 44.33C337.95 41.8341 335.058 39.497 332.041 37.33C329.451 35.7012 326.759 34.2415 323.981 32.96C322.821 32.37 321.551 31.96 320.351 31.44C320.131 31.34 319.791 30.99 319.841 30.9C319.961 30.62 320.221 30.25 320.461 30.22C321.038 30.1395 321.625 30.17 322.191 30.31C326.305 31.3336 330.165 33.1921 333.531 35.77C336.071 37.77 338.531 39.77 341.081 41.77C346.521 46.06 350.081 51.87 353.711 57.58C357.253 63.0185 359.951 68.9628 361.711 75.21C361.791 75.52 361.931 75.82 362.041 76.13L362.531 76.15Z" fill="#2F6B70"/>
<path d="M284.529 36.14C282.959 35.49 281.529 34.94 280.099 34.31C277.282 33.056 274.752 31.2348 272.669 28.96C272.072 28.3159 271.543 27.6122 271.089 26.86C270.089 25.1 270.409 23.79 272.089 22.56C275.719 19.84 279.949 18.79 284.319 18.12C285.419 17.96 286.539 17.9 287.809 17.77C287.489 17.43 287.259 17.15 286.989 16.91C283.319 13.72 281.279 9.55997 279.989 4.98997C279.479 3.20997 280.079 2.07997 281.699 1.72997C292.589 -0.640028 302.699 1.14997 311.529 8.07997C316.529 12.01 320.419 17.2 321.529 23.5C323.719 35.5 319.579 45.6 307.019 50.93C297.879 54.82 288.539 54.83 279.169 51.68C277.991 51.2222 276.839 50.698 275.719 50.11C275.49 50.0284 275.279 49.8996 275.102 49.7319C274.925 49.5642 274.785 49.3613 274.691 49.1363C274.596 48.9112 274.55 48.669 274.555 48.4251C274.56 48.1812 274.616 47.941 274.719 47.72C276.067 43.4501 278.861 39.7833 282.619 37.35C283.199 36.94 283.819 36.58 284.529 36.14Z" fill="#E1A2CE"/>
<path d="M364.76 38.43C362.339 38.4353 360.015 37.4802 358.298 35.7742C356.581 34.0681 355.61 31.7506 355.6 29.33C355.596 28.1814 355.818 27.0433 356.254 25.9807C356.691 24.9182 357.332 23.952 358.142 23.1375C358.952 22.323 359.914 21.6762 360.974 21.2339C362.034 20.7916 363.171 20.5626 364.32 20.56C365.541 20.52 366.758 20.7242 367.899 21.1607C369.041 21.5972 370.084 22.2572 370.966 23.102C371.849 23.9467 372.555 24.9593 373.041 26.0803C373.528 27.2012 373.786 28.4081 373.8 29.63C373.789 30.803 373.547 31.9623 373.086 33.0409C372.625 34.1196 371.955 35.0962 371.114 35.9144C370.274 36.7326 369.279 37.3762 368.189 37.808C367.098 38.2398 365.932 38.4512 364.76 38.43Z" fill="#E1A2CE"/>
<path d="M177.701 366.86C175.011 365.63 172.311 364.45 169.701 363.16C168.341 362.51 167.081 361.65 165.761 360.93C164.924 360.472 164.002 360.192 163.052 360.107C162.102 360.023 161.145 360.136 160.241 360.44C159.58 360.615 158.929 360.826 158.291 361.07C150.861 364.07 144.581 361.73 138.911 356.8C137.322 355.356 135.813 353.828 134.391 352.22C129.931 347.34 125.161 342.85 119.321 339.61C118.172 338.839 117.079 337.986 116.051 337.06C117.003 336.597 117.981 336.19 118.981 335.84C123.981 334.47 128.551 332.03 133.071 329.51C136.251 327.73 139.481 326.02 142.711 324.31C145.177 322.947 147.953 322.242 150.771 322.263C153.59 322.284 156.355 323.03 158.801 324.43C161.741 325.96 164.721 327.43 167.631 329C168.298 329.401 169.068 329.599 169.846 329.568C170.624 329.538 171.376 329.282 172.011 328.83C173.499 327.904 175.049 327.082 176.651 326.37C178.676 325.433 180.907 325.033 183.132 325.208C185.356 325.383 187.498 326.128 189.351 327.37C191.141 328.46 192.921 329.56 194.751 330.57C195.782 331.197 196.982 331.488 198.186 331.404C199.389 331.32 200.537 330.864 201.471 330.1C202.471 329.35 203.551 328.64 204.541 327.85C206.448 326.313 208.687 325.241 211.081 324.72C213.475 324.2 215.957 324.244 218.331 324.85C222.611 325.85 226.841 326.96 231.071 328.09C232.661 328.51 232.961 329.32 232.271 330.82C229.387 337.435 225.713 343.677 221.331 349.41C218.181 353.41 214.621 356.79 209.501 358.02C205.599 358.933 201.565 359.136 197.591 358.62C194.511 358.24 191.881 358.74 189.711 361.03C189.571 361.168 189.424 361.298 189.271 361.42C186.351 364.04 183.271 366.42 179.201 366.94L177.701 366.86Z" fill="#40939A"/>
<path d="M138.139 337.86C138.669 338.02 139.209 338.15 139.729 338.35C147.977 341.468 156.573 343.57 165.329 344.61C177.649 346.15 189.659 344.4 201.619 341.32C213.369 338.32 224.059 333.03 234.559 327.19C245.059 321.35 255.289 314.94 265.329 308.27C272.239 303.69 279.239 299.27 287.269 296.78C289.919 295.98 292.619 295.33 295.269 294.63C295.639 294.507 296.034 294.476 296.419 294.54C296.925 294.737 297.41 294.981 297.869 295.27C297.509 295.64 297.209 296.21 296.769 296.36C288.189 299.3 281.819 304.99 276.889 312.42C273.476 317.596 270.905 323.28 269.269 329.26C268.919 330.099 268.462 330.889 267.909 331.61C266.649 330.84 267.569 329.77 267.739 329C269.989 318.77 273.989 309.44 281.939 302.21C282.02 302.129 282.08 302.029 282.113 301.919C282.146 301.809 282.152 301.693 282.129 301.58C281.299 301.931 280.488 302.325 279.699 302.76C274.189 306.17 268.589 309.46 263.219 313.08C251.3 321.05 238.915 328.3 226.129 334.79C213.539 341.24 200.069 344.9 186.129 346.71C171.342 348.658 156.303 346.671 142.529 340.95C140.919 340.29 139.419 339.34 137.869 338.53C137.929 338.3 138.039 338.08 138.139 337.86Z" fill="#2F6B70"/>
<path d="M266.68 329.19C267.729 329.116 268.783 329.253 269.778 329.594C270.773 329.934 271.69 330.471 272.474 331.172C273.258 331.873 273.893 332.725 274.342 333.676C274.791 334.628 275.044 335.659 275.087 336.71C275.13 337.761 274.961 338.81 274.591 339.795C274.221 340.78 273.658 341.68 272.933 342.443C272.209 343.205 271.339 343.815 270.375 344.235C269.411 344.656 268.372 344.878 267.32 344.89C262.55 345.09 258.51 341.62 258.42 337.13C258.396 336.053 258.595 334.983 259.006 333.988C259.417 332.992 260.03 332.093 260.806 331.346C261.583 330.6 262.506 330.023 263.517 329.652C264.528 329.28 265.605 329.123 266.68 329.19Z" fill="#E1A2CE"/>
<path d="M0.000705719 126.52C1.37071 119.12 2.77071 111.73 4.09071 104.33C4.38071 102.66 4.32071 100.93 4.50071 99.24C4.60507 98.8433 4.83698 98.4919 5.16071 98.24C5.24071 98.17 5.84071 98.49 6.00071 98.76C8.79071 103.36 13.1007 106.32 17.3507 109.36C19.5909 110.82 21.7019 112.47 23.6607 114.29C27.2707 117.97 28.4007 122.73 28.4307 127.73C28.3484 129.107 28.6747 130.477 29.3685 131.669C30.0624 132.861 31.0929 133.822 32.3307 134.43C38.2507 137.75 40.1507 143.18 39.5707 149.69C39.4307 151.2 39.3207 152.69 39.1007 154.2C38.898 155.403 38.9661 156.635 39.3 157.808C39.6338 158.981 40.2251 160.065 41.0307 160.98C42.575 162.86 43.9158 164.898 45.0307 167.06C47.3758 171.79 47.9093 177.214 46.5307 182.31C45.7107 185.643 44.8374 188.977 43.9107 192.31C43.2307 194.79 41.9107 195.31 39.8507 193.92C37.0297 191.983 33.8776 190.58 30.5507 189.78C24.8307 188.45 22.6407 184.64 22.2507 179.24C22.1507 177.84 21.8907 176.44 21.7207 175.04C21.6561 174.305 21.3893 173.602 20.9498 173.009C20.5103 172.416 19.9153 171.956 19.2307 171.68C18.5307 171.36 17.8507 170.97 17.1207 170.68C11.4207 168.43 8.7507 164.03 8.5307 158.09C8.4307 155.09 8.6407 152.15 8.7407 149.18C8.8067 147.96 8.61956 146.739 8.19105 145.595C7.76253 144.45 7.10191 143.407 6.25071 142.53C4.09071 140.21 1.9107 137.86 0.970703 134.73C0.540703 133.29 0.310703 131.79 -0.0292969 130.33L0.000705719 126.52Z" fill="#40939A"/>
<path d="M13.5298 125.27L14.3698 124.52C15.5998 127.22 16.7698 129.83 17.9898 132.41C24.9898 147.35 32.1798 162.23 37.8898 177.75C40.8898 186 43.7398 194.34 44.6098 203.1C45.095 209.088 45.1885 215.1 44.8898 221.1C44.7201 224.849 44.1876 228.573 43.2998 232.22C42.4798 235.75 41.1098 239.16 39.9498 242.61C39.6534 243.363 39.3197 244.1 38.9498 244.82L39.3098 245.12C39.7598 244.61 40.2198 244.12 40.6498 243.58C46.0798 237 49.5498 229.43 51.9498 221.32C53.4607 216.322 54.2454 211.132 54.2798 205.91C54.2798 195.91 54.1731 185.873 53.9598 175.8C53.7998 168.44 53.2898 161.09 53.1498 153.73C53.0498 148.29 53.4398 142.83 53.3098 137.39C53.1512 133.449 52.7773 129.52 52.1898 125.62C50.9665 115.782 48.3888 106.161 44.5298 97.03C42.3498 92.03 39.4298 87.3 36.8398 82.45C36.5167 81.9043 36.341 81.2841 36.3298 80.65C47.5898 93.49 51.9298 109.15 54.5898 125.55C56.5898 114.02 61.3898 103.99 70.0598 96.03C70.2498 95.85 70.6398 95.87 71.1398 96.09C70.2698 97.22 69.4198 98.38 68.5098 99.48C62.5207 106.748 58.6829 115.546 57.4298 124.88C56.4041 131.617 55.7365 138.403 55.4298 145.21C55.1798 151.33 55.6598 157.49 55.8498 163.63C56.1598 174.01 56.5698 184.39 56.7898 194.78C56.9898 204.4 56.4998 213.98 53.5598 223.26C51.2698 230.51 48.1598 237.36 43.3198 243.31C41.5613 245.604 39.2954 247.459 36.6998 248.73C36.1858 248.914 35.6616 249.067 35.1298 249.19C35.2171 248.364 35.3777 247.548 35.6098 246.75C38.2998 240.03 40.7498 233.22 41.4698 226C42.2038 219.662 42.4745 213.278 42.2798 206.9C41.6098 193.15 36.9198 180.31 31.8298 167.71C27.8298 157.71 23.1098 148.03 18.7498 138.19C16.9498 134.1 15.2498 129.97 13.5098 125.86L13.5298 125.27Z" fill="#2F6B70"/>
<path d="M89.0005 63.17C91.4705 62.17 93.8405 60.77 96.3805 60.17C99.2293 59.5652 102.129 59.2304 105.04 59.17C106.68 59.08 107.52 59.94 107.5 61.61C107.509 63.2572 107.266 64.896 106.78 66.47C105.273 71.0444 102.57 75.1324 98.9505 78.31C99.9505 78.25 100.64 78.24 101.32 78.16C105.2 77.71 108.74 78.9 112.2 80.45C112.496 80.544 112.769 80.6994 113 80.9062C113.232 81.1129 113.417 81.3662 113.543 81.6496C113.67 81.9329 113.735 82.2398 113.734 82.5501C113.734 82.8604 113.668 83.1671 113.54 83.45C112.887 85.0687 112.019 86.5923 110.96 87.98C107.07 92.87 101.96 96.05 96.2205 98.41C90.5421 100.819 84.3733 101.848 78.2205 101.41C74.8661 101.222 71.6533 99.9948 69.0281 97.8982C66.4029 95.8016 64.4955 92.9399 63.5705 89.71C62.8751 87.2786 62.5383 84.7587 62.5705 82.23C62.7698 73.2359 66.322 64.6407 72.5305 58.13C74.8005 55.67 77.3905 53.51 79.8705 51.24C81.0205 50.24 82.2905 50.44 83.5305 51.12C86.0905 52.54 87.1605 54.99 87.8605 57.62C88.3605 59.48 88.6505 61.43 89.0005 63.17Z" fill="#E1A2CE"/>
<path d="M32.3896 68.4301C36.6496 68.4301 39.8096 71.1501 39.9296 74.9201C39.8938 76.8371 39.153 78.6738 37.8489 80.0794C36.5448 81.485 34.7686 82.3609 32.8596 82.5401C31.7508 82.679 30.6269 82.6419 29.5296 82.4301C27.9152 82.0826 26.49 81.1416 25.5363 79.7934C24.5825 78.4452 24.1697 76.7881 24.3796 75.1501C24.5692 73.4432 25.3373 71.8526 26.5562 70.6428C27.7751 69.433 29.3714 68.6768 31.0796 68.5001C31.5296 68.4301 31.9496 68.4301 32.3896 68.4301Z" fill="#E1A2CE"/>
<path d="M399.53 65.58C398.055 66.3659 396.52 67.0347 394.94 67.58C393.16 68.05 392.1 68.79 392.1 70.77C392.039 71.8869 391.888 72.9971 391.65 74.09C391.632 74.4768 391.522 74.8539 391.33 75.19C390.942 75.6315 390.517 76.0396 390.06 76.41C389.7 76 389.16 75.64 389.01 75.16C388.741 74.1281 388.544 73.0789 388.42 72.02C388.42 71.79 388.42 71.54 388.42 71.29C388.19 68.29 387.76 67.88 384.72 67.65C383.799 67.615 382.885 67.4672 382 67.21C381.719 67.1115 381.463 66.9545 381.247 66.7493C381.032 66.5442 380.862 66.2956 380.75 66.02C380.762 65.744 380.842 65.4753 380.984 65.2379C381.125 65.0006 381.323 64.802 381.56 64.66C382.763 64.0355 384.049 63.5875 385.38 63.33C386.259 63.2827 387.089 62.9143 387.714 62.2949C388.339 61.6755 388.715 60.8482 388.77 59.97C389.025 58.5985 389.424 57.2577 389.96 55.97C390.13 55.53 390.76 55.27 391.19 54.97C391.47 55.38 391.96 55.76 392.02 56.2C392.26 58.03 392.42 59.87 392.53 61.71C392.516 61.9165 392.544 62.1237 392.612 62.3194C392.679 62.5151 392.785 62.6955 392.922 62.85C393.06 63.0045 393.227 63.13 393.414 63.2193C393.601 63.3086 393.803 63.3598 394.01 63.37C395.169 63.4894 396.318 63.6865 397.45 63.96C398.198 64.2528 398.91 64.6321 399.57 65.09L399.53 65.58Z" fill="#FDE7B5"/>
<path d="M212.731 -2.28882e-05C213.111 0.999977 213.541 1.93998 213.871 2.92998C214.131 3.70998 214.241 4.53998 214.441 5.33998C214.581 6.0158 214.93 6.63073 215.437 7.09872C215.945 7.56672 216.586 7.86435 217.271 7.94997C218.601 8.19997 219.951 8.43997 221.271 8.76997C221.641 8.85997 221.941 9.24998 222.271 9.49998C221.971 9.82998 221.731 10.33 221.351 10.5C220.138 11.0108 218.896 11.4483 217.631 11.81C216.768 12.0127 215.993 12.4861 215.419 13.1608C214.845 13.8356 214.502 14.6763 214.441 15.56C214.221 17.15 213.951 18.73 213.591 20.3C213.38 20.7911 213.089 21.244 212.731 21.64C212.363 21.193 212.075 20.6854 211.881 20.14C211.609 18.5577 211.422 16.9621 211.321 15.36C211.211 13.68 210.181 13.11 208.731 12.95C207.281 12.79 206.011 12.7 204.671 12.48C204.271 12.41 203.931 11.99 203.561 11.74C203.871 11.41 204.111 10.94 204.491 10.74C205.917 10.1121 207.375 9.5613 208.861 9.08998C209.508 8.943 210.086 8.57739 210.495 8.05468C210.905 7.53197 211.122 6.88407 211.111 6.21998C211.171 5.09998 211.181 3.96998 211.351 2.86998C211.56 1.89271 211.824 0.927878 212.141 -0.0200195L212.731 -2.28882e-05Z" fill="#FDE7B5"/>
<path d="M348.899 320.27C347.899 321.04 347.409 321.72 346.729 321.94C345.117 322.465 343.469 322.876 341.799 323.17C341.474 323.177 341.154 323.25 340.858 323.384C340.562 323.518 340.296 323.71 340.076 323.949C339.856 324.188 339.686 324.469 339.576 324.775C339.467 325.081 339.42 325.405 339.439 325.73C339.303 327.524 339.015 329.304 338.579 331.05C338.469 331.52 337.809 331.88 337.409 332.29C337.039 331.88 336.469 331.53 336.349 331.06C335.869 329.14 335.499 327.18 335.159 325.22C335.121 324.757 334.917 324.324 334.584 324.001C334.251 323.677 333.813 323.485 333.349 323.46C331.619 323.2 329.879 322.96 328.169 322.58C327.599 322.45 326.689 321.88 326.709 321.58C326.733 321.242 326.836 320.915 327.01 320.625C327.183 320.335 327.423 320.09 327.709 319.91C329.01 319.385 330.37 319.022 331.759 318.83C334.639 318.43 335.039 318.14 335.669 315.25C336.059 313.45 336.389 311.63 336.889 309.87C337.049 309.3 337.659 308.87 338.069 308.38C338.439 308.89 339.069 309.38 339.139 309.92C339.529 312.07 339.789 314.24 340.029 316.41C340.024 316.902 340.209 317.377 340.547 317.735C340.884 318.093 341.348 318.307 341.839 318.33C343.569 318.56 345.309 318.78 347.019 319.12C347.529 319.21 347.999 319.69 348.899 320.27Z" fill="#FDE7B5"/>
<path d="M144.62 7.77002C145.05 8.52002 145.4 8.89002 145.45 9.29002C145.68 10.92 145.8 12.57 145.98 14.21C145.969 14.99 146.097 15.7656 146.36 16.5C146.72 17.2436 147.339 17.8304 148.1 18.15C149.83 18.61 151.65 18.7 153.41 19.06C153.954 19.2645 154.458 19.5623 154.9 19.94C154.48 20.34 154.12 20.94 153.62 21.11C152.058 21.7831 150.462 22.3771 148.84 22.89C148.104 23.0765 147.452 23.5054 146.989 24.1077C146.527 24.71 146.28 25.4506 146.29 26.21C146.18 27.67 146.14 29.13 145.94 30.58C145.8 31.58 146.06 33.14 144.76 33.25C143.46 33.36 143.52 31.82 143.31 30.82C143.1 29.82 142.94 28.92 142.74 27.97C142.2 25.39 141.31 24.53 138.74 23.97C137.46 23.72 136.17 23.48 134.91 23.12C134.47 22.99 134.13 22.52 133.74 22.2C134.08 21.83 134.35 21.28 134.74 21.11C136.31 20.48 137.92 19.93 139.54 19.41C140.295 19.1933 140.97 18.7624 141.485 18.1696C142 17.5768 142.332 16.8475 142.44 16.07C142.86 13.88 143.22 11.67 143.67 9.49002C143.921 8.88258 144.239 8.30555 144.62 7.77002Z" fill="#FDE7B5"/>
<path d="M19.2591 235.56C18.6867 234.921 18.2085 234.204 17.8391 233.43C17.4274 232.035 17.1198 230.611 16.9191 229.17C16.8463 228.537 16.5582 227.948 16.1031 227.502C15.648 227.056 15.0534 226.78 14.4191 226.72C13.4662 226.554 12.545 226.24 11.6891 225.79C11.4426 225.631 11.2342 225.419 11.0786 225.17C10.9231 224.921 10.8242 224.641 10.7891 224.35C10.7891 224.07 11.5791 223.57 12.0691 223.48C13.2651 223.27 14.4751 223.15 15.6891 223.12C16.1046 223.132 16.5104 222.993 16.8306 222.728C17.1509 222.463 17.3636 222.09 17.4291 221.68C17.8891 220.05 18.3391 218.41 18.7991 216.78C18.8928 216.303 19.0616 215.844 19.2991 215.42C19.5491 215.07 20.0191 214.64 20.3691 214.65C20.7191 214.66 21.1491 215.22 21.2291 215.6C21.6791 217.6 22.0891 219.68 22.3791 221.74C22.5191 222.74 22.9091 223.14 23.9491 223.13C25.1662 223.127 26.3812 223.234 27.5791 223.45C28.0291 223.52 28.4091 223.99 28.8291 224.28C28.5191 224.67 28.2991 225.23 27.8991 225.41C26.8572 225.928 25.7456 226.292 24.5991 226.49C22.9491 226.68 22.3891 227.62 22.1491 229.06C21.9507 230.547 21.6602 232.019 21.2791 233.47C20.9215 234.235 20.4569 234.946 19.8991 235.58L19.2591 235.56Z" fill="#FDE7B5"/>
<path d="M291.109 323.43C291.109 318.43 295.779 313.43 300.729 313.11C302.678 313.024 304.588 313.673 306.081 314.929C307.574 316.184 308.54 317.955 308.789 319.89C309.839 326.28 303.569 332.37 297.209 331.13C295.447 330.772 293.869 329.803 292.753 328.394C291.636 326.985 291.054 325.227 291.109 323.43Z" fill="#40939A"/>
<path d="M98.2299 352.86C94.4499 352.86 91.4899 349.57 91.5099 345.34C91.5715 343.203 92.442 341.169 93.9455 339.648C95.449 338.128 97.4735 337.235 99.6099 337.15C101.552 337.069 103.448 337.759 104.883 339.07C106.319 340.382 107.176 342.208 107.27 344.15C107.31 348.78 103.09 352.84 98.2299 352.86Z" fill="#40939A"/>
<path d="M258.929 30.89C258.929 34.95 255.589 38.61 251.869 38.63C250.148 38.5788 248.512 37.8667 247.302 36.6415C246.091 35.4162 245.399 33.7719 245.369 32.05C245.402 30.1831 246.144 28.3986 247.444 27.058C248.744 25.7175 250.504 24.921 252.369 24.83C256.059 24.86 258.919 27.49 258.929 30.89Z" fill="#40939A"/>
<path d="M13.7294 279.37C12.9018 279.407 12.0756 279.271 11.3038 278.97C10.532 278.669 9.83166 278.21 9.24779 277.623C8.66391 277.035 8.20941 276.332 7.91346 275.558C7.61752 274.784 7.48669 273.957 7.52937 273.13C7.52937 269.01 10.5994 265.63 14.3594 265.64C17.5694 265.64 20.8694 269.37 20.8194 272.92C20.7194 276.68 17.7694 279.43 13.7294 279.37Z" fill="#40939A"/>
<path d="M371.64 300.2C370.941 300.215 370.247 300.085 369.601 299.82C368.955 299.555 368.37 299.16 367.883 298.659C367.396 298.158 367.018 297.562 366.771 296.908C366.525 296.255 366.415 295.558 366.45 294.86C366.75 290.37 368.71 287.53 372.34 287.44C375.43 287.36 378.23 290.44 378.22 293.73C378.178 295.452 377.468 297.09 376.24 298.298C375.012 299.505 373.362 300.187 371.64 300.2Z" fill="#40939A"/>
<path d="M330.62 154.69C330.67 151.13 333.52 148.16 336.81 148.23C338.334 148.277 339.78 148.912 340.845 150.003C341.91 151.094 342.51 152.555 342.52 154.08C342.46 155.75 341.77 157.336 340.588 158.518C339.406 159.7 337.82 160.39 336.15 160.45C335.406 160.442 334.672 160.286 333.989 159.991C333.307 159.696 332.69 159.268 332.175 158.732C331.66 158.195 331.257 157.562 330.99 156.868C330.723 156.174 330.597 155.433 330.62 154.69Z" fill="#40939A"/>
<path d="M117.351 48.33C114.111 48.33 111.511 46.03 111.481 43.2C111.451 42.3938 111.584 41.5899 111.873 40.8363C112.161 40.0828 112.598 39.3951 113.158 38.8145C113.718 38.2338 114.39 37.7721 115.133 37.4569C115.875 37.1417 116.674 36.9795 117.481 36.98C118.214 36.9614 118.944 37.0891 119.628 37.3555C120.312 37.6219 120.936 38.0218 121.464 38.5319C121.992 39.042 122.413 39.652 122.702 40.3264C122.992 41.0008 123.144 41.7261 123.151 42.46C123.165 43.229 123.026 43.9932 122.74 44.7074C122.455 45.4217 122.03 46.0715 121.489 46.6186C120.948 47.1657 120.304 47.599 119.593 47.893C118.882 48.1869 118.12 48.3355 117.351 48.33Z" fill="#40939A"/>
<path d="M42.7394 263.73C42.7247 265.255 42.1213 266.715 41.0554 267.805C39.9894 268.895 38.5434 269.531 37.0194 269.58C35.6392 269.556 34.3239 268.99 33.3581 268.004C32.3924 267.017 31.854 265.69 31.8594 264.31C31.8594 261.31 34.5194 258.44 37.2494 258.41C38.6765 258.409 40.0477 258.964 41.0725 259.957C42.0974 260.951 42.6952 262.304 42.7394 263.73Z" fill="#40939A"/>
<path d="M67.7597 46.61C67.7895 48.0351 67.2578 49.4148 66.2794 50.4512C65.3009 51.4877 63.9541 52.0979 62.5297 52.1501C61.1347 52.0977 59.8113 51.5188 58.826 50.5298C57.8407 49.5408 57.2668 48.2153 57.2197 46.82C57.2064 46.1153 57.334 45.415 57.5951 44.7603C57.8563 44.1056 58.2456 43.5096 58.7403 43.0075C59.235 42.5053 59.825 42.1071 60.4758 41.8363C61.1265 41.5654 61.8248 41.4273 62.5297 41.43C63.2175 41.411 63.9019 41.5316 64.5418 41.7845C65.1816 42.0375 65.7635 42.4175 66.2524 42.9017C66.7412 43.3858 67.1268 43.9641 67.3859 44.6015C67.645 45.2388 67.7721 45.9221 67.7597 46.61Z" fill="#40939A"/>
<path d="M389.75 185.43C386.89 185.43 384.75 183.52 384.75 180.98C384.809 179.694 385.362 178.481 386.293 177.592C387.225 176.704 388.463 176.209 389.75 176.21C391.006 176.209 392.214 176.693 393.121 177.561C394.029 178.43 394.566 179.615 394.62 180.87C394.605 181.491 394.466 182.102 394.212 182.669C393.958 183.235 393.593 183.746 393.14 184.17C392.687 184.594 392.154 184.924 391.572 185.141C390.99 185.357 390.37 185.455 389.75 185.43Z" fill="#40939A"/>
<path d="M31.9096 200.71C31.8816 201.966 31.37 203.163 30.4815 204.052C29.5929 204.94 28.3959 205.452 27.1396 205.48C26.2047 205.474 25.2924 205.192 24.5175 204.669C23.7427 204.146 23.1398 203.405 22.7848 202.54C22.4297 201.675 22.3384 200.725 22.5222 199.808C22.7061 198.891 23.1569 198.05 23.818 197.388C24.4791 196.727 25.3209 196.277 26.2376 196.093C27.1543 195.909 28.1048 196 28.9697 196.355C29.8346 196.71 30.5752 197.313 31.0983 198.088C31.6214 198.863 31.9037 199.775 31.9096 200.71Z" fill="#40939A"/>
<path d="M120.069 359.93C118.988 359.914 117.955 359.477 117.191 358.711C116.427 357.945 115.992 356.912 115.979 355.83C115.958 354.748 116.368 353.702 117.118 352.922C117.868 352.141 118.897 351.691 119.979 351.67C121.061 351.649 122.108 352.058 122.888 352.808C123.668 353.559 124.118 354.588 124.139 355.67C124.161 356.219 124.072 356.767 123.877 357.281C123.683 357.795 123.387 358.265 123.007 358.662C122.627 359.06 122.172 359.377 121.667 359.595C121.162 359.812 120.619 359.926 120.069 359.93Z" fill="#40939A"/>
<path d="M92.5299 30.17C92.5381 30.6559 92.4481 31.1384 92.2653 31.5887C92.0825 32.039 91.8107 32.4478 91.4661 32.7905C91.1216 33.1332 90.7114 33.4028 90.2601 33.5831C89.8088 33.7634 89.3258 33.8508 88.8399 33.84C88.3661 33.8697 87.8911 33.8046 87.4428 33.6485C86.9945 33.4924 86.5817 33.2484 86.2288 32.9309C85.8759 32.6133 85.5899 32.2286 85.3874 31.7992C85.185 31.3698 85.0703 30.9043 85.0499 30.43C85.0257 29.4238 85.4017 28.4491 86.0954 27.7198C86.7891 26.9905 87.7438 26.5662 88.7499 26.54C89.7285 26.5342 90.6707 26.9101 91.3765 27.5879C92.0824 28.2657 92.4961 29.192 92.5299 30.17Z" fill="#40939A"/>
<path d="M340.829 10.93C340.84 11.3926 340.757 11.8527 340.585 12.2823C340.413 12.7119 340.156 13.1021 339.829 13.4293C339.501 13.7565 339.111 14.0139 338.682 14.1859C338.252 14.3579 337.792 14.441 337.329 14.43C336.904 14.4393 336.482 14.3646 336.086 14.2102C335.69 14.0558 335.328 13.8247 335.021 13.5302C334.715 13.2357 334.469 12.8835 334.299 12.494C334.129 12.1044 334.037 11.6851 334.029 11.26C334.013 10.7982 334.09 10.3378 334.255 9.90602C334.42 9.47427 334.669 9.07991 334.989 8.74622C335.309 8.41252 335.692 8.14626 336.116 7.96314C336.541 7.78002 336.997 7.68375 337.459 7.68002C337.897 7.65958 338.335 7.72874 338.745 7.88328C339.155 8.03782 339.529 8.27447 339.845 8.57874C340.16 8.88301 340.41 9.24849 340.58 9.6528C340.749 10.0571 340.834 10.4917 340.829 10.93Z" fill="#40939A"/>
<path d="M381.891 281.15C381.464 281.14 381.043 281.046 380.653 280.874C380.262 280.701 379.909 280.454 379.615 280.145C379.32 279.836 379.089 279.473 378.934 279.074C378.78 278.676 378.706 278.252 378.716 277.825C378.726 277.398 378.819 276.978 378.992 276.587C379.164 276.196 379.412 275.844 379.721 275.549C380.029 275.254 380.393 275.023 380.791 274.869C381.189 274.714 381.614 274.64 382.041 274.65C382.48 274.626 382.919 274.69 383.332 274.84C383.745 274.99 384.124 275.222 384.445 275.522C384.766 275.821 385.024 276.183 385.202 276.585C385.38 276.987 385.475 277.421 385.481 277.86C385.432 278.769 385.028 279.622 384.357 280.238C383.686 280.853 382.8 281.18 381.891 281.15Z" fill="#40939A"/>
<path d="M260.901 6.94995C260.91 7.38901 260.831 7.82547 260.668 8.23312C260.504 8.64077 260.26 9.01121 259.95 9.32221C259.64 9.63322 259.27 9.87836 258.863 10.0429C258.456 10.2075 258.02 10.2881 257.581 10.2799C257.13 10.262 256.687 10.1549 256.277 9.96494C255.868 9.77495 255.5 9.5058 255.195 9.173C254.89 8.8402 254.654 8.45034 254.501 8.02589C254.347 7.60144 254.279 7.15079 254.301 6.69995C254.297 6.28346 254.376 5.87039 254.534 5.48506C254.692 5.09974 254.926 4.74998 255.221 4.4564C255.517 4.16282 255.868 3.93137 256.254 3.77569C256.641 3.62001 257.054 3.54326 257.471 3.54995C257.923 3.53483 258.373 3.61221 258.794 3.77733C259.215 3.94246 259.598 4.19185 259.919 4.51021C260.24 4.82857 260.493 5.20919 260.662 5.62873C260.831 6.04826 260.912 6.49786 260.901 6.94995Z" fill="#40939A"/>
<path d="M34.5993 289.43C34.63 289.827 34.5796 290.226 34.4511 290.602C34.3226 290.979 34.1188 291.325 33.852 291.62C33.5852 291.916 33.2611 292.154 32.8994 292.319C32.5377 292.485 32.146 292.576 31.7481 292.585C31.3503 292.595 30.9548 292.523 30.5855 292.375C30.2163 292.226 29.8812 292.004 29.6006 291.722C29.32 291.44 29.0998 291.104 28.9534 290.734C28.8071 290.364 28.7376 289.968 28.7493 289.57C28.7374 289.143 28.8101 288.719 28.9633 288.32C29.1165 287.922 29.3472 287.558 29.6419 287.249C29.9367 286.94 30.2897 286.693 30.6806 286.521C31.0715 286.35 31.4925 286.258 31.9193 286.25C33.5293 286.29 34.5993 287.53 34.5993 289.43Z" fill="#40939A"/>
<path d="M22.5292 245.43C22.5165 246.093 22.2483 246.725 21.7806 247.194C21.3128 247.664 20.6818 247.935 20.0192 247.95C19.6912 247.94 19.3686 247.864 19.0705 247.727C18.7724 247.59 18.5049 247.394 18.2839 247.152C18.0628 246.909 17.8928 246.625 17.7837 246.315C17.6747 246.006 17.629 245.678 17.6492 245.35C17.6545 245.03 17.7228 244.713 17.8502 244.419C17.9777 244.125 18.1619 243.859 18.3921 243.636C18.6224 243.414 18.8944 243.238 19.1924 243.12C19.4905 243.003 19.8088 242.945 20.1292 242.95C20.4496 242.955 20.7659 243.024 21.0599 243.151C21.3539 243.279 21.62 243.463 21.8428 243.693C22.0657 243.923 22.241 244.195 22.3588 244.493C22.4765 244.791 22.5345 245.11 22.5292 245.43Z" fill="#40939A"/>
</g>
<defs>
<clipPath id="clip0_399_13299">
<rect width="413.05" height="366.86" fill="white"/>
</clipPath>
</defs>
</svg>
